<svg width="626" height="270" viewBox="0 0 626 270" fill="none" xmlns="http://www.w3.org/2000/svg">
<rect width="387.776" height="270" rx="29.1624" fill="white"/>
<rect x="9.28125" y="9.15234" width="369.832" height="156.417" rx="17.8288" fill="#090923"/>
<path d="M11.1053 186.112H23.5133V203.848H21.7373V187.72H12.8813V203.848H11.1053V186.112ZM26.5222 197.296C26.5222 196.304 26.6902 195.384 27.0262 194.536C27.3782 193.688 27.8662 192.96 28.4902 192.352C29.1142 191.744 29.8502 191.272 30.6982 190.936C31.5462 190.584 32.4742 190.408 33.4822 190.408C34.4422 190.408 35.3302 190.584 36.1462 190.936C36.9782 191.288 37.6902 191.776 38.2822 192.4C38.8902 193.008 39.3622 193.736 39.6982 194.584C40.0502 195.416 40.2262 196.328 40.2262 197.32C40.2262 198.296 40.0582 199.208 39.7222 200.056C39.3862 200.888 38.9222 201.608 38.3302 202.216C37.7382 202.824 37.0262 203.304 36.1942 203.656C35.3782 203.992 34.4902 204.16 33.5302 204.16C32.5222 204.16 31.5862 203.992 30.7222 203.656C29.8742 203.304 29.1382 202.824 28.5142 202.216C27.8902 201.592 27.4022 200.864 27.0502 200.032C26.6982 199.184 26.5222 198.272 26.5222 197.296ZM33.4822 202.528C34.2022 202.528 34.8662 202.4 35.4742 202.144C36.0822 201.888 36.6022 201.536 37.0342 201.088C37.4662 200.624 37.8022 200.072 38.0422 199.432C38.2982 198.792 38.4262 198.096 38.4262 197.344C38.4262 196.576 38.2982 195.864 38.0422 195.208C37.8022 194.552 37.4502 193.992 36.9862 193.528C36.5382 193.064 36.0022 192.704 35.3782 192.448C34.7702 192.176 34.0902 192.04 33.3382 192.04C32.6182 192.04 31.9462 192.176 31.3222 192.448C30.7142 192.704 30.1862 193.072 29.7382 193.552C29.3062 194.016 28.9622 194.576 28.7062 195.232C28.4502 195.872 28.3222 196.568 28.3222 197.32C28.3222 198.072 28.4502 198.768 28.7062 199.408C28.9622 200.032 29.3222 200.576 29.7862 201.04C30.2502 201.504 30.7942 201.872 31.4182 202.144C32.0582 202.4 32.7462 202.528 33.4822 202.528ZM46.0775 190.72H48.0695L53.7095 203.848H51.8375L47.0855 192.736L42.3095 203.848H40.4375L46.0775 190.72ZM55.5312 190.72H57.3072V196.36H65.1792V190.72H66.9552V203.848H65.1792V197.968H57.3072V203.848H55.5312V190.72ZM69.643 197.296C69.643 196.304 69.811 195.384 70.147 194.536C70.499 193.688 70.987 192.96 71.611 192.352C72.235 191.744 72.971 191.272 73.819 190.936C74.667 190.584 75.595 190.408 76.603 190.408C77.563 190.408 78.451 190.584 79.267 190.936C80.099 191.288 80.811 191.776 81.403 192.4C82.011 193.008 82.483 193.736 82.819 194.584C83.171 195.416 83.347 196.328 83.347 197.32C83.347 198.296 83.179 199.208 82.843 200.056C82.507 200.888 82.043 201.608 81.451 202.216C80.859 202.824 80.147 203.304 79.315 203.656C78.499 203.992 77.611 204.16 76.651 204.16C75.643 204.16 74.707 203.992 73.843 203.656C72.995 203.304 72.259 202.824 71.635 202.216C71.011 201.592 70.523 200.864 70.171 200.032C69.819 199.184 69.643 198.272 69.643 197.296ZM76.603 202.528C77.323 202.528 77.987 202.4 78.595 202.144C79.203 201.888 79.723 201.536 80.155 201.088C80.587 200.624 80.923 200.072 81.163 199.432C81.419 198.792 81.547 198.096 81.547 197.344C81.547 196.576 81.419 195.864 81.163 195.208C80.923 194.552 80.571 193.992 80.107 193.528C79.659 193.064 79.123 192.704 78.499 192.448C77.891 192.176 77.211 192.04 76.459 192.04C75.739 192.04 75.067 192.176 74.443 192.448C73.835 192.704 73.307 193.072 72.859 193.552C72.427 194.016 72.083 194.576 71.827 195.232C71.571 195.872 71.443 196.568 71.443 197.32C71.443 198.072 71.571 198.768 71.827 199.408C72.083 200.032 72.443 200.576 72.907 201.04C73.371 201.504 73.915 201.872 74.539 202.144C75.179 202.4 75.867 202.528 76.603 202.528ZM93.8039 198.616C93.1319 198.696 92.4519 198.76 91.7639 198.808C91.0919 198.84 90.3959 198.856 89.6759 198.856C88.4119 198.856 87.4199 198.488 86.6999 197.752C85.9799 197.016 85.6199 196 85.6199 194.704V190.72H87.3959V194.704C87.3959 195.2 87.4519 195.616 87.5639 195.952C87.6759 196.272 87.8679 196.528 88.1399 196.72C88.4279 196.912 88.8039 197.048 89.2679 197.128C89.7479 197.208 90.3559 197.248 91.0919 197.248C91.5239 197.248 91.9319 197.232 92.3159 197.2C92.6999 197.168 93.1959 197.112 93.8039 197.032V190.72H95.5799V203.848H93.8039V198.616ZM103.977 202.24C106.089 202.24 107.145 201.464 107.145 199.912C107.145 198.36 106.089 197.584 103.977 197.584H100.569V202.24H103.977ZM98.7927 190.72H100.569V195.976H104.433C105.105 195.976 105.713 196.072 106.257 196.264C106.817 196.456 107.289 196.728 107.673 197.08C108.073 197.416 108.385 197.832 108.609 198.328C108.833 198.808 108.945 199.336 108.945 199.912C108.945 200.488 108.833 201.024 108.609 201.52C108.385 202 108.073 202.416 107.673 202.768C107.289 203.104 106.817 203.368 106.257 203.56C105.713 203.752 105.105 203.848 104.433 203.848H98.7927V190.72ZM111.854 200.824H113.63V204.328C113.63 204.664 113.566 204.984 113.438 205.288C113.326 205.608 113.166 205.88 112.958 206.104C112.75 206.344 112.502 206.528 112.214 206.656C111.942 206.8 111.654 206.872 111.35 206.872V205.816C111.67 205.816 111.95 205.68 112.19 205.408C112.446 205.152 112.574 204.848 112.574 204.496V203.848H111.854V200.824ZM11.7773 240.16H9.40125V238.696H12.0653L12.7613 234.976H9.78525V233.512H13.0253L14.0333 228.112H15.5693L14.5853 233.512H18.4973L19.4573 228.112H21.0653L20.0813 233.512H22.4573V234.976H19.8173L19.1453 238.696H22.0973V240.16H18.8573L17.8253 245.848H16.2413L17.2733 240.16H13.3373L12.2573 245.848H10.6973L11.7773 240.16ZM17.5373 238.696L18.2333 234.976H14.3213L13.6253 238.696H17.5373ZM23.4686 234.352C23.4686 232.224 23.9726 230.6 24.9806 229.48C25.9886 228.36 27.4606 227.8 29.3966 227.8C31.3166 227.8 32.7886 228.368 33.8126 229.504C34.8366 230.624 35.3486 232.24 35.3486 234.352V239.392C35.3486 243.904 33.4126 246.16 29.5406 246.16C27.5406 246.16 26.0286 245.592 25.0046 244.456C23.9806 243.304 23.4686 241.616 23.4686 239.392V234.352ZM25.2206 239.104C25.2206 240.944 25.5646 242.312 26.2526 243.208C26.9406 244.104 28.0126 244.552 29.4686 244.552C30.9086 244.552 31.9566 244.12 32.6126 243.256C33.2686 242.376 33.5966 240.992 33.5966 239.104V234.76C33.5966 231.192 32.2046 229.408 29.4206 229.408C26.6206 229.408 25.2206 231.192 25.2206 234.76V239.104ZM44.544 239.68C44.16 239.872 43.816 240.008 43.512 240.088C43.208 240.152 42.864 240.184 42.48 240.184C41.696 240.184 40.952 240.032 40.248 239.728C39.56 239.408 38.96 238.976 38.448 238.432C37.952 237.872 37.552 237.224 37.248 236.488C36.96 235.736 36.816 234.936 36.816 234.088C36.816 233.176 36.96 232.336 37.248 231.568C37.552 230.8 37.968 230.136 38.496 229.576C39.04 229.016 39.672 228.584 40.392 228.28C41.128 227.96 41.928 227.8 42.792 227.8C43.672 227.8 44.48 227.96 45.216 228.28C45.968 228.584 46.616 229.016 47.16 229.576C47.704 230.12 48.128 230.768 48.432 231.52C48.752 232.272 48.912 233.088 48.912 233.968C48.912 234.416 48.88 234.832 48.816 235.216C48.752 235.584 48.64 235.968 48.48 236.368C48.336 236.768 48.128 237.208 47.856 237.688C47.584 238.152 47.232 238.696 46.8 239.32L42.408 245.848H40.368L44.544 239.68ZM42.84 238.576C43.448 238.576 44.016 238.464 44.544 238.24C45.072 238 45.528 237.68 45.912 237.28C46.296 236.864 46.592 236.384 46.8 235.84C47.024 235.28 47.136 234.672 47.136 234.016C47.136 233.344 47.024 232.728 46.8 232.168C46.592 231.608 46.288 231.128 45.888 230.728C45.504 230.312 45.04 229.992 44.496 229.768C43.968 229.528 43.384 229.408 42.744 229.408C42.152 229.408 41.6 229.528 41.088 229.768C40.576 229.992 40.136 230.312 39.768 230.728C39.4 231.128 39.112 231.608 38.904 232.168C38.696 232.728 38.592 233.344 38.592 234.016C38.592 234.688 38.696 235.304 38.904 235.864C39.112 236.408 39.4 236.888 39.768 237.304C40.152 237.704 40.6 238.016 41.112 238.24C41.64 238.464 42.216 238.576 42.84 238.576ZM50.4033 234.352C50.4033 232.224 50.9073 230.6 51.9153 229.48C52.9233 228.36 54.3953 227.8 56.3313 227.8C58.2513 227.8 59.7233 228.368 60.7473 229.504C61.7713 230.624 62.2833 232.24 62.2833 234.352V239.392C62.2833 243.904 60.3473 246.16 56.4753 246.16C54.4753 246.16 52.9633 245.592 51.9393 244.456C50.9153 243.304 50.4033 241.616 50.4033 239.392V234.352ZM52.1553 239.104C52.1553 240.944 52.4993 242.312 53.1873 243.208C53.8753 244.104 54.9473 244.552 56.4033 244.552C57.8433 244.552 58.8913 244.12 59.5473 243.256C60.2033 242.376 60.5313 240.992 60.5313 239.104V234.76C60.5313 231.192 59.1393 229.408 56.3553 229.408C53.5553 229.408 52.1553 231.192 52.1553 234.76V239.104ZM71.4787 239.68C71.0947 239.872 70.7507 240.008 70.4467 240.088C70.1427 240.152 69.7987 240.184 69.4147 240.184C68.6307 240.184 67.8867 240.032 67.1827 239.728C66.4947 239.408 65.8947 238.976 65.3827 238.432C64.8867 237.872 64.4867 237.224 64.1827 236.488C63.8947 235.736 63.7507 234.936 63.7507 234.088C63.7507 233.176 63.8947 232.336 64.1827 231.568C64.4867 230.8 64.9027 230.136 65.4307 229.576C65.9747 229.016 66.6067 228.584 67.3267 228.28C68.0627 227.96 68.8627 227.8 69.7267 227.8C70.6067 227.8 71.4147 227.96 72.1507 228.28C72.9027 228.584 73.5507 229.016 74.0947 229.576C74.6387 230.12 75.0627 230.768 75.3667 231.52C75.6867 232.272 75.8467 233.088 75.8467 233.968C75.8467 234.416 75.8147 234.832 75.7507 235.216C75.6867 235.584 75.5747 235.968 75.4147 236.368C75.2707 236.768 75.0627 237.208 74.7907 237.688C74.5187 238.152 74.1667 238.696 73.7347 239.32L69.3427 245.848H67.3027L71.4787 239.68ZM69.7747 238.576C70.3827 238.576 70.9507 238.464 71.4787 238.24C72.0067 238 72.4627 237.68 72.8467 237.28C73.2307 236.864 73.5267 236.384 73.7347 235.84C73.9587 235.28 74.0707 234.672 74.0707 234.016C74.0707 233.344 73.9587 232.728 73.7347 232.168C73.5267 231.608 73.2227 231.128 72.8227 230.728C72.4387 230.312 71.9747 229.992 71.4307 229.768C70.9027 229.528 70.3187 229.408 69.6787 229.408C69.0867 229.408 68.5347 229.528 68.0227 229.768C67.5107 229.992 67.0707 230.312 66.7027 230.728C66.3347 231.128 66.0467 231.608 65.8387 232.168C65.6307 232.728 65.5267 233.344 65.5267 234.016C65.5267 234.688 65.6307 235.304 65.8387 235.864C66.0467 236.408 66.3347 236.888 66.7027 237.304C67.0867 237.704 67.5347 238.016 68.0467 238.24C68.5747 238.464 69.1507 238.576 69.7747 238.576ZM77.41 244.24L83.626 238.24C84.346 237.536 84.922 236.952 85.354 236.488C85.802 236.024 86.146 235.608 86.386 235.24C86.626 234.872 86.786 234.528 86.866 234.208C86.946 233.872 86.986 233.504 86.986 233.104C86.986 232.56 86.89 232.064 86.698 231.616C86.506 231.168 86.242 230.784 85.906 230.464C85.57 230.128 85.162 229.872 84.682 229.696C84.218 229.504 83.706 229.408 83.146 229.408C81.93 229.408 80.986 229.8 80.314 230.584C79.642 231.352 79.306 232.44 79.306 233.848H77.554C77.554 232.92 77.682 232.088 77.938 231.352C78.21 230.6 78.586 229.96 79.066 229.432C79.546 228.904 80.13 228.504 80.818 228.232C81.522 227.944 82.306 227.8 83.17 227.8C83.986 227.8 84.73 227.936 85.402 228.208C86.09 228.464 86.682 228.832 87.178 229.312C87.674 229.792 88.058 230.368 88.33 231.04C88.618 231.696 88.762 232.416 88.762 233.2C88.762 233.68 88.706 234.128 88.594 234.544C88.498 234.96 88.322 235.384 88.066 235.816C87.81 236.248 87.474 236.704 87.058 237.184C86.642 237.648 86.122 238.184 85.498 238.792L79.81 244.24H88.666V245.848H77.41V244.24ZM92.6294 240.304C92.7254 241.664 93.1174 242.712 93.8054 243.448C94.4934 244.184 95.4134 244.552 96.5654 244.552C97.1094 244.552 97.6134 244.456 98.0774 244.264C98.5574 244.056 98.9654 243.776 99.3014 243.424C99.6534 243.056 99.9254 242.632 100.117 242.152C100.309 241.656 100.405 241.128 100.405 240.568C100.405 239.272 100.005 238.28 99.2054 237.592C98.4214 236.888 97.2774 236.536 95.7734 236.536H95.3414V234.952H96.8534C97.1894 234.952 97.5014 234.88 97.7894 234.736C98.0774 234.592 98.3254 234.4 98.5334 234.16C98.7574 233.904 98.9254 233.608 99.0374 233.272C99.1654 232.936 99.2294 232.576 99.2294 232.192C99.2294 231.376 98.9814 230.712 98.4854 230.2C97.9894 229.672 97.3414 229.408 96.5414 229.408C95.6774 229.408 95.0054 229.68 94.5254 230.224C94.0614 230.752 93.8214 231.52 93.8054 232.528H92.0534C92.1014 231.072 92.5254 229.92 93.3254 229.072C94.1254 228.224 95.1974 227.8 96.5414 227.8C97.1974 227.8 97.7974 227.912 98.3414 228.136C98.9014 228.344 99.3734 228.648 99.7574 229.048C100.157 229.448 100.461 229.928 100.669 230.488C100.893 231.032 101.005 231.632 101.005 232.288C101.005 233.712 100.397 234.848 99.1814 235.696C101.181 236.72 102.181 238.312 102.181 240.472C102.181 241.272 102.037 242.016 101.749 242.704C101.461 243.392 101.069 243.992 100.573 244.504C100.077 245.016 99.4854 245.424 98.7974 245.728C98.1254 246.016 97.4054 246.16 96.6374 246.16C95.7894 246.16 95.0214 246.024 94.3334 245.752C93.6454 245.48 93.0454 245.088 92.5334 244.576C92.0374 244.064 91.6454 243.448 91.3574 242.728C91.0694 242.008 90.9094 241.2 90.8774 240.304H92.6294Z" fill="#89939E"/>
<rect x="238.227" width="387.776" height="270" rx="29.1624" fill="white"/>
<rect x="248.833" y="10.4779" width="367.181" height="153.765" rx="16.5033" fill="white" stroke="#D7D7D7" stroke-width="2.65113"/>
<path d="M255.404 186.112H257.372L265.004 203.848H263.084L256.388 188.128L249.692 203.848H247.772L255.404 186.112ZM270.756 203.416L265.668 190.72H267.612L271.764 201.184L276.204 190.72H278.1L270.516 208.456H268.62L270.756 203.416ZM280.009 190.72H281.785V196.36H289.657V190.72H291.433V203.848H289.657V197.968H281.785V203.848H280.009V190.72ZM294.625 190.72H296.401V196.36H304.273V190.72H306.049V203.848H304.273V197.968H296.401V203.848H294.625V190.72ZM314.185 202.24C316.297 202.24 317.353 201.464 317.353 199.912C317.353 198.36 316.297 197.584 314.185 197.584H311.017V202.24H314.185ZM309.241 190.72H311.017V195.976H314.641C315.313 195.976 315.921 196.072 316.465 196.264C317.025 196.456 317.497 196.728 317.881 197.08C318.281 197.416 318.593 197.832 318.817 198.328C319.041 198.808 319.153 199.336 319.153 199.912C319.153 200.488 319.041 201.024 318.817 201.52C318.593 202 318.281 202.416 317.881 202.768C317.497 203.104 317.025 203.368 316.465 203.56C315.921 203.752 315.313 203.848 314.641 203.848H309.241V190.72ZM320.737 190.72H322.513V203.848H320.737V190.72ZM329.596 185.944C329.596 187.288 330.22 187.96 331.468 187.96C332.716 187.96 333.34 187.288 333.34 185.944H335.116C334.94 186.968 334.54 187.744 333.916 188.272C333.308 188.8 332.492 189.064 331.468 189.064C330.444 189.064 329.62 188.8 328.996 188.272C328.388 187.744 327.996 186.968 327.82 185.944H329.596ZM325.708 190.72H327.484V201.328L335.476 190.72H337.252V203.848H335.476V193.24L327.484 203.848H325.708V190.72ZM360.379 199.984C359.611 201.408 358.707 202.464 357.667 203.152C356.627 203.824 355.387 204.16 353.947 204.16C352.939 204.16 351.995 203.984 351.115 203.632C350.251 203.28 349.499 202.792 348.859 202.168C348.219 201.544 347.715 200.816 347.347 199.984C346.979 199.136 346.795 198.224 346.795 197.248C346.795 196.288 346.971 195.392 347.323 194.56C347.691 193.728 348.195 193.008 348.835 192.4C349.475 191.776 350.219 191.288 351.067 190.936C351.931 190.584 352.851 190.408 353.827 190.408C354.579 190.408 355.291 190.512 355.963 190.72C356.635 190.912 357.251 191.192 357.811 191.56C358.371 191.928 358.867 192.384 359.299 192.928C359.747 193.456 360.099 194.048 360.355 194.704H358.363C357.851 193.84 357.203 193.184 356.419 192.736C355.651 192.272 354.779 192.04 353.803 192.04C353.067 192.04 352.379 192.176 351.739 192.448C351.115 192.72 350.571 193.096 350.107 193.576C349.643 194.04 349.275 194.592 349.003 195.232C348.731 195.872 348.595 196.56 348.595 197.296C348.595 198.032 348.731 198.72 349.003 199.36C349.275 199.984 349.651 200.536 350.131 201.016C350.611 201.48 351.171 201.848 351.811 202.12C352.451 202.392 353.139 202.528 353.875 202.528C354.819 202.528 355.627 202.336 356.299 201.952C356.987 201.552 357.675 200.896 358.363 199.984H360.379ZM363.016 190.72H368.272C369.696 190.72 370.808 191.024 371.608 191.632C372.408 192.24 372.808 193.088 372.808 194.176C372.808 194.704 372.64 195.216 372.304 195.712C371.968 196.208 371.544 196.568 371.032 196.792C372.664 197.4 373.48 198.448 373.48 199.936C373.48 200.512 373.36 201.04 373.12 201.52C372.88 201.984 372.544 202.392 372.112 202.744C371.68 203.096 371.168 203.368 370.576 203.56C369.984 203.752 369.336 203.848 368.632 203.848H363.016V190.72ZM367.984 196.144C368.992 196.144 369.76 195.976 370.288 195.64C370.832 195.288 371.104 194.8 371.104 194.176C371.104 192.944 370.064 192.328 367.984 192.328H364.792V196.144H367.984ZM368.176 202.24C369.312 202.24 370.176 202.048 370.768 201.664C371.376 201.264 371.68 200.688 371.68 199.936C371.68 198.48 370.512 197.752 368.176 197.752H364.792V202.24H368.176ZM388.854 199.528C388.614 200.216 388.278 200.848 387.846 201.424C387.43 201.984 386.942 202.472 386.382 202.888C385.822 203.288 385.206 203.6 384.534 203.824C383.878 204.048 383.19 204.16 382.47 204.16C381.494 204.16 380.582 203.984 379.734 203.632C378.902 203.264 378.174 202.768 377.55 202.144C376.926 201.52 376.43 200.792 376.062 199.96C375.71 199.112 375.534 198.2 375.534 197.224C375.534 196.264 375.71 195.376 376.062 194.56C376.414 193.728 376.894 193.008 377.502 192.4C378.126 191.776 378.846 191.288 379.662 190.936C380.494 190.584 381.382 190.408 382.326 190.408C383.27 190.408 384.158 190.592 384.99 190.96C385.838 191.312 386.574 191.792 387.198 192.4C387.838 193.008 388.342 193.72 388.71 194.536C389.078 195.352 389.262 196.216 389.262 197.128C389.262 197.256 389.254 197.384 389.238 197.512C389.222 197.624 389.198 197.744 389.166 197.872H377.31C377.342 198.512 377.502 199.12 377.79 199.696C378.078 200.256 378.446 200.752 378.894 201.184C379.358 201.6 379.894 201.928 380.502 202.168C381.11 202.408 381.75 202.528 382.422 202.528C382.918 202.528 383.398 202.456 383.862 202.312C384.342 202.168 384.782 201.968 385.182 201.712C385.582 201.44 385.934 201.12 386.238 200.752C386.558 200.384 386.814 199.976 387.006 199.528H388.854ZM387.414 196.264C387.11 194.952 386.502 193.92 385.59 193.168C384.694 192.416 383.606 192.04 382.326 192.04C381.702 192.04 381.11 192.144 380.55 192.352C380.006 192.544 379.518 192.832 379.086 193.216C378.654 193.584 378.286 194.032 377.982 194.56C377.694 195.072 377.486 195.64 377.358 196.264H387.414ZM394.058 192.328H390.602V190.72H399.242V192.328H395.834V203.848H394.058V192.328ZM401.887 200.824H403.663V204.328C403.663 204.664 403.599 204.984 403.471 205.288C403.359 205.608 403.199 205.88 402.991 206.104C402.783 206.344 402.535 206.528 402.247 206.656C401.975 206.8 401.687 206.872 401.383 206.872V205.816C401.703 205.816 401.983 205.68 402.223 205.408C402.479 205.152 402.607 204.848 402.607 204.496V203.848H401.887V200.824ZM250.004 240.16H247.628V238.696H250.292L250.988 234.976H248.012V233.512H251.252L252.26 228.112H253.796L252.812 233.512H256.724L257.684 228.112H259.292L258.308 233.512H260.684V234.976H258.044L257.372 238.696H260.324V240.16H257.084L256.052 245.848H254.468L255.5 240.16H251.564L250.484 245.848H248.924L250.004 240.16ZM255.764 238.696L256.46 234.976H252.548L251.852 238.696H255.764ZM262.799 228.112H271.799V229.72H264.575V236.128H271.535V237.736H264.575V245.848H262.799V228.112ZM281.13 239.68C280.746 239.872 280.402 240.008 280.098 240.088C279.794 240.152 279.45 240.184 279.066 240.184C278.282 240.184 277.538 240.032 276.834 239.728C276.146 239.408 275.546 238.976 275.034 238.432C274.538 237.872 274.138 237.224 273.834 236.488C273.546 235.736 273.402 234.936 273.402 234.088C273.402 233.176 273.546 232.336 273.834 231.568C274.138 230.8 274.554 230.136 275.082 229.576C275.626 229.016 276.258 228.584 276.978 228.28C277.714 227.96 278.514 227.8 279.378 227.8C280.258 227.8 281.066 227.96 281.802 228.28C282.554 228.584 283.202 229.016 283.746 229.576C284.29 230.12 284.714 230.768 285.018 231.52C285.338 232.272 285.498 233.088 285.498 233.968C285.498 234.416 285.466 234.832 285.402 235.216C285.338 235.584 285.226 235.968 285.066 236.368C284.922 236.768 284.714 237.208 284.442 237.688C284.17 238.152 283.818 238.696 283.386 239.32L278.994 245.848H276.954L281.13 239.68ZM279.426 238.576C280.034 238.576 280.602 238.464 281.13 238.24C281.658 238 282.114 237.68 282.498 237.28C282.882 236.864 283.178 236.384 283.386 235.84C283.61 235.28 283.722 234.672 283.722 234.016C283.722 233.344 283.61 232.728 283.386 232.168C283.178 231.608 282.874 231.128 282.474 230.728C282.09 230.312 281.626 229.992 281.082 229.768C280.554 229.528 279.97 229.408 279.33 229.408C278.738 229.408 278.186 229.528 277.674 229.768C277.162 229.992 276.722 230.312 276.354 230.728C275.986 231.128 275.698 231.608 275.49 232.168C275.282 232.728 275.178 233.344 275.178 234.016C275.178 234.688 275.282 235.304 275.49 235.864C275.698 236.408 275.986 236.888 276.354 237.304C276.738 237.704 277.186 238.016 277.698 238.24C278.226 238.464 278.802 238.576 279.426 238.576ZM288.093 228.112H297.093V229.72H289.869V236.128H296.829V237.736H289.869V245.848H288.093V228.112ZM306.424 239.68C306.04 239.872 305.696 240.008 305.392 240.088C305.088 240.152 304.744 240.184 304.36 240.184C303.576 240.184 302.832 240.032 302.128 239.728C301.44 239.408 300.84 238.976 300.328 238.432C299.832 237.872 299.432 237.224 299.128 236.488C298.84 235.736 298.696 234.936 298.696 234.088C298.696 233.176 298.84 232.336 299.128 231.568C299.432 230.8 299.848 230.136 300.376 229.576C300.92 229.016 301.552 228.584 302.272 228.28C303.008 227.96 303.808 227.8 304.672 227.8C305.552 227.8 306.36 227.96 307.096 228.28C307.848 228.584 308.496 229.016 309.04 229.576C309.584 230.12 310.008 230.768 310.312 231.52C310.632 232.272 310.792 233.088 310.792 233.968C310.792 234.416 310.76 234.832 310.696 235.216C310.632 235.584 310.52 235.968 310.36 236.368C310.216 236.768 310.008 237.208 309.736 237.688C309.464 238.152 309.112 238.696 308.68 239.32L304.288 245.848H302.248L306.424 239.68ZM304.72 238.576C305.328 238.576 305.896 238.464 306.424 238.24C306.952 238 307.408 237.68 307.792 237.28C308.176 236.864 308.472 236.384 308.68 235.84C308.904 235.28 309.016 234.672 309.016 234.016C309.016 233.344 308.904 232.728 308.68 232.168C308.472 231.608 308.168 231.128 307.768 230.728C307.384 230.312 306.92 229.992 306.376 229.768C305.848 229.528 305.264 229.408 304.624 229.408C304.032 229.408 303.48 229.528 302.968 229.768C302.456 229.992 302.016 230.312 301.648 230.728C301.28 231.128 300.992 231.608 300.784 232.168C300.576 232.728 300.472 233.344 300.472 234.016C300.472 234.688 300.576 235.304 300.784 235.864C300.992 236.408 301.28 236.888 301.648 237.304C302.032 237.704 302.48 238.016 302.992 238.24C303.52 238.464 304.096 238.576 304.72 238.576ZM313.387 228.112H322.387V229.72H315.163V236.128H322.123V237.736H315.163V245.848H313.387V228.112ZM331.718 239.68C331.334 239.872 330.99 240.008 330.686 240.088C330.382 240.152 330.038 240.184 329.654 240.184C328.87 240.184 328.126 240.032 327.422 239.728C326.734 239.408 326.134 238.976 325.622 238.432C325.126 237.872 324.726 237.224 324.422 236.488C324.134 235.736 323.99 234.936 323.99 234.088C323.99 233.176 324.134 232.336 324.422 231.568C324.726 230.8 325.142 230.136 325.67 229.576C326.214 229.016 326.846 228.584 327.566 228.28C328.302 227.96 329.102 227.8 329.966 227.8C330.846 227.8 331.654 227.96 332.39 228.28C333.142 228.584 333.79 229.016 334.334 229.576C334.878 230.12 335.302 230.768 335.606 231.52C335.926 232.272 336.086 233.088 336.086 233.968C336.086 234.416 336.054 234.832 335.99 235.216C335.926 235.584 335.814 235.968 335.654 236.368C335.51 236.768 335.302 237.208 335.03 237.688C334.758 238.152 334.406 238.696 333.974 239.32L329.582 245.848H327.542L331.718 239.68ZM330.014 238.576C330.622 238.576 331.19 238.464 331.718 238.24C332.246 238 332.702 237.68 333.086 237.28C333.47 236.864 333.766 236.384 333.974 235.84C334.198 235.28 334.31 234.672 334.31 234.016C334.31 233.344 334.198 232.728 333.974 232.168C333.766 231.608 333.462 231.128 333.062 230.728C332.678 230.312 332.214 229.992 331.67 229.768C331.142 229.528 330.558 229.408 329.918 229.408C329.326 229.408 328.774 229.528 328.262 229.768C327.75 229.992 327.31 230.312 326.942 230.728C326.574 231.128 326.286 231.608 326.078 232.168C325.87 232.728 325.766 233.344 325.766 234.016C325.766 234.688 325.87 235.304 326.078 235.864C326.286 236.408 326.574 236.888 326.942 237.304C327.326 237.704 327.774 238.016 328.286 238.24C328.814 238.464 329.39 238.576 330.014 238.576Z" fill="#89939E"/>
</svg>
