<svg width="866" height="270" viewBox="0 0 866 270" fill="none" xmlns="http://www.w3.org/2000/svg">
<rect width="388.39" height="270" rx="29.1624" fill="white"/>
<rect x="9.28125" y="9.15234" width="367.181" height="156.417" rx="17.8288" fill="#E83033"/>
<path d="M13.5053 187.72H9.44925V186.112H19.3373V187.72H15.2812V203.848H13.5053V187.72ZM34.0063 199.528C33.7663 200.216 33.4303 200.848 32.9983 201.424C32.5823 201.984 32.0943 202.472 31.5343 202.888C30.9743 203.288 30.3583 203.6 29.6863 203.824C29.0303 204.048 28.3423 204.16 27.6223 204.16C26.6463 204.16 25.7343 203.984 24.8863 203.632C24.0543 203.264 23.3263 202.768 22.7023 202.144C22.0783 201.52 21.5823 200.792 21.2143 199.96C20.8623 199.112 20.6863 198.2 20.6863 197.224C20.6863 196.264 20.8623 195.376 21.2143 194.56C21.5663 193.728 22.0463 193.008 22.6543 192.4C23.2783 191.776 23.9983 191.288 24.8143 190.936C25.6463 190.584 26.5343 190.408 27.4783 190.408C28.4223 190.408 29.3103 190.592 30.1423 190.96C30.9903 191.312 31.7263 191.792 32.3503 192.4C32.9903 193.008 33.4943 193.72 33.8623 194.536C34.2303 195.352 34.4143 196.216 34.4143 197.128C34.4143 197.256 34.4063 197.384 34.3903 197.512C34.3743 197.624 34.3503 197.744 34.3183 197.872H22.4623C22.4943 198.512 22.6543 199.12 22.9423 199.696C23.2303 200.256 23.5983 200.752 24.0463 201.184C24.5103 201.6 25.0463 201.928 25.6543 202.168C26.2623 202.408 26.9023 202.528 27.5743 202.528C28.0703 202.528 28.5503 202.456 29.0143 202.312C29.4943 202.168 29.9343 201.968 30.3343 201.712C30.7343 201.44 31.0863 201.12 31.3903 200.752C31.7103 200.384 31.9663 199.976 32.1583 199.528H34.0063ZM32.5663 196.264C32.2623 194.952 31.6543 193.92 30.7423 193.168C29.8463 192.416 28.7583 192.04 27.4783 192.04C26.8543 192.04 26.2623 192.144 25.7023 192.352C25.1583 192.544 24.6703 192.832 24.2383 193.216C23.8063 193.584 23.4383 194.032 23.1343 194.56C22.8463 195.072 22.6383 195.64 22.5103 196.264H32.5663ZM36.978 190.72H48.282V203.848H46.506V192.328H38.754V203.848H36.978V190.72ZM55.7246 190.72H57.7166L63.3566 203.848H61.4846L56.7326 192.736L51.9566 203.848H50.0846L55.7246 190.72ZM63.5727 197.296C63.5727 196.304 63.7407 195.384 64.0767 194.536C64.4287 193.688 64.9167 192.96 65.5407 192.352C66.1647 191.744 66.9007 191.272 67.7487 190.936C68.5967 190.584 69.5247 190.408 70.5327 190.408C71.4927 190.408 72.3807 190.584 73.1967 190.936C74.0287 191.288 74.7407 191.776 75.3327 192.4C75.9407 193.008 76.4127 193.736 76.7487 194.584C77.1007 195.416 77.2767 196.328 77.2767 197.32C77.2767 198.296 77.1087 199.208 76.7727 200.056C76.4367 200.888 75.9727 201.608 75.3807 202.216C74.7887 202.824 74.0767 203.304 73.2447 203.656C72.4287 203.992 71.5407 204.16 70.5807 204.16C69.5727 204.16 68.6367 203.992 67.7727 203.656C66.9247 203.304 66.1887 202.824 65.5647 202.216C64.9407 201.592 64.4527 200.864 64.1007 200.032C63.7487 199.184 63.5727 198.272 63.5727 197.296ZM70.5327 202.528C71.2527 202.528 71.9167 202.4 72.5247 202.144C73.1327 201.888 73.6527 201.536 74.0847 201.088C74.5167 200.624 74.8527 200.072 75.0927 199.432C75.3487 198.792 75.4767 198.096 75.4767 197.344C75.4767 196.576 75.3487 195.864 75.0927 195.208C74.8527 194.552 74.5007 193.992 74.0367 193.528C73.5887 193.064 73.0527 192.704 72.4287 192.448C71.8207 192.176 71.1407 192.04 70.3887 192.04C69.6687 192.04 68.9967 192.176 68.3727 192.448C67.7647 192.704 67.2367 193.072 66.7887 193.552C66.3567 194.016 66.0127 194.576 65.7567 195.232C65.5007 195.872 65.3727 196.568 65.3727 197.32C65.3727 198.072 65.5007 198.768 65.7567 199.408C66.0127 200.032 66.3727 200.576 66.8367 201.04C67.3007 201.504 67.8447 201.872 68.4687 202.144C69.1087 202.4 69.7967 202.528 70.5327 202.528ZM94.8026 200.056C94.8346 200.408 94.9306 200.736 95.0906 201.04C95.2506 201.344 95.4666 201.608 95.7386 201.832C96.0106 202.056 96.3306 202.232 96.6986 202.36C97.0666 202.472 97.4586 202.528 97.8746 202.528C98.3066 202.528 98.7066 202.464 99.0746 202.336C99.4586 202.208 99.7946 202.032 100.083 201.808C100.371 201.584 100.595 201.32 100.755 201.016C100.915 200.712 100.995 200.392 100.995 200.056C100.995 199.288 100.627 198.696 99.8906 198.28C99.1546 197.864 98.1386 197.656 96.8426 197.656V196.192C97.9626 196.192 98.8186 196.008 99.4106 195.64C100.003 195.272 100.299 194.736 100.299 194.032C100.299 193.76 100.235 193.504 100.107 193.264C99.9786 193.024 99.8026 192.816 99.5786 192.64C99.3546 192.464 99.0906 192.328 98.7866 192.232C98.4986 192.12 98.1866 192.064 97.8506 192.064C97.1946 192.064 96.6426 192.248 96.1946 192.616C95.7466 192.984 95.4986 193.456 95.4506 194.032H93.6506C93.6826 193.52 93.8106 193.04 94.0346 192.592C94.2586 192.144 94.5546 191.76 94.9226 191.44C95.3066 191.12 95.7466 190.872 96.2426 190.696C96.7546 190.504 97.2986 190.408 97.8746 190.408C98.4666 190.408 99.0186 190.504 99.5306 190.696C100.043 190.872 100.491 191.128 100.875 191.464C101.259 191.784 101.555 192.168 101.763 192.616C101.987 193.048 102.099 193.52 102.099 194.032C102.099 194.688 101.931 195.248 101.595 195.712C101.275 196.16 100.811 196.496 100.203 196.72V196.792C101.051 197.032 101.691 197.432 102.123 197.992C102.571 198.536 102.795 199.224 102.795 200.056C102.795 200.632 102.667 201.168 102.411 201.664C102.155 202.16 101.803 202.592 101.355 202.96C100.923 203.328 100.411 203.624 99.8186 203.848C99.2266 204.056 98.5866 204.16 97.8986 204.16C97.2266 204.16 96.5946 204.056 96.0026 203.848C95.4266 203.64 94.9146 203.352 94.4666 202.984C94.0346 202.616 93.6906 202.184 93.4346 201.688C93.1786 201.176 93.0346 200.632 93.0026 200.056H94.8026ZM104.856 197.32C104.856 196.328 105.032 195.416 105.384 194.584C105.736 193.736 106.216 193.008 106.824 192.4C107.448 191.776 108.184 191.288 109.032 190.936C109.88 190.584 110.792 190.408 111.768 190.408C112.92 190.408 113.904 190.616 114.72 191.032C115.536 191.448 116.28 192.12 116.952 193.048V190.72H118.728V203.848H116.952V201.544C116.6 202.008 116.24 202.408 115.872 202.744C115.52 203.08 115.144 203.352 114.744 203.56C114.344 203.768 113.912 203.92 113.448 204.016C112.984 204.112 112.472 204.16 111.912 204.16C110.904 204.16 109.968 203.992 109.104 203.656C108.24 203.304 107.488 202.824 106.848 202.216C106.224 201.608 105.736 200.888 105.384 200.056C105.032 199.208 104.856 198.296 104.856 197.32ZM106.656 197.248C106.656 197.984 106.792 198.672 107.064 199.312C107.336 199.952 107.704 200.512 108.168 200.992C108.648 201.472 109.208 201.848 109.848 202.12C110.488 202.392 111.168 202.528 111.888 202.528C112.608 202.528 113.272 202.392 113.88 202.12C114.504 201.848 115.04 201.48 115.488 201.016C115.952 200.536 116.312 199.976 116.568 199.336C116.824 198.68 116.952 197.984 116.952 197.248C116.952 196.496 116.816 195.808 116.544 195.184C116.288 194.544 115.928 193.992 115.464 193.528C115 193.064 114.448 192.704 113.808 192.448C113.184 192.176 112.496 192.04 111.744 192.04C111.04 192.04 110.376 192.176 109.752 192.448C109.144 192.72 108.608 193.096 108.144 193.576C107.68 194.04 107.312 194.592 107.04 195.232C106.784 195.856 106.656 196.528 106.656 197.248ZM121.921 190.72H123.697V196.576L129.697 190.72H132.001L125.449 197.08L132.001 203.848H129.673L123.697 197.656V203.848H121.921V190.72ZM133.314 197.32C133.314 196.328 133.49 195.416 133.842 194.584C134.194 193.736 134.674 193.008 135.282 192.4C135.906 191.776 136.642 191.288 137.49 190.936C138.338 190.584 139.25 190.408 140.226 190.408C141.378 190.408 142.362 190.616 143.178 191.032C143.994 191.448 144.738 192.12 145.41 193.048V190.72H147.186V203.848H145.41V201.544C145.058 202.008 144.698 202.408 144.33 202.744C143.978 203.08 143.602 203.352 143.202 203.56C142.802 203.768 142.37 203.92 141.906 204.016C141.442 204.112 140.93 204.16 140.37 204.16C139.362 204.16 138.426 203.992 137.562 203.656C136.698 203.304 135.946 202.824 135.306 202.216C134.682 201.608 134.194 200.888 133.842 200.056C133.49 199.208 133.314 198.296 133.314 197.32ZM135.114 197.248C135.114 197.984 135.25 198.672 135.522 199.312C135.794 199.952 136.162 200.512 136.626 200.992C137.106 201.472 137.666 201.848 138.306 202.12C138.946 202.392 139.626 202.528 140.346 202.528C141.066 202.528 141.73 202.392 142.338 202.12C142.962 201.848 143.498 201.48 143.946 201.016C144.41 200.536 144.77 199.976 145.026 199.336C145.282 198.68 145.41 197.984 145.41 197.248C145.41 196.496 145.274 195.808 145.002 195.184C144.746 194.544 144.386 193.992 143.922 193.528C143.458 193.064 142.906 192.704 142.266 192.448C141.642 192.176 140.954 192.04 140.202 192.04C139.498 192.04 138.834 192.176 138.21 192.448C137.602 192.72 137.066 193.096 136.602 193.576C136.138 194.04 135.77 194.592 135.498 195.232C135.242 195.856 135.114 196.528 135.114 197.248ZM152.611 192.328H149.155V190.72H157.795V192.328H154.387V203.848H152.611V192.328ZM159.265 197.32C159.265 196.328 159.441 195.416 159.793 194.584C160.145 193.736 160.625 193.008 161.233 192.4C161.857 191.776 162.593 191.288 163.441 190.936C164.289 190.584 165.201 190.408 166.177 190.408C167.329 190.408 168.313 190.616 169.129 191.032C169.945 191.448 170.689 192.12 171.361 193.048V190.72H173.137V203.848H171.361V201.544C171.009 202.008 170.649 202.408 170.281 202.744C169.929 203.08 169.553 203.352 169.153 203.56C168.753 203.768 168.321 203.92 167.857 204.016C167.393 204.112 166.881 204.16 166.321 204.16C165.313 204.16 164.377 203.992 163.513 203.656C162.649 203.304 161.897 202.824 161.257 202.216C160.633 201.608 160.145 200.888 159.793 200.056C159.441 199.208 159.265 198.296 159.265 197.32ZM161.065 197.248C161.065 197.984 161.201 198.672 161.473 199.312C161.745 199.952 162.113 200.512 162.577 200.992C163.057 201.472 163.617 201.848 164.257 202.12C164.897 202.392 165.577 202.528 166.297 202.528C167.017 202.528 167.681 202.392 168.289 202.12C168.913 201.848 169.449 201.48 169.897 201.016C170.361 200.536 170.721 199.976 170.977 199.336C171.233 198.68 171.361 197.984 171.361 197.248C171.361 196.496 171.225 195.808 170.953 195.184C170.697 194.544 170.337 193.992 169.873 193.528C169.409 193.064 168.857 192.704 168.217 192.448C167.593 192.176 166.905 192.04 166.153 192.04C165.449 192.04 164.785 192.176 164.161 192.448C163.553 192.72 163.017 193.096 162.553 193.576C162.089 194.04 161.721 194.592 161.449 195.232C161.193 195.856 161.065 196.528 161.065 197.248ZM177.002 200.824H178.778V204.328C178.778 204.664 178.714 204.984 178.586 205.288C178.474 205.608 178.314 205.88 178.106 206.104C177.898 206.344 177.65 206.528 177.362 206.656C177.09 206.8 176.802 206.872 176.498 206.872V205.816C176.818 205.816 177.098 205.68 177.338 205.408C177.594 205.152 177.722 204.848 177.722 204.496V203.848H177.002V200.824ZM11.7773 240.16H9.40125V238.696H12.0653L12.7613 234.976H9.78525V233.512H13.0253L14.0333 228.112H15.5693L14.5853 233.512H18.4973L19.4573 228.112H21.0653L20.0813 233.512H22.4573V234.976H19.8173L19.1453 238.696H22.0973V240.16H18.8573L17.8253 245.848H16.2413L17.2733 240.16H13.3373L12.2573 245.848H10.6973L11.7773 240.16ZM17.5373 238.696L18.2333 234.976H14.3213L13.6253 238.696H17.5373ZM24.5726 228.112H34.2686V229.72H26.3486V236.08H34.0046V237.688H26.3486V244.24H34.2686V245.848H24.5726V228.112ZM36.8021 240.688C36.8021 239.616 37.0581 238.672 37.5701 237.856C38.0821 237.04 38.8261 236.4 39.8021 235.936C39.0821 235.52 38.5541 235.032 38.2181 234.472C37.8981 233.896 37.7381 233.2 37.7381 232.384C37.7381 231.728 37.8581 231.12 38.0981 230.56C38.3381 230 38.6661 229.52 39.0821 229.12C39.5141 228.704 40.0181 228.384 40.5941 228.16C41.1701 227.92 41.7941 227.8 42.4661 227.8C43.1541 227.8 43.7781 227.912 44.3381 228.136C44.9141 228.36 45.4101 228.68 45.8261 229.096C46.2421 229.496 46.5621 229.976 46.7861 230.536C47.0261 231.096 47.1461 231.712 47.1461 232.384C47.1461 234.096 46.4421 235.28 45.0341 235.936C46.0261 236.368 46.7781 236.984 47.2901 237.784C47.8181 238.584 48.0821 239.528 48.0821 240.616C48.0821 241.432 47.9381 242.176 47.6501 242.848C47.3781 243.52 46.9941 244.104 46.4981 244.6C46.0181 245.096 45.4341 245.48 44.7461 245.752C44.0741 246.024 43.3301 246.16 42.5141 246.16C41.6981 246.16 40.9381 246.024 40.2341 245.752C39.5461 245.464 38.9461 245.08 38.4341 244.6C37.9221 244.104 37.5221 243.528 37.2341 242.872C36.9461 242.2 36.8021 241.472 36.8021 240.688ZM42.5141 235.192C42.9301 235.192 43.3061 235.12 43.6421 234.976C43.9941 234.832 44.2981 234.632 44.5541 234.376C44.8101 234.104 45.0101 233.792 45.1541 233.44C45.2981 233.088 45.3701 232.704 45.3701 232.288C45.3701 231.424 45.0981 230.728 44.5541 230.2C44.0101 229.672 43.2901 229.408 42.3941 229.408C41.5461 229.408 40.8501 229.68 40.3061 230.224C39.7781 230.752 39.5141 231.432 39.5141 232.264C39.5141 232.68 39.5861 233.072 39.7301 233.44C39.8901 233.792 40.1061 234.104 40.3781 234.376C40.6501 234.632 40.9621 234.832 41.3141 234.976C41.6821 235.12 42.0821 235.192 42.5141 235.192ZM38.5781 240.736C38.5781 241.28 38.6741 241.792 38.8661 242.272C39.0581 242.736 39.3301 243.136 39.6821 243.472C40.0341 243.808 40.4421 244.072 40.9061 244.264C41.3861 244.456 41.9141 244.552 42.4901 244.552C43.0501 244.552 43.5621 244.456 44.0261 244.264C44.4901 244.072 44.8901 243.808 45.2261 243.472C45.5621 243.12 45.8261 242.712 46.0181 242.248C46.2101 241.768 46.3061 241.24 46.3061 240.664C46.3061 240.104 46.2101 239.592 46.0181 239.128C45.8261 238.648 45.5541 238.24 45.2021 237.904C44.8661 237.568 44.4581 237.312 43.9781 237.136C43.4981 236.944 42.9701 236.848 42.3941 236.848C41.8341 236.848 41.3221 236.944 40.8581 237.136C40.3941 237.328 39.9941 237.6 39.6581 237.952C39.3221 238.288 39.0581 238.696 38.8661 239.176C38.6741 239.64 38.5781 240.16 38.5781 240.736ZM51.8054 240.304C51.9014 241.664 52.2934 242.712 52.9814 243.448C53.6694 244.184 54.5894 244.552 55.7414 244.552C56.2854 244.552 56.7894 244.456 57.2534 244.264C57.7334 244.056 58.1414 243.776 58.4774 243.424C58.8294 243.056 59.1014 242.632 59.2934 242.152C59.4854 241.656 59.5814 241.128 59.5814 240.568C59.5814 239.272 59.1814 238.28 58.3814 237.592C57.5974 236.888 56.4534 236.536 54.9494 236.536H54.5174V234.952H56.0294C56.3654 234.952 56.6774 234.88 56.9654 234.736C57.2534 234.592 57.5014 234.4 57.7094 234.16C57.9334 233.904 58.1014 233.608 58.2134 233.272C58.3414 232.936 58.4054 232.576 58.4054 232.192C58.4054 231.376 58.1574 230.712 57.6614 230.2C57.1654 229.672 56.5174 229.408 55.7174 229.408C54.8534 229.408 54.1814 229.68 53.7014 230.224C53.2374 230.752 52.9974 231.52 52.9814 232.528H51.2294C51.2774 231.072 51.7014 229.92 52.5014 229.072C53.3014 228.224 54.3734 227.8 55.7174 227.8C56.3734 227.8 56.9734 227.912 57.5174 228.136C58.0774 228.344 58.5494 228.648 58.9334 229.048C59.3334 229.448 59.6374 229.928 59.8454 230.488C60.0694 231.032 60.1814 231.632 60.1814 232.288C60.1814 233.712 59.5734 234.848 58.3574 235.696C60.3574 236.72 61.3574 238.312 61.3574 240.472C61.3574 241.272 61.2134 242.016 60.9254 242.704C60.6374 243.392 60.2454 243.992 59.7494 244.504C59.2534 245.016 58.6614 245.424 57.9734 245.728C57.3014 246.016 56.5814 246.16 55.8134 246.16C54.9654 246.16 54.1974 246.024 53.5094 245.752C52.8214 245.48 52.2214 245.088 51.7094 244.576C51.2134 244.064 50.8214 243.448 50.5334 242.728C50.2454 242.008 50.0854 241.2 50.0534 240.304H51.8054ZM63.4488 234.352C63.4488 232.224 63.9528 230.6 64.9608 229.48C65.9688 228.36 67.4408 227.8 69.3768 227.8C71.2968 227.8 72.7688 228.368 73.7928 229.504C74.8168 230.624 75.3288 232.24 75.3288 234.352V239.392C75.3288 243.904 73.3928 246.16 69.5208 246.16C67.5208 246.16 66.0088 245.592 64.9848 244.456C63.9608 243.304 63.4488 241.616 63.4488 239.392V234.352ZM65.2008 239.104C65.2008 240.944 65.5448 242.312 66.2328 243.208C66.9208 244.104 67.9928 244.552 69.4488 244.552C70.8888 244.552 71.9368 244.12 72.5928 243.256C73.2488 242.376 73.5768 240.992 73.5768 239.104V234.76C73.5768 231.192 72.1848 229.408 69.4008 229.408C66.6008 229.408 65.2008 231.192 65.2008 234.76V239.104ZM78.7401 240.304C78.8361 241.664 79.2281 242.712 79.9161 243.448C80.6041 244.184 81.5241 244.552 82.6761 244.552C83.2201 244.552 83.7241 244.456 84.1881 244.264C84.6681 244.056 85.0761 243.776 85.4121 243.424C85.7641 243.056 86.0361 242.632 86.2281 242.152C86.4201 241.656 86.5161 241.128 86.5161 240.568C86.5161 239.272 86.1161 238.28 85.3161 237.592C84.5321 236.888 83.3881 236.536 81.8841 236.536H81.4521V234.952H82.9641C83.3001 234.952 83.6121 234.88 83.9001 234.736C84.1881 234.592 84.4361 234.4 84.6441 234.16C84.8681 233.904 85.0361 233.608 85.1481 233.272C85.2761 232.936 85.3401 232.576 85.3401 232.192C85.3401 231.376 85.0921 230.712 84.5961 230.2C84.1001 229.672 83.4521 229.408 82.6521 229.408C81.7881 229.408 81.1161 229.68 80.6361 230.224C80.1721 230.752 79.9321 231.52 79.9161 232.528H78.1641C78.2121 231.072 78.6361 229.92 79.4361 229.072C80.2361 228.224 81.3081 227.8 82.6521 227.8C83.3081 227.8 83.9081 227.912 84.4521 228.136C85.0121 228.344 85.4841 228.648 85.8681 229.048C86.2681 229.448 86.5721 229.928 86.7801 230.488C87.0041 231.032 87.1161 231.632 87.1161 232.288C87.1161 233.712 86.5081 234.848 85.2921 235.696C87.2921 236.72 88.2921 238.312 88.2921 240.472C88.2921 241.272 88.1481 242.016 87.8601 242.704C87.5721 243.392 87.1801 243.992 86.6841 244.504C86.1881 245.016 85.5961 245.424 84.9081 245.728C84.2361 246.016 83.5161 246.16 82.7481 246.16C81.9001 246.16 81.1321 246.024 80.4441 245.752C79.7561 245.48 79.1561 245.088 78.6441 244.576C78.1481 244.064 77.7561 243.448 77.4681 242.728C77.1801 242.008 77.0201 241.2 76.9881 240.304H78.7401ZM92.2075 240.304C92.3035 241.664 92.6955 242.712 93.3835 243.448C94.0715 244.184 94.9915 244.552 96.1435 244.552C96.6875 244.552 97.1915 244.456 97.6555 244.264C98.1355 244.056 98.5435 243.776 98.8795 243.424C99.2315 243.056 99.5035 242.632 99.6955 242.152C99.8875 241.656 99.9835 241.128 99.9835 240.568C99.9835 239.272 99.5835 238.28 98.7835 237.592C97.9995 236.888 96.8555 236.536 95.3515 236.536H94.9195V234.952H96.4315C96.7675 234.952 97.0795 234.88 97.3675 234.736C97.6555 234.592 97.9035 234.4 98.1115 234.16C98.3355 233.904 98.5035 233.608 98.6155 233.272C98.7435 232.936 98.8075 232.576 98.8075 232.192C98.8075 231.376 98.5595 230.712 98.0635 230.2C97.5675 229.672 96.9195 229.408 96.1195 229.408C95.2555 229.408 94.5835 229.68 94.1035 230.224C93.6395 230.752 93.3995 231.52 93.3835 232.528H91.6315C91.6795 231.072 92.1035 229.92 92.9035 229.072C93.7035 228.224 94.7755 227.8 96.1195 227.8C96.7755 227.8 97.3755 227.912 97.9195 228.136C98.4795 228.344 98.9515 228.648 99.3355 229.048C99.7355 229.448 100.039 229.928 100.247 230.488C100.471 231.032 100.583 231.632 100.583 232.288C100.583 233.712 99.9755 234.848 98.7595 235.696C100.759 236.72 101.759 238.312 101.759 240.472C101.759 241.272 101.615 242.016 101.327 242.704C101.039 243.392 100.647 243.992 100.151 244.504C99.6555 245.016 99.0635 245.424 98.3755 245.728C97.7035 246.016 96.9835 246.16 96.2155 246.16C95.3675 246.16 94.5995 246.024 93.9115 245.752C93.2235 245.48 92.6235 245.088 92.1115 244.576C91.6155 244.064 91.2235 243.448 90.9355 242.728C90.6475 242.008 90.4875 241.2 90.4555 240.304H92.2075Z" fill="#89939E"/>
<rect x="239" width="388.39" height="270" rx="29.1624" fill="white"/>
<rect x="248.281" y="9.15234" width="368.507" height="156.417" rx="17.8288" fill="#E88C30"/>
<path d="M250.105 186.112H262.513V203.848H260.737V187.72H251.881V203.848H250.105V186.112ZM278.842 199.528C278.602 200.216 278.266 200.848 277.834 201.424C277.418 201.984 276.93 202.472 276.37 202.888C275.81 203.288 275.194 203.6 274.522 203.824C273.866 204.048 273.178 204.16 272.458 204.16C271.482 204.16 270.57 203.984 269.722 203.632C268.89 203.264 268.162 202.768 267.538 202.144C266.914 201.52 266.418 200.792 266.05 199.96C265.698 199.112 265.522 198.2 265.522 197.224C265.522 196.264 265.698 195.376 266.05 194.56C266.402 193.728 266.882 193.008 267.49 192.4C268.114 191.776 268.834 191.288 269.65 190.936C270.482 190.584 271.37 190.408 272.314 190.408C273.258 190.408 274.146 190.592 274.978 190.96C275.826 191.312 276.562 191.792 277.186 192.4C277.826 193.008 278.33 193.72 278.698 194.536C279.066 195.352 279.25 196.216 279.25 197.128C279.25 197.256 279.242 197.384 279.226 197.512C279.21 197.624 279.186 197.744 279.154 197.872H267.298C267.33 198.512 267.49 199.12 267.778 199.696C268.066 200.256 268.434 200.752 268.882 201.184C269.346 201.6 269.882 201.928 270.49 202.168C271.098 202.408 271.738 202.528 272.41 202.528C272.906 202.528 273.386 202.456 273.85 202.312C274.33 202.168 274.77 201.968 275.17 201.712C275.57 201.44 275.922 201.12 276.226 200.752C276.546 200.384 276.802 199.976 276.994 199.528H278.842ZM277.402 196.264C277.098 194.952 276.49 193.92 275.578 193.168C274.682 192.416 273.594 192.04 272.314 192.04C271.69 192.04 271.098 192.144 270.538 192.352C269.994 192.544 269.506 192.832 269.074 193.216C268.642 193.584 268.274 194.032 267.97 194.56C267.682 195.072 267.474 195.64 267.346 196.264H277.402ZM281.814 190.72H283.59V192.976C284.15 192.128 284.862 191.488 285.726 191.056C286.606 190.624 287.614 190.408 288.75 190.408C289.726 190.408 290.63 190.584 291.462 190.936C292.31 191.288 293.046 191.776 293.67 192.4C294.294 193.008 294.782 193.736 295.134 194.584C295.486 195.416 295.662 196.32 295.662 197.296C295.662 198.256 295.486 199.16 295.134 200.008C294.782 200.84 294.294 201.568 293.67 202.192C293.046 202.8 292.31 203.28 291.462 203.632C290.614 203.984 289.694 204.16 288.702 204.16C287.598 204.16 286.614 203.944 285.75 203.512C284.886 203.08 284.166 202.44 283.59 201.592V208.456H281.814V190.72ZM288.678 202.528C289.414 202.528 290.094 202.4 290.718 202.144C291.358 201.872 291.91 201.504 292.374 201.04C292.838 200.576 293.198 200.032 293.454 199.408C293.726 198.768 293.862 198.08 293.862 197.344C293.862 196.576 293.726 195.864 293.454 195.208C293.198 194.552 292.838 193.992 292.374 193.528C291.91 193.064 291.358 192.704 290.718 192.448C290.078 192.176 289.374 192.04 288.606 192.04C287.886 192.04 287.214 192.176 286.59 192.448C285.966 192.72 285.422 193.096 284.958 193.576C284.494 194.04 284.126 194.592 283.854 195.232C283.598 195.872 283.47 196.56 283.47 197.296C283.47 198.032 283.598 198.72 283.854 199.36C284.126 200 284.494 200.552 284.958 201.016C285.438 201.48 285.99 201.848 286.614 202.12C287.254 202.392 287.942 202.528 288.678 202.528ZM298.352 190.72H303.608C305.032 190.72 306.144 191.024 306.944 191.632C307.744 192.24 308.144 193.088 308.144 194.176C308.144 194.704 307.976 195.216 307.64 195.712C307.304 196.208 306.88 196.568 306.368 196.792C308 197.4 308.816 198.448 308.816 199.936C308.816 200.512 308.696 201.04 308.456 201.52C308.216 201.984 307.88 202.392 307.448 202.744C307.016 203.096 306.504 203.368 305.912 203.56C305.32 203.752 304.672 203.848 303.968 203.848H298.352V190.72ZM303.32 196.144C304.328 196.144 305.096 195.976 305.624 195.64C306.168 195.288 306.44 194.8 306.44 194.176C306.44 192.944 305.4 192.328 303.32 192.328H300.128V196.144H303.32ZM303.512 202.24C304.648 202.24 305.512 202.048 306.104 201.664C306.712 201.264 307.016 200.688 307.016 199.936C307.016 198.48 305.848 197.752 303.512 197.752H300.128V202.24H303.512ZM316.318 202.24C318.43 202.24 319.486 201.464 319.486 199.912C319.486 198.36 318.43 197.584 316.318 197.584H313.15V202.24H316.318ZM311.374 190.72H313.15V195.976H316.774C317.446 195.976 318.054 196.072 318.598 196.264C319.158 196.456 319.63 196.728 320.014 197.08C320.414 197.416 320.726 197.832 320.95 198.328C321.174 198.808 321.286 199.336 321.286 199.912C321.286 200.488 321.174 201.024 320.95 201.52C320.726 202 320.414 202.416 320.014 202.768C319.63 203.104 319.158 203.368 318.598 203.56C318.054 203.752 317.446 203.848 316.774 203.848H311.374V190.72ZM322.87 190.72H324.646V203.848H322.87V190.72ZM331.729 185.944C331.729 187.288 332.353 187.96 333.601 187.96C334.849 187.96 335.473 187.288 335.473 185.944H337.249C337.073 186.968 336.673 187.744 336.049 188.272C335.441 188.8 334.625 189.064 333.601 189.064C332.577 189.064 331.753 188.8 331.129 188.272C330.521 187.744 330.129 186.968 329.953 185.944H331.729ZM327.841 190.72H329.617V201.328L337.609 190.72H339.385V203.848H337.609V193.24L329.617 203.848H327.841V190.72ZM353.68 190.72H355.672L361.312 203.848H359.44L354.688 192.736L349.912 203.848H348.04L353.68 190.72ZM365.824 203.416L360.736 190.72H362.68L366.832 201.184L371.272 190.72H373.168L365.584 208.456H363.688L365.824 203.416ZM382.83 198.616C382.158 198.696 381.478 198.76 380.79 198.808C380.118 198.84 379.422 198.856 378.702 198.856C377.438 198.856 376.446 198.488 375.726 197.752C375.006 197.016 374.646 196 374.646 194.704V190.72H376.422V194.704C376.422 195.2 376.478 195.616 376.59 195.952C376.702 196.272 376.894 196.528 377.166 196.72C377.454 196.912 377.83 197.048 378.294 197.128C378.774 197.208 379.382 197.248 380.118 197.248C380.55 197.248 380.958 197.232 381.342 197.2C381.726 197.168 382.222 197.112 382.83 197.032V190.72H384.606V203.848H382.83V198.616ZM388.49 200.824H390.266V204.328C390.266 204.664 390.202 204.984 390.074 205.288C389.962 205.608 389.802 205.88 389.594 206.104C389.386 206.344 389.138 206.528 388.85 206.656C388.578 206.8 388.29 206.872 387.986 206.872V205.816C388.306 205.816 388.586 205.68 388.826 205.408C389.082 205.152 389.21 204.848 389.21 204.496V203.848H388.49V200.824ZM250.777 240.16H248.401V238.696H251.065L251.761 234.976H248.785V233.512H252.025L253.033 228.112H254.569L253.585 233.512H257.497L258.457 228.112H260.065L259.081 233.512H261.457V234.976H258.817L258.145 238.696H261.097V240.16H257.857L256.825 245.848H255.241L256.273 240.16H252.337L251.257 245.848H249.697L250.777 240.16ZM256.537 238.696L257.233 234.976H253.321L252.625 238.696H256.537ZM263.573 228.112H273.269V229.72H265.349V236.08H273.005V237.688H265.349V244.24H273.269V245.848H263.573V228.112ZM275.802 240.688C275.802 239.616 276.058 238.672 276.57 237.856C277.082 237.04 277.826 236.4 278.802 235.936C278.082 235.52 277.554 235.032 277.218 234.472C276.898 233.896 276.738 233.2 276.738 232.384C276.738 231.728 276.858 231.12 277.098 230.56C277.338 230 277.666 229.52 278.082 229.12C278.514 228.704 279.018 228.384 279.594 228.16C280.17 227.92 280.794 227.8 281.466 227.8C282.154 227.8 282.778 227.912 283.338 228.136C283.914 228.36 284.41 228.68 284.826 229.096C285.242 229.496 285.562 229.976 285.786 230.536C286.026 231.096 286.146 231.712 286.146 232.384C286.146 234.096 285.442 235.28 284.034 235.936C285.026 236.368 285.778 236.984 286.29 237.784C286.818 238.584 287.082 239.528 287.082 240.616C287.082 241.432 286.938 242.176 286.65 242.848C286.378 243.52 285.994 244.104 285.498 244.6C285.018 245.096 284.434 245.48 283.746 245.752C283.074 246.024 282.33 246.16 281.514 246.16C280.698 246.16 279.938 246.024 279.234 245.752C278.546 245.464 277.946 245.08 277.434 244.6C276.922 244.104 276.522 243.528 276.234 242.872C275.946 242.2 275.802 241.472 275.802 240.688ZM281.514 235.192C281.93 235.192 282.306 235.12 282.642 234.976C282.994 234.832 283.298 234.632 283.554 234.376C283.81 234.104 284.01 233.792 284.154 233.44C284.298 233.088 284.37 232.704 284.37 232.288C284.37 231.424 284.098 230.728 283.554 230.2C283.01 229.672 282.29 229.408 281.394 229.408C280.546 229.408 279.85 229.68 279.306 230.224C278.778 230.752 278.514 231.432 278.514 232.264C278.514 232.68 278.586 233.072 278.73 233.44C278.89 233.792 279.106 234.104 279.378 234.376C279.65 234.632 279.962 234.832 280.314 234.976C280.682 235.12 281.082 235.192 281.514 235.192ZM277.578 240.736C277.578 241.28 277.674 241.792 277.866 242.272C278.058 242.736 278.33 243.136 278.682 243.472C279.034 243.808 279.442 244.072 279.906 244.264C280.386 244.456 280.914 244.552 281.49 244.552C282.05 244.552 282.562 244.456 283.026 244.264C283.49 244.072 283.89 243.808 284.226 243.472C284.562 243.12 284.826 242.712 285.018 242.248C285.21 241.768 285.306 241.24 285.306 240.664C285.306 240.104 285.21 239.592 285.018 239.128C284.826 238.648 284.554 238.24 284.202 237.904C283.866 237.568 283.458 237.312 282.978 237.136C282.498 236.944 281.97 236.848 281.394 236.848C280.834 236.848 280.322 236.944 279.858 237.136C279.394 237.328 278.994 237.6 278.658 237.952C278.322 238.288 278.058 238.696 277.866 239.176C277.674 239.64 277.578 240.16 277.578 240.736ZM289.269 240.688C289.269 239.616 289.525 238.672 290.037 237.856C290.549 237.04 291.293 236.4 292.269 235.936C291.549 235.52 291.021 235.032 290.685 234.472C290.365 233.896 290.205 233.2 290.205 232.384C290.205 231.728 290.325 231.12 290.565 230.56C290.805 230 291.133 229.52 291.549 229.12C291.981 228.704 292.485 228.384 293.061 228.16C293.637 227.92 294.261 227.8 294.933 227.8C295.621 227.8 296.245 227.912 296.805 228.136C297.381 228.36 297.877 228.68 298.293 229.096C298.709 229.496 299.029 229.976 299.253 230.536C299.493 231.096 299.613 231.712 299.613 232.384C299.613 234.096 298.909 235.28 297.501 235.936C298.493 236.368 299.245 236.984 299.757 237.784C300.285 238.584 300.549 239.528 300.549 240.616C300.549 241.432 300.405 242.176 300.117 242.848C299.845 243.52 299.461 244.104 298.965 244.6C298.485 245.096 297.901 245.48 297.213 245.752C296.541 246.024 295.797 246.16 294.981 246.16C294.165 246.16 293.405 246.024 292.701 245.752C292.013 245.464 291.413 245.08 290.901 244.6C290.389 244.104 289.989 243.528 289.701 242.872C289.413 242.2 289.269 241.472 289.269 240.688ZM294.981 235.192C295.397 235.192 295.773 235.12 296.109 234.976C296.461 234.832 296.765 234.632 297.021 234.376C297.277 234.104 297.477 233.792 297.621 233.44C297.765 233.088 297.837 232.704 297.837 232.288C297.837 231.424 297.565 230.728 297.021 230.2C296.477 229.672 295.757 229.408 294.861 229.408C294.013 229.408 293.317 229.68 292.773 230.224C292.245 230.752 291.981 231.432 291.981 232.264C291.981 232.68 292.053 233.072 292.197 233.44C292.357 233.792 292.573 234.104 292.845 234.376C293.117 234.632 293.429 234.832 293.781 234.976C294.149 235.12 294.549 235.192 294.981 235.192ZM291.045 240.736C291.045 241.28 291.141 241.792 291.333 242.272C291.525 242.736 291.797 243.136 292.149 243.472C292.501 243.808 292.909 244.072 293.373 244.264C293.853 244.456 294.381 244.552 294.957 244.552C295.517 244.552 296.029 244.456 296.493 244.264C296.957 244.072 297.357 243.808 297.693 243.472C298.029 243.12 298.293 242.712 298.485 242.248C298.677 241.768 298.773 241.24 298.773 240.664C298.773 240.104 298.677 239.592 298.485 239.128C298.293 238.648 298.021 238.24 297.669 237.904C297.333 237.568 296.925 237.312 296.445 237.136C295.965 236.944 295.437 236.848 294.861 236.848C294.301 236.848 293.789 236.944 293.325 237.136C292.861 237.328 292.461 237.6 292.125 237.952C291.789 238.288 291.525 238.696 291.333 239.176C291.141 239.64 291.045 240.16 291.045 240.736ZM320.209 241.192C318.417 244.504 315.713 246.16 312.097 246.16C310.769 246.16 309.537 245.928 308.401 245.464C307.265 245 306.281 244.36 305.449 243.544C304.617 242.728 303.961 241.768 303.481 240.664C303.017 239.544 302.785 238.336 302.785 237.04C302.785 235.712 303.017 234.488 303.481 233.368C303.945 232.232 304.585 231.256 305.401 230.44C306.217 229.608 307.185 228.96 308.305 228.496C309.441 228.032 310.665 227.8 311.977 227.8C312.889 227.8 313.761 227.912 314.593 228.136C315.441 228.36 316.217 228.688 316.921 229.12C317.625 229.536 318.249 230.048 318.793 230.656C319.353 231.264 319.801 231.952 320.137 232.72H318.145C316.769 230.528 314.737 229.432 312.049 229.432C310.993 229.432 310.009 229.624 309.097 230.008C308.185 230.392 307.393 230.92 306.721 231.592C306.049 232.264 305.521 233.064 305.137 233.992C304.769 234.904 304.585 235.896 304.585 236.968C304.585 238.008 304.777 238.992 305.161 239.92C305.561 240.832 306.097 241.632 306.769 242.32C307.457 242.992 308.257 243.528 309.169 243.928C310.081 244.328 311.049 244.528 312.073 244.528C313.321 244.528 314.441 244.264 315.433 243.736C316.425 243.192 317.361 242.344 318.241 241.192H320.209ZM323.975 240.304C324.071 241.664 324.463 242.712 325.151 243.448C325.839 244.184 326.759 244.552 327.911 244.552C328.455 244.552 328.959 244.456 329.423 244.264C329.903 244.056 330.311 243.776 330.647 243.424C330.999 243.056 331.271 242.632 331.463 242.152C331.655 241.656 331.751 241.128 331.751 240.568C331.751 239.272 331.351 238.28 330.551 237.592C329.767 236.888 328.623 236.536 327.119 236.536H326.687V234.952H328.199C328.535 234.952 328.847 234.88 329.135 234.736C329.423 234.592 329.671 234.4 329.879 234.16C330.103 233.904 330.271 233.608 330.383 233.272C330.511 232.936 330.575 232.576 330.575 232.192C330.575 231.376 330.327 230.712 329.831 230.2C329.335 229.672 328.687 229.408 327.887 229.408C327.023 229.408 326.351 229.68 325.871 230.224C325.407 230.752 325.167 231.52 325.151 232.528H323.399C323.447 231.072 323.871 229.92 324.671 229.072C325.471 228.224 326.543 227.8 327.887 227.8C328.543 227.8 329.143 227.912 329.687 228.136C330.247 228.344 330.719 228.648 331.103 229.048C331.503 229.448 331.807 229.928 332.015 230.488C332.239 231.032 332.351 231.632 332.351 232.288C332.351 233.712 331.743 234.848 330.527 235.696C332.527 236.72 333.527 238.312 333.527 240.472C333.527 241.272 333.383 242.016 333.095 242.704C332.807 243.392 332.415 243.992 331.919 244.504C331.423 245.016 330.831 245.424 330.143 245.728C329.471 246.016 328.751 246.16 327.983 246.16C327.135 246.16 326.367 246.024 325.679 245.752C324.991 245.48 324.391 245.088 323.879 244.576C323.383 244.064 322.991 243.448 322.703 242.728C322.415 242.008 322.255 241.2 322.223 240.304H323.975ZM335.618 234.352C335.618 232.224 336.122 230.6 337.13 229.48C338.138 228.36 339.61 227.8 341.546 227.8C343.466 227.8 344.938 228.368 345.962 229.504C346.986 230.624 347.498 232.24 347.498 234.352V239.392C347.498 243.904 345.562 246.16 341.69 246.16C339.69 246.16 338.178 245.592 337.154 244.456C336.13 243.304 335.618 241.616 335.618 239.392V234.352ZM337.37 239.104C337.37 240.944 337.714 242.312 338.402 243.208C339.09 244.104 340.162 244.552 341.618 244.552C343.058 244.552 344.106 244.12 344.762 243.256C345.418 242.376 345.746 240.992 345.746 239.104V234.76C345.746 231.192 344.354 229.408 341.57 229.408C338.77 229.408 337.37 231.192 337.37 234.76V239.104Z" fill="#89939E"/>
<rect x="477.203" width="388.39" height="270" rx="29.1624" fill="white"/>
<rect x="486.484" y="9.15234" width="367.181" height="156.417" rx="17.8288" fill="#FFF500"/>
<path d="M488.812 198.736C488.812 199.264 488.908 199.76 489.1 200.224C489.292 200.672 489.556 201.064 489.892 201.4C490.228 201.736 490.62 202 491.068 202.192C491.516 202.384 491.996 202.48 492.508 202.48C493.02 202.48 493.5 202.384 493.948 202.192C494.396 202 494.788 201.736 495.124 201.4C495.46 201.064 495.724 200.672 495.916 200.224C496.108 199.76 496.204 199.264 496.204 198.736C496.204 197.568 495.788 196.664 494.956 196.024C494.14 195.368 492.98 195.04 491.476 195.04V193.432C492.74 193.432 493.716 193.184 494.404 192.688C495.092 192.176 495.436 191.448 495.436 190.504C495.436 190.088 495.356 189.696 495.196 189.328C495.036 188.944 494.82 188.616 494.548 188.344C494.292 188.072 493.98 187.856 493.612 187.696C493.26 187.536 492.876 187.456 492.46 187.456C492.06 187.456 491.676 187.536 491.308 187.696C490.94 187.856 490.62 188.072 490.348 188.344C490.092 188.616 489.884 188.944 489.724 189.328C489.564 189.696 489.484 190.088 489.484 190.504H487.636C487.636 189.864 487.764 189.264 488.02 188.704C488.276 188.128 488.62 187.624 489.052 187.192C489.5 186.76 490.012 186.424 490.588 186.184C491.18 185.928 491.804 185.8 492.46 185.8C493.116 185.8 493.732 185.928 494.308 186.184C494.9 186.424 495.412 186.752 495.844 187.168C496.292 187.584 496.644 188.08 496.9 188.656C497.156 189.216 497.284 189.816 497.284 190.456C497.284 190.888 497.212 191.304 497.068 191.704C496.924 192.104 496.716 192.464 496.444 192.784C496.188 193.104 495.884 193.384 495.532 193.624C495.18 193.848 494.788 194.008 494.356 194.104C494.868 194.2 495.348 194.4 495.796 194.704C496.26 195.008 496.66 195.376 496.996 195.808C497.332 196.224 497.596 196.688 497.788 197.2C497.996 197.712 498.1 198.24 498.1 198.784C498.1 199.52 497.948 200.216 497.644 200.872C497.356 201.528 496.956 202.104 496.444 202.6C495.948 203.08 495.356 203.464 494.668 203.752C493.996 204.024 493.276 204.16 492.508 204.16C491.74 204.16 491.02 204.016 490.348 203.728C489.676 203.44 489.084 203.056 488.572 202.576C488.06 202.08 487.652 201.504 487.348 200.848C487.06 200.176 486.916 199.472 486.916 198.736H488.812ZM500.093 197.296C500.093 196.304 500.261 195.384 500.597 194.536C500.949 193.688 501.437 192.96 502.061 192.352C502.685 191.744 503.421 191.272 504.269 190.936C505.117 190.584 506.045 190.408 507.053 190.408C508.013 190.408 508.901 190.584 509.717 190.936C510.549 191.288 511.261 191.776 511.853 192.4C512.461 193.008 512.933 193.736 513.269 194.584C513.621 195.416 513.797 196.328 513.797 197.32C513.797 198.296 513.629 199.208 513.293 200.056C512.957 200.888 512.493 201.608 511.901 202.216C511.309 202.824 510.597 203.304 509.765 203.656C508.949 203.992 508.061 204.16 507.101 204.16C506.093 204.16 505.157 203.992 504.293 203.656C503.445 203.304 502.709 202.824 502.085 202.216C501.461 201.592 500.973 200.864 500.621 200.032C500.269 199.184 500.093 198.272 500.093 197.296ZM507.053 202.528C507.773 202.528 508.437 202.4 509.045 202.144C509.653 201.888 510.173 201.536 510.605 201.088C511.037 200.624 511.373 200.072 511.613 199.432C511.869 198.792 511.997 198.096 511.997 197.344C511.997 196.576 511.869 195.864 511.613 195.208C511.373 194.552 511.021 193.992 510.557 193.528C510.109 193.064 509.573 192.704 508.949 192.448C508.341 192.176 507.661 192.04 506.909 192.04C506.189 192.04 505.517 192.176 504.893 192.448C504.285 192.704 503.757 193.072 503.309 193.552C502.877 194.016 502.533 194.576 502.277 195.232C502.021 195.872 501.893 196.568 501.893 197.32C501.893 198.072 502.021 198.768 502.277 199.408C502.533 200.032 502.893 200.576 503.357 201.04C503.821 201.504 504.365 201.872 504.989 202.144C505.629 202.4 506.317 202.528 507.053 202.528ZM519.648 190.72H521.64L527.28 203.848H525.408L520.656 192.736L515.88 203.848H514.008L519.648 190.72ZM527.496 197.296C527.496 196.304 527.664 195.384 528 194.536C528.352 193.688 528.84 192.96 529.464 192.352C530.088 191.744 530.824 191.272 531.672 190.936C532.52 190.584 533.448 190.408 534.456 190.408C535.416 190.408 536.304 190.584 537.12 190.936C537.952 191.288 538.664 191.776 539.256 192.4C539.864 193.008 540.336 193.736 540.672 194.584C541.024 195.416 541.2 196.328 541.2 197.32C541.2 198.296 541.032 199.208 540.696 200.056C540.36 200.888 539.896 201.608 539.304 202.216C538.712 202.824 538 203.304 537.168 203.656C536.352 203.992 535.464 204.16 534.504 204.16C533.496 204.16 532.56 203.992 531.696 203.656C530.848 203.304 530.112 202.824 529.488 202.216C528.864 201.592 528.376 200.864 528.024 200.032C527.672 199.184 527.496 198.272 527.496 197.296ZM534.456 202.528C535.176 202.528 535.84 202.4 536.448 202.144C537.056 201.888 537.576 201.536 538.008 201.088C538.44 200.624 538.776 200.072 539.016 199.432C539.272 198.792 539.4 198.096 539.4 197.344C539.4 196.576 539.272 195.864 539.016 195.208C538.776 194.552 538.424 193.992 537.96 193.528C537.512 193.064 536.976 192.704 536.352 192.448C535.744 192.176 535.064 192.04 534.312 192.04C533.592 192.04 532.92 192.176 532.296 192.448C531.688 192.704 531.16 193.072 530.712 193.552C530.28 194.016 529.936 194.576 529.68 195.232C529.424 195.872 529.296 196.568 529.296 197.32C529.296 198.072 529.424 198.768 529.68 199.408C529.936 200.032 530.296 200.576 530.76 201.04C531.224 201.504 531.768 201.872 532.392 202.144C533.032 202.4 533.72 202.528 534.456 202.528ZM546.137 192.328H542.681V190.72H551.321V192.328H547.913V203.848H546.137V192.328ZM552.79 197.296C552.79 196.304 552.958 195.384 553.294 194.536C553.646 193.688 554.134 192.96 554.758 192.352C555.382 191.744 556.118 191.272 556.966 190.936C557.814 190.584 558.742 190.408 559.75 190.408C560.71 190.408 561.598 190.584 562.414 190.936C563.246 191.288 563.958 191.776 564.55 192.4C565.158 193.008 565.63 193.736 565.966 194.584C566.318 195.416 566.494 196.328 566.494 197.32C566.494 198.296 566.326 199.208 565.99 200.056C565.654 200.888 565.19 201.608 564.598 202.216C564.006 202.824 563.294 203.304 562.462 203.656C561.646 203.992 560.758 204.16 559.798 204.16C558.79 204.16 557.854 203.992 556.99 203.656C556.142 203.304 555.406 202.824 554.782 202.216C554.158 201.592 553.67 200.864 553.318 200.032C552.966 199.184 552.79 198.272 552.79 197.296ZM559.75 202.528C560.47 202.528 561.134 202.4 561.742 202.144C562.35 201.888 562.87 201.536 563.302 201.088C563.734 200.624 564.07 200.072 564.31 199.432C564.566 198.792 564.694 198.096 564.694 197.344C564.694 196.576 564.566 195.864 564.31 195.208C564.07 194.552 563.718 193.992 563.254 193.528C562.806 193.064 562.27 192.704 561.646 192.448C561.038 192.176 560.358 192.04 559.606 192.04C558.886 192.04 558.214 192.176 557.59 192.448C556.982 192.704 556.454 193.072 556.006 193.552C555.574 194.016 555.23 194.576 554.974 195.232C554.718 195.872 554.59 196.568 554.59 197.32C554.59 198.072 554.718 198.768 554.974 199.408C555.23 200.032 555.59 200.576 556.054 201.04C556.518 201.504 557.062 201.872 557.686 202.144C558.326 202.4 559.014 202.528 559.75 202.528ZM573.087 185.944C573.087 187.288 573.711 187.96 574.959 187.96C576.207 187.96 576.831 187.288 576.831 185.944H578.607C578.431 186.968 578.031 187.744 577.407 188.272C576.799 188.8 575.983 189.064 574.959 189.064C573.935 189.064 573.111 188.8 572.487 188.272C571.879 187.744 571.487 186.968 571.311 185.944H573.087ZM569.199 190.72H570.975V201.328L578.967 190.72H580.743V203.848H578.967V193.24L570.975 203.848H569.199V190.72ZM591.942 200.056C591.974 200.408 592.07 200.736 592.23 201.04C592.39 201.344 592.606 201.608 592.878 201.832C593.15 202.056 593.47 202.232 593.838 202.36C594.206 202.472 594.598 202.528 595.014 202.528C595.446 202.528 595.846 202.464 596.214 202.336C596.598 202.208 596.934 202.032 597.222 201.808C597.51 201.584 597.734 201.32 597.894 201.016C598.054 200.712 598.134 200.392 598.134 200.056C598.134 199.288 597.766 198.696 597.03 198.28C596.294 197.864 595.278 197.656 593.982 197.656V196.192C595.102 196.192 595.958 196.008 596.55 195.64C597.142 195.272 597.438 194.736 597.438 194.032C597.438 193.76 597.374 193.504 597.246 193.264C597.118 193.024 596.942 192.816 596.718 192.64C596.494 192.464 596.23 192.328 595.926 192.232C595.638 192.12 595.326 192.064 594.99 192.064C594.334 192.064 593.782 192.248 593.334 192.616C592.886 192.984 592.638 193.456 592.59 194.032H590.79C590.822 193.52 590.95 193.04 591.174 192.592C591.398 192.144 591.694 191.76 592.062 191.44C592.446 191.12 592.886 190.872 593.382 190.696C593.894 190.504 594.438 190.408 595.014 190.408C595.606 190.408 596.158 190.504 596.67 190.696C597.182 190.872 597.63 191.128 598.014 191.464C598.398 191.784 598.694 192.168 598.902 192.616C599.126 193.048 599.238 193.52 599.238 194.032C599.238 194.688 599.07 195.248 598.734 195.712C598.414 196.16 597.95 196.496 597.342 196.72V196.792C598.19 197.032 598.83 197.432 599.262 197.992C599.71 198.536 599.934 199.224 599.934 200.056C599.934 200.632 599.806 201.168 599.55 201.664C599.294 202.16 598.942 202.592 598.494 202.96C598.062 203.328 597.55 203.624 596.958 203.848C596.366 204.056 595.726 204.16 595.038 204.16C594.366 204.16 593.734 204.056 593.142 203.848C592.566 203.64 592.054 203.352 591.606 202.984C591.174 202.616 590.83 202.184 590.574 201.688C590.318 201.176 590.174 200.632 590.142 200.056H591.942ZM601.995 197.32C601.995 196.328 602.171 195.416 602.523 194.584C602.875 193.736 603.355 193.008 603.963 192.4C604.587 191.776 605.323 191.288 606.171 190.936C607.019 190.584 607.931 190.408 608.907 190.408C610.059 190.408 611.043 190.616 611.859 191.032C612.675 191.448 613.419 192.12 614.091 193.048V190.72H615.867V203.848H614.091V201.544C613.739 202.008 613.379 202.408 613.011 202.744C612.659 203.08 612.283 203.352 611.883 203.56C611.483 203.768 611.051 203.92 610.587 204.016C610.123 204.112 609.611 204.16 609.051 204.16C608.043 204.16 607.107 203.992 606.243 203.656C605.379 203.304 604.627 202.824 603.987 202.216C603.363 201.608 602.875 200.888 602.523 200.056C602.171 199.208 601.995 198.296 601.995 197.32ZM603.795 197.248C603.795 197.984 603.931 198.672 604.203 199.312C604.475 199.952 604.843 200.512 605.307 200.992C605.787 201.472 606.347 201.848 606.987 202.12C607.627 202.392 608.307 202.528 609.027 202.528C609.747 202.528 610.411 202.392 611.019 202.12C611.643 201.848 612.179 201.48 612.627 201.016C613.091 200.536 613.451 199.976 613.707 199.336C613.963 198.68 614.091 197.984 614.091 197.248C614.091 196.496 613.955 195.808 613.683 195.184C613.427 194.544 613.067 193.992 612.603 193.528C612.139 193.064 611.587 192.704 610.947 192.448C610.323 192.176 609.635 192.04 608.883 192.04C608.179 192.04 607.515 192.176 606.891 192.448C606.283 192.72 605.747 193.096 605.283 193.576C604.819 194.04 604.451 194.592 604.179 195.232C603.923 195.856 603.795 196.528 603.795 197.248ZM619.061 190.72H620.837V196.576L626.837 190.72H629.141L622.589 197.08L629.141 203.848H626.813L620.837 197.656V203.848H619.061V190.72ZM630.454 197.32C630.454 196.328 630.63 195.416 630.982 194.584C631.334 193.736 631.814 193.008 632.422 192.4C633.046 191.776 633.782 191.288 634.63 190.936C635.478 190.584 636.39 190.408 637.366 190.408C638.518 190.408 639.502 190.616 640.318 191.032C641.134 191.448 641.878 192.12 642.55 193.048V190.72H644.326V203.848H642.55V201.544C642.198 202.008 641.838 202.408 641.47 202.744C641.118 203.08 640.742 203.352 640.342 203.56C639.942 203.768 639.51 203.92 639.046 204.016C638.582 204.112 638.07 204.16 637.51 204.16C636.502 204.16 635.566 203.992 634.702 203.656C633.838 203.304 633.086 202.824 632.446 202.216C631.822 201.608 631.334 200.888 630.982 200.056C630.63 199.208 630.454 198.296 630.454 197.32ZM632.254 197.248C632.254 197.984 632.39 198.672 632.662 199.312C632.934 199.952 633.302 200.512 633.766 200.992C634.246 201.472 634.806 201.848 635.446 202.12C636.086 202.392 636.766 202.528 637.486 202.528C638.206 202.528 638.87 202.392 639.478 202.12C640.102 201.848 640.638 201.48 641.086 201.016C641.55 200.536 641.91 199.976 642.166 199.336C642.422 198.68 642.55 197.984 642.55 197.248C642.55 196.496 642.414 195.808 642.142 195.184C641.886 194.544 641.526 193.992 641.062 193.528C640.598 193.064 640.046 192.704 639.406 192.448C638.782 192.176 638.094 192.04 637.342 192.04C636.638 192.04 635.974 192.176 635.35 192.448C634.742 192.72 634.206 193.096 633.742 193.576C633.278 194.04 632.91 194.592 632.638 195.232C632.382 195.856 632.254 196.528 632.254 197.248ZM649.751 192.328H646.295V190.72H654.935V192.328H651.527V203.848H649.751V192.328ZM657.58 200.824H659.356V204.328C659.356 204.664 659.292 204.984 659.164 205.288C659.052 205.608 658.892 205.88 658.684 206.104C658.476 206.344 658.228 206.528 657.94 206.656C657.668 206.8 657.38 206.872 657.076 206.872V205.816C657.396 205.816 657.676 205.68 657.916 205.408C658.172 205.152 658.3 204.848 658.3 204.496V203.848H657.58V200.824ZM488.98 240.16H486.604V238.696H489.268L489.964 234.976H486.988V233.512H490.228L491.236 228.112H492.772L491.788 233.512H495.7L496.66 228.112H498.268L497.284 233.512H499.66V234.976H497.02L496.348 238.696H499.3V240.16H496.06L495.028 245.848H493.444L494.476 240.16H490.54L489.46 245.848H487.9L488.98 240.16ZM494.74 238.696L495.436 234.976H491.524L490.828 238.696H494.74ZM501.776 228.112H510.776V229.72H503.552V236.128H510.512V237.736H503.552V245.848H501.776V228.112ZM513.602 228.112H522.602V229.72H515.378V236.128H522.338V237.736H515.378V245.848H513.602V228.112ZM525.429 228.112H534.429V229.72H527.205V236.128H534.165V237.736H527.205V245.848H525.429V228.112ZM537.784 240.28C537.864 240.92 538.024 241.504 538.264 242.032C538.52 242.544 538.832 242.992 539.2 243.376C539.584 243.744 540.016 244.032 540.496 244.24C540.992 244.448 541.52 244.552 542.08 244.552C542.688 244.552 543.248 244.432 543.76 244.192C544.272 243.952 544.72 243.632 545.104 243.232C545.488 242.816 545.784 242.328 545.992 241.768C546.216 241.192 546.328 240.584 546.328 239.944C546.328 239.288 546.216 238.688 545.992 238.144C545.784 237.584 545.488 237.104 545.104 236.704C544.736 236.288 544.288 235.968 543.76 235.744C543.248 235.504 542.688 235.384 542.08 235.384C540.704 235.384 539.48 236.048 538.408 237.376L537.04 236.848L538.624 228.112H546.616V229.72H540.04L539.176 234.616C539.704 234.312 540.208 234.096 540.688 233.968C541.168 233.84 541.68 233.776 542.224 233.776C543.056 233.776 543.824 233.936 544.528 234.256C545.248 234.576 545.872 235.016 546.4 235.576C546.928 236.12 547.344 236.768 547.648 237.52C547.952 238.272 548.104 239.08 548.104 239.944C548.104 240.824 547.952 241.64 547.648 242.392C547.344 243.144 546.92 243.8 546.376 244.36C545.848 244.92 545.216 245.36 544.48 245.68C543.76 246 542.984 246.16 542.152 246.16C540.504 246.16 539.144 245.64 538.072 244.6C537 243.56 536.328 242.12 536.056 240.28H537.784ZM549.619 234.352C549.619 232.224 550.123 230.6 551.131 229.48C552.139 228.36 553.611 227.8 555.547 227.8C557.467 227.8 558.939 228.368 559.963 229.504C560.987 230.624 561.499 232.24 561.499 234.352V239.392C561.499 243.904 559.563 246.16 555.691 246.16C553.691 246.16 552.179 245.592 551.155 244.456C550.131 243.304 549.619 241.616 549.619 239.392V234.352ZM551.371 239.104C551.371 240.944 551.715 242.312 552.403 243.208C553.091 244.104 554.163 244.552 555.619 244.552C557.059 244.552 558.107 244.12 558.763 243.256C559.419 242.376 559.747 240.992 559.747 239.104V234.76C559.747 231.192 558.355 229.408 555.571 229.408C552.771 229.408 551.371 231.192 551.371 234.76V239.104ZM563.087 234.352C563.087 232.224 563.591 230.6 564.599 229.48C565.607 228.36 567.079 227.8 569.015 227.8C570.935 227.8 572.407 228.368 573.431 229.504C574.455 230.624 574.967 232.24 574.967 234.352V239.392C574.967 243.904 573.031 246.16 569.159 246.16C567.159 246.16 565.647 245.592 564.623 244.456C563.599 243.304 563.087 241.616 563.087 239.392V234.352ZM564.839 239.104C564.839 240.944 565.183 242.312 565.871 243.208C566.559 244.104 567.631 244.552 569.087 244.552C570.527 244.552 571.575 244.12 572.231 243.256C572.887 242.376 573.215 240.992 573.215 239.104V234.76C573.215 231.192 571.823 229.408 569.039 229.408C566.239 229.408 564.839 231.192 564.839 234.76V239.104Z" fill="#89939E"/>
</svg>
