<svg width="628" height="270" viewBox="0 0 628 270" fill="none" xmlns="http://www.w3.org/2000/svg">
<rect width="388.39" height="270" rx="29.1624" fill="white"/>
<rect x="9.28125" y="9.15234" width="367.181" height="156.417" rx="17.8288" fill="#BAFF65"/>
<path d="M15.1133 199.144L9.52125 186.112H11.3933L16.0493 196.96L20.7053 186.112H22.5773L14.9693 203.848H13.0973L15.1133 199.144ZM26.7504 192.328H23.2944V190.72H31.9344V192.328H28.5264V203.848H26.7504V192.328ZM33.9076 190.72H35.6836V192.976C36.2436 192.128 36.9556 191.488 37.8196 191.056C38.6996 190.624 39.7076 190.408 40.8436 190.408C41.8196 190.408 42.7236 190.584 43.5556 190.936C44.4036 191.288 45.1396 191.776 45.7636 192.4C46.3876 193.008 46.8756 193.736 47.2276 194.584C47.5796 195.416 47.7556 196.32 47.7556 197.296C47.7556 198.256 47.5796 199.16 47.2276 200.008C46.8756 200.84 46.3876 201.568 45.7636 202.192C45.1396 202.8 44.4036 203.28 43.5556 203.632C42.7076 203.984 41.7876 204.16 40.7956 204.16C39.6916 204.16 38.7076 203.944 37.8436 203.512C36.9796 203.08 36.2596 202.44 35.6836 201.592V208.456H33.9076V190.72ZM40.7716 202.528C41.5076 202.528 42.1876 202.4 42.8116 202.144C43.4516 201.872 44.0036 201.504 44.4676 201.04C44.9316 200.576 45.2916 200.032 45.5476 199.408C45.8196 198.768 45.9556 198.08 45.9556 197.344C45.9556 196.576 45.8196 195.864 45.5476 195.208C45.2916 194.552 44.9316 193.992 44.4676 193.528C44.0036 193.064 43.4516 192.704 42.8116 192.448C42.1716 192.176 41.4676 192.04 40.6996 192.04C39.9796 192.04 39.3076 192.176 38.6836 192.448C38.0596 192.72 37.5156 193.096 37.0516 193.576C36.5876 194.04 36.2196 194.592 35.9476 195.232C35.6916 195.872 35.5636 196.56 35.5636 197.296C35.5636 198.032 35.6916 198.72 35.9476 199.36C36.2196 200 36.5876 200.552 37.0516 201.016C37.5316 201.48 38.0836 201.848 38.7076 202.12C39.3476 202.392 40.0356 202.528 40.7716 202.528ZM63.2613 199.528C63.0213 200.216 62.6853 200.848 62.2533 201.424C61.8373 201.984 61.3493 202.472 60.7893 202.888C60.2293 203.288 59.6133 203.6 58.9413 203.824C58.2853 204.048 57.5973 204.16 56.8773 204.16C55.9013 204.16 54.9893 203.984 54.1413 203.632C53.3093 203.264 52.5813 202.768 51.9573 202.144C51.3333 201.52 50.8373 200.792 50.4693 199.96C50.1173 199.112 49.9413 198.2 49.9413 197.224C49.9413 196.264 50.1173 195.376 50.4693 194.56C50.8213 193.728 51.3013 193.008 51.9093 192.4C52.5333 191.776 53.2533 191.288 54.0693 190.936C54.9013 190.584 55.7893 190.408 56.7333 190.408C57.6773 190.408 58.5653 190.592 59.3973 190.96C60.2453 191.312 60.9813 191.792 61.6053 192.4C62.2453 193.008 62.7493 193.72 63.1173 194.536C63.4853 195.352 63.6693 196.216 63.6693 197.128C63.6693 197.256 63.6613 197.384 63.6453 197.512C63.6293 197.624 63.6053 197.744 63.5733 197.872H51.7173C51.7493 198.512 51.9093 199.12 52.1973 199.696C52.4853 200.256 52.8533 200.752 53.3013 201.184C53.7653 201.6 54.3013 201.928 54.9093 202.168C55.5173 202.408 56.1573 202.528 56.8293 202.528C57.3253 202.528 57.8053 202.456 58.2693 202.312C58.7493 202.168 59.1893 201.968 59.5893 201.712C59.9893 201.44 60.3413 201.12 60.6453 200.752C60.9653 200.384 61.2213 199.976 61.4133 199.528H63.2613ZM61.8213 196.264C61.5173 194.952 60.9093 193.92 59.9973 193.168C59.1013 192.416 58.0133 192.04 56.7333 192.04C56.1093 192.04 55.5173 192.144 54.9573 192.352C54.4133 192.544 53.9253 192.832 53.4933 193.216C53.0613 193.584 52.6933 194.032 52.3893 194.56C52.1013 195.072 51.8933 195.64 51.7653 196.264H61.8213ZM66.233 190.72H68.009V196.36H75.881V190.72H77.657V203.848H75.881V197.968H68.009V203.848H66.233V190.72ZM80.8488 190.72H82.6248V196.36H90.4968V190.72H92.2728V203.848H90.4968V197.968H82.6248V203.848H80.8488V190.72ZM102.785 192.328H99.7365C97.6245 192.328 96.5685 193.096 96.5685 194.632C96.5685 196.168 97.6245 196.936 99.7365 196.936H102.785V192.328ZM97.9605 198.4C96.9685 198.176 96.1845 197.728 95.6085 197.056C95.0485 196.384 94.7685 195.576 94.7685 194.632C94.7685 194.056 94.8805 193.528 95.1045 193.048C95.3285 192.568 95.6325 192.16 96.0165 191.824C96.4165 191.472 96.8885 191.2 97.4325 191.008C97.9925 190.816 98.6085 190.72 99.2805 190.72H104.561V203.848H102.785V198.544H99.8805L96.1845 203.848H94.1685L97.9605 198.4ZM115.08 192.328H112.032C109.92 192.328 108.864 193.096 108.864 194.632C108.864 196.168 109.92 196.936 112.032 196.936H115.08V192.328ZM110.256 198.4C109.264 198.176 108.48 197.728 107.904 197.056C107.344 196.384 107.064 195.576 107.064 194.632C107.064 194.056 107.176 193.528 107.4 193.048C107.624 192.568 107.928 192.16 108.312 191.824C108.712 191.472 109.184 191.2 109.728 191.008C110.288 190.816 110.904 190.72 111.576 190.72H116.856V203.848H115.08V198.544H112.176L108.48 203.848H106.464L110.256 198.4ZM139.97 199.984C139.202 201.408 138.298 202.464 137.258 203.152C136.218 203.824 134.978 204.16 133.538 204.16C132.53 204.16 131.586 203.984 130.706 203.632C129.842 203.28 129.09 202.792 128.45 202.168C127.81 201.544 127.306 200.816 126.938 199.984C126.57 199.136 126.386 198.224 126.386 197.248C126.386 196.288 126.562 195.392 126.914 194.56C127.282 193.728 127.786 193.008 128.426 192.4C129.066 191.776 129.81 191.288 130.658 190.936C131.522 190.584 132.442 190.408 133.418 190.408C134.17 190.408 134.882 190.512 135.554 190.72C136.226 190.912 136.842 191.192 137.402 191.56C137.962 191.928 138.458 192.384 138.89 192.928C139.338 193.456 139.69 194.048 139.946 194.704H137.954C137.442 193.84 136.794 193.184 136.01 192.736C135.242 192.272 134.37 192.04 133.394 192.04C132.658 192.04 131.97 192.176 131.33 192.448C130.706 192.72 130.162 193.096 129.698 193.576C129.234 194.04 128.866 194.592 128.594 195.232C128.322 195.872 128.186 196.56 128.186 197.296C128.186 198.032 128.322 198.72 128.594 199.36C128.866 199.984 129.242 200.536 129.722 201.016C130.202 201.48 130.762 201.848 131.402 202.12C132.042 202.392 132.73 202.528 133.466 202.528C134.41 202.528 135.218 202.336 135.89 201.952C136.578 201.552 137.266 200.896 137.954 199.984H139.97ZM142.607 190.72H147.863C149.287 190.72 150.399 191.024 151.199 191.632C151.999 192.24 152.399 193.088 152.399 194.176C152.399 194.704 152.231 195.216 151.895 195.712C151.559 196.208 151.135 196.568 150.623 196.792C152.255 197.4 153.071 198.448 153.071 199.936C153.071 200.512 152.951 201.04 152.711 201.52C152.471 201.984 152.135 202.392 151.703 202.744C151.271 203.096 150.759 203.368 150.167 203.56C149.575 203.752 148.927 203.848 148.223 203.848H142.607V190.72ZM147.575 196.144C148.583 196.144 149.351 195.976 149.879 195.64C150.423 195.288 150.695 194.8 150.695 194.176C150.695 192.944 149.655 192.328 147.575 192.328H144.383V196.144H147.575ZM147.767 202.24C148.903 202.24 149.767 202.048 150.359 201.664C150.967 201.264 151.271 200.688 151.271 199.936C151.271 198.48 150.103 197.752 147.767 197.752H144.383V202.24H147.767ZM168.445 199.528C168.205 200.216 167.869 200.848 167.437 201.424C167.021 201.984 166.533 202.472 165.973 202.888C165.413 203.288 164.797 203.6 164.125 203.824C163.469 204.048 162.781 204.16 162.061 204.16C161.085 204.16 160.173 203.984 159.325 203.632C158.493 203.264 157.765 202.768 157.141 202.144C156.517 201.52 156.021 200.792 155.653 199.96C155.301 199.112 155.125 198.2 155.125 197.224C155.125 196.264 155.301 195.376 155.653 194.56C156.005 193.728 156.485 193.008 157.093 192.4C157.717 191.776 158.437 191.288 159.253 190.936C160.085 190.584 160.973 190.408 161.917 190.408C162.861 190.408 163.749 190.592 164.581 190.96C165.429 191.312 166.165 191.792 166.789 192.4C167.429 193.008 167.933 193.72 168.301 194.536C168.669 195.352 168.853 196.216 168.853 197.128C168.853 197.256 168.845 197.384 168.829 197.512C168.813 197.624 168.789 197.744 168.757 197.872H156.901C156.933 198.512 157.093 199.12 157.381 199.696C157.669 200.256 158.037 200.752 158.485 201.184C158.949 201.6 159.485 201.928 160.093 202.168C160.701 202.408 161.341 202.528 162.013 202.528C162.509 202.528 162.989 202.456 163.453 202.312C163.933 202.168 164.373 201.968 164.773 201.712C165.173 201.44 165.525 201.12 165.829 200.752C166.149 200.384 166.405 199.976 166.597 199.528H168.445ZM167.005 196.264C166.701 194.952 166.093 193.92 165.181 193.168C164.285 192.416 163.197 192.04 161.917 192.04C161.293 192.04 160.701 192.144 160.141 192.352C159.597 192.544 159.109 192.832 158.677 193.216C158.245 193.584 157.877 194.032 157.573 194.56C157.285 195.072 157.077 195.64 156.949 196.264H167.005ZM175.641 197.104L170.025 190.72H172.257L177.441 196.672V190.72H179.217V196.672L184.401 190.72H186.633L181.017 197.104L186.633 203.848H184.401L179.217 197.56V203.848H177.441V197.56L172.257 203.848H170.025L175.641 197.104ZM201.263 199.528C201.023 200.216 200.687 200.848 200.255 201.424C199.839 201.984 199.351 202.472 198.791 202.888C198.231 203.288 197.615 203.6 196.943 203.824C196.287 204.048 195.599 204.16 194.879 204.16C193.903 204.16 192.991 203.984 192.143 203.632C191.311 203.264 190.583 202.768 189.959 202.144C189.335 201.52 188.839 200.792 188.471 199.96C188.119 199.112 187.943 198.2 187.943 197.224C187.943 196.264 188.119 195.376 188.471 194.56C188.823 193.728 189.303 193.008 189.911 192.4C190.535 191.776 191.255 191.288 192.071 190.936C192.903 190.584 193.791 190.408 194.735 190.408C195.679 190.408 196.567 190.592 197.399 190.96C198.247 191.312 198.983 191.792 199.607 192.4C200.247 193.008 200.751 193.72 201.119 194.536C201.487 195.352 201.671 196.216 201.671 197.128C201.671 197.256 201.663 197.384 201.647 197.512C201.631 197.624 201.607 197.744 201.575 197.872H189.719C189.751 198.512 189.911 199.12 190.199 199.696C190.487 200.256 190.855 200.752 191.303 201.184C191.767 201.6 192.303 201.928 192.911 202.168C193.519 202.408 194.159 202.528 194.831 202.528C195.327 202.528 195.807 202.456 196.271 202.312C196.751 202.168 197.191 201.968 197.591 201.712C197.991 201.44 198.343 201.12 198.647 200.752C198.967 200.384 199.223 199.976 199.415 199.528H201.263ZM199.823 196.264C199.519 194.952 198.911 193.92 197.999 193.168C197.103 192.416 196.015 192.04 194.735 192.04C194.111 192.04 193.519 192.144 192.959 192.352C192.415 192.544 191.927 192.832 191.495 193.216C191.063 193.584 190.695 194.032 190.391 194.56C190.103 195.072 189.895 195.64 189.767 196.264H199.823ZM217.315 199.984C216.547 201.408 215.643 202.464 214.603 203.152C213.563 203.824 212.323 204.16 210.883 204.16C209.875 204.16 208.931 203.984 208.051 203.632C207.187 203.28 206.435 202.792 205.795 202.168C205.155 201.544 204.651 200.816 204.283 199.984C203.915 199.136 203.731 198.224 203.731 197.248C203.731 196.288 203.907 195.392 204.259 194.56C204.627 193.728 205.131 193.008 205.771 192.4C206.411 191.776 207.155 191.288 208.003 190.936C208.867 190.584 209.787 190.408 210.763 190.408C211.515 190.408 212.227 190.512 212.899 190.72C213.571 190.912 214.187 191.192 214.747 191.56C215.307 191.928 215.803 192.384 216.235 192.928C216.683 193.456 217.035 194.048 217.291 194.704H215.299C214.787 193.84 214.139 193.184 213.355 192.736C212.587 192.272 211.715 192.04 210.739 192.04C210.003 192.04 209.315 192.176 208.675 192.448C208.051 192.72 207.507 193.096 207.043 193.576C206.579 194.04 206.211 194.592 205.939 195.232C205.667 195.872 205.531 196.56 205.531 197.296C205.531 198.032 205.667 198.72 205.939 199.36C206.211 199.984 206.587 200.536 207.067 201.016C207.547 201.48 208.107 201.848 208.747 202.12C209.387 202.392 210.075 202.528 210.811 202.528C211.755 202.528 212.563 202.336 213.235 201.952C213.923 201.552 214.611 200.896 215.299 199.984H217.315ZM222.184 192.328H218.728V190.72H227.368V192.328H223.96V203.848H222.184V192.328ZM234.525 202.24C236.637 202.24 237.693 201.464 237.693 199.912C237.693 198.36 236.637 197.584 234.525 197.584H231.117V202.24H234.525ZM229.341 190.72H231.117V195.976H234.981C235.653 195.976 236.261 196.072 236.805 196.264C237.365 196.456 237.837 196.728 238.221 197.08C238.621 197.416 238.933 197.832 239.157 198.328C239.381 198.808 239.493 199.336 239.493 199.912C239.493 200.488 239.381 201.024 239.157 201.52C238.933 202 238.621 202.416 238.221 202.768C237.837 203.104 237.365 203.368 236.805 203.56C236.261 203.752 235.653 203.848 234.981 203.848H229.341V190.72ZM242.402 200.824H244.178V204.328C244.178 204.664 244.114 204.984 243.986 205.288C243.874 205.608 243.714 205.88 243.506 206.104C243.298 206.344 243.05 206.528 242.762 206.656C242.49 206.8 242.202 206.872 241.898 206.872V205.816C242.218 205.816 242.498 205.68 242.738 205.408C242.994 205.152 243.122 204.848 243.122 204.496V203.848H242.402V200.824ZM11.7773 240.16H9.40125V238.696H12.0653L12.7613 234.976H9.78525V233.512H13.0253L14.0333 228.112H15.5693L14.5853 233.512H18.4973L19.4573 228.112H21.0653L20.0813 233.512H22.4573V234.976H19.8173L19.1453 238.696H22.0973V240.16H18.8573L17.8253 245.848H16.2413L17.2733 240.16H13.3373L12.2573 245.848H10.6973L11.7773 240.16ZM17.5373 238.696L18.2333 234.976H14.3213L13.6253 238.696H17.5373ZM31.0766 239.68C30.6926 239.872 30.3486 240.008 30.0446 240.088C29.7406 240.152 29.3966 240.184 29.0126 240.184C28.2286 240.184 27.4846 240.032 26.7806 239.728C26.0926 239.408 25.4926 238.976 24.9806 238.432C24.4846 237.872 24.0846 237.224 23.7806 236.488C23.4926 235.736 23.3486 234.936 23.3486 234.088C23.3486 233.176 23.4926 232.336 23.7806 231.568C24.0846 230.8 24.5006 230.136 25.0286 229.576C25.5726 229.016 26.2046 228.584 26.9246 228.28C27.6606 227.96 28.4606 227.8 29.3246 227.8C30.2046 227.8 31.0126 227.96 31.7486 228.28C32.5006 228.584 33.1486 229.016 33.6926 229.576C34.2366 230.12 34.6606 230.768 34.9646 231.52C35.2846 232.272 35.4446 233.088 35.4446 233.968C35.4446 234.416 35.4126 234.832 35.3486 235.216C35.2846 235.584 35.1726 235.968 35.0126 236.368C34.8686 236.768 34.6606 237.208 34.3886 237.688C34.1166 238.152 33.7646 238.696 33.3326 239.32L28.9406 245.848H26.9006L31.0766 239.68ZM29.3726 238.576C29.9806 238.576 30.5486 238.464 31.0766 238.24C31.6046 238 32.0606 237.68 32.4446 237.28C32.8286 236.864 33.1246 236.384 33.3326 235.84C33.5566 235.28 33.6686 234.672 33.6686 234.016C33.6686 233.344 33.5566 232.728 33.3326 232.168C33.1246 231.608 32.8206 231.128 32.4206 230.728C32.0366 230.312 31.5726 229.992 31.0286 229.768C30.5006 229.528 29.9166 229.408 29.2766 229.408C28.6846 229.408 28.1326 229.528 27.6206 229.768C27.1086 229.992 26.6686 230.312 26.3006 230.728C25.9326 231.128 25.6446 231.608 25.4366 232.168C25.2286 232.728 25.1246 233.344 25.1246 234.016C25.1246 234.688 25.2286 235.304 25.4366 235.864C25.6446 236.408 25.9326 236.888 26.3006 237.304C26.6846 237.704 27.1326 238.016 27.6446 238.24C28.1726 238.464 28.7486 238.576 29.3726 238.576ZM45.36 228.112L41.184 234.28C41.568 234.088 41.912 233.96 42.216 233.896C42.52 233.816 42.864 233.776 43.248 233.776C44.048 233.776 44.792 233.936 45.48 234.256C46.168 234.56 46.76 234.992 47.256 235.552C47.768 236.096 48.168 236.744 48.456 237.496C48.76 238.232 48.912 239.024 48.912 239.872C48.912 240.784 48.76 241.624 48.456 242.392C48.168 243.16 47.752 243.824 47.208 244.384C46.68 244.944 46.048 245.384 45.312 245.704C44.592 246.008 43.8 246.16 42.936 246.16C42.056 246.16 41.24 246.008 40.488 245.704C39.752 245.384 39.112 244.952 38.568 244.408C38.024 243.848 37.592 243.192 37.272 242.44C36.968 241.688 36.816 240.872 36.816 239.992C36.816 239.544 36.848 239.136 36.912 238.768C36.976 238.384 37.08 237.992 37.224 237.592C37.384 237.192 37.6 236.76 37.872 236.296C38.144 235.816 38.496 235.264 38.928 234.64L43.32 228.112H45.36ZM42.912 244.552C43.536 244.552 44.104 244.44 44.616 244.216C45.128 243.992 45.568 243.68 45.936 243.28C46.32 242.864 46.616 242.376 46.824 241.816C47.032 241.256 47.136 240.64 47.136 239.968C47.136 239.296 47.032 238.68 46.824 238.12C46.616 237.544 46.32 237.056 45.936 236.656C45.568 236.256 45.12 235.944 44.592 235.72C44.064 235.496 43.48 235.384 42.84 235.384C42.248 235.384 41.688 235.504 41.16 235.744C40.648 235.968 40.2 236.288 39.816 236.704C39.432 237.104 39.128 237.584 38.904 238.144C38.696 238.688 38.592 239.288 38.592 239.944C38.592 240.6 38.696 241.216 38.904 241.792C39.128 242.352 39.432 242.84 39.816 243.256C40.2 243.656 40.656 243.976 41.184 244.216C41.712 244.44 42.288 244.552 42.912 244.552ZM68.1633 241.192C66.3713 244.504 63.6673 246.16 60.0513 246.16C58.7233 246.16 57.4913 245.928 56.3553 245.464C55.2193 245 54.2353 244.36 53.4033 243.544C52.5713 242.728 51.9153 241.768 51.4353 240.664C50.9713 239.544 50.7393 238.336 50.7393 237.04C50.7393 235.712 50.9713 234.488 51.4353 233.368C51.8993 232.232 52.5393 231.256 53.3553 230.44C54.1713 229.608 55.1393 228.96 56.2593 228.496C57.3953 228.032 58.6193 227.8 59.9313 227.8C60.8433 227.8 61.7153 227.912 62.5473 228.136C63.3953 228.36 64.1713 228.688 64.8753 229.12C65.5793 229.536 66.2033 230.048 66.7473 230.656C67.3073 231.264 67.7553 231.952 68.0913 232.72H66.0993C64.7233 230.528 62.6913 229.432 60.0033 229.432C58.9473 229.432 57.9633 229.624 57.0513 230.008C56.1393 230.392 55.3473 230.92 54.6753 231.592C54.0033 232.264 53.4753 233.064 53.0913 233.992C52.7233 234.904 52.5393 235.896 52.5393 236.968C52.5393 238.008 52.7313 238.992 53.1153 239.92C53.5153 240.832 54.0513 241.632 54.7233 242.32C55.4113 242.992 56.2113 243.528 57.1233 243.928C58.0353 244.328 59.0033 244.528 60.0273 244.528C61.2753 244.528 62.3953 244.264 63.3873 243.736C64.3793 243.192 65.3153 242.344 66.1953 241.192H68.1633ZM71.209 228.112H80.905V229.72H72.985V236.08H80.641V237.688H72.985V244.24H80.905V245.848H71.209V228.112ZM91.5745 228.112L87.3985 234.28C87.7825 234.088 88.1265 233.96 88.4305 233.896C88.7345 233.816 89.0785 233.776 89.4625 233.776C90.2625 233.776 91.0065 233.936 91.6945 234.256C92.3825 234.56 92.9745 234.992 93.4705 235.552C93.9825 236.096 94.3825 236.744 94.6705 237.496C94.9745 238.232 95.1265 239.024 95.1265 239.872C95.1265 240.784 94.9745 241.624 94.6705 242.392C94.3825 243.16 93.9665 243.824 93.4225 244.384C92.8945 244.944 92.2625 245.384 91.5265 245.704C90.8065 246.008 90.0145 246.16 89.1505 246.16C88.2705 246.16 87.4545 246.008 86.7025 245.704C85.9665 245.384 85.3265 244.952 84.7825 244.408C84.2385 243.848 83.8065 243.192 83.4865 242.44C83.1825 241.688 83.0305 240.872 83.0305 239.992C83.0305 239.544 83.0625 239.136 83.1265 238.768C83.1905 238.384 83.2945 237.992 83.4385 237.592C83.5985 237.192 83.8145 236.76 84.0865 236.296C84.3585 235.816 84.7105 235.264 85.1425 234.64L89.5345 228.112H91.5745ZM89.1265 244.552C89.7505 244.552 90.3185 244.44 90.8305 244.216C91.3425 243.992 91.7825 243.68 92.1505 243.28C92.5345 242.864 92.8305 242.376 93.0385 241.816C93.2465 241.256 93.3505 240.64 93.3505 239.968C93.3505 239.296 93.2465 238.68 93.0385 238.12C92.8305 237.544 92.5345 237.056 92.1505 236.656C91.7825 236.256 91.3345 235.944 90.8065 235.72C90.2785 235.496 89.6945 235.384 89.0545 235.384C88.4625 235.384 87.9025 235.504 87.3745 235.744C86.8625 235.968 86.4145 236.288 86.0305 236.704C85.6465 237.104 85.3425 237.584 85.1185 238.144C84.9105 238.688 84.8065 239.288 84.8065 239.944C84.8065 240.6 84.9105 241.216 85.1185 241.792C85.3425 242.352 85.6465 242.84 86.0305 243.256C86.4145 243.656 86.8705 243.976 87.3985 244.216C87.9265 244.44 88.5025 244.552 89.1265 244.552ZM96.6179 234.352C96.6179 232.224 97.1219 230.6 98.1299 229.48C99.1379 228.36 100.61 227.8 102.546 227.8C104.466 227.8 105.938 228.368 106.962 229.504C107.986 230.624 108.498 232.24 108.498 234.352V239.392C108.498 243.904 106.562 246.16 102.69 246.16C100.69 246.16 99.1779 245.592 98.1539 244.456C97.1299 243.304 96.6179 241.616 96.6179 239.392V234.352ZM98.3699 239.104C98.3699 240.944 98.7139 242.312 99.4019 243.208C100.09 244.104 101.162 244.552 102.618 244.552C104.058 244.552 105.106 244.12 105.762 243.256C106.418 242.376 106.746 240.992 106.746 239.104V234.76C106.746 231.192 105.354 229.408 102.57 229.408C99.7699 229.408 98.3699 231.192 98.3699 234.76V239.104Z" fill="#89939E"/>
<rect x="239.602" width="388.39" height="270" rx="29.1624" fill="white"/>
<rect x="248.883" y="9.15234" width="368.507" height="156.417" rx="17.8288" fill="#1BA3EA"/>
<path d="M250.707 186.112H259.371V187.72H252.483V203.848H250.707V186.112ZM260.733 197.296C260.733 196.304 260.901 195.384 261.237 194.536C261.589 193.688 262.077 192.96 262.701 192.352C263.325 191.744 264.061 191.272 264.909 190.936C265.757 190.584 266.685 190.408 267.693 190.408C268.653 190.408 269.541 190.584 270.357 190.936C271.189 191.288 271.901 191.776 272.493 192.4C273.101 193.008 273.573 193.736 273.909 194.584C274.261 195.416 274.437 196.328 274.437 197.32C274.437 198.296 274.269 199.208 273.933 200.056C273.597 200.888 273.133 201.608 272.541 202.216C271.949 202.824 271.237 203.304 270.405 203.656C269.589 203.992 268.701 204.16 267.741 204.16C266.733 204.16 265.797 203.992 264.933 203.656C264.085 203.304 263.349 202.824 262.725 202.216C262.101 201.592 261.613 200.864 261.261 200.032C260.909 199.184 260.733 198.272 260.733 197.296ZM267.693 202.528C268.413 202.528 269.077 202.4 269.685 202.144C270.293 201.888 270.813 201.536 271.245 201.088C271.677 200.624 272.013 200.072 272.253 199.432C272.509 198.792 272.637 198.096 272.637 197.344C272.637 196.576 272.509 195.864 272.253 195.208C272.013 194.552 271.661 193.992 271.197 193.528C270.749 193.064 270.213 192.704 269.589 192.448C268.981 192.176 268.301 192.04 267.549 192.04C266.829 192.04 266.157 192.176 265.533 192.448C264.925 192.704 264.397 193.072 263.949 193.552C263.517 194.016 263.173 194.576 262.917 195.232C262.661 195.872 262.533 196.568 262.533 197.32C262.533 198.072 262.661 198.768 262.917 199.408C263.173 200.032 263.533 200.576 263.997 201.04C264.461 201.504 265.005 201.872 265.629 202.144C266.269 202.4 266.957 202.528 267.693 202.528ZM280.288 190.72H282.28L287.92 203.848H286.048L281.296 192.736L276.52 203.848H274.648L280.288 190.72ZM292.433 203.416L287.345 190.72H289.289L293.441 201.184L297.881 190.72H299.777L292.193 208.456H290.297L292.433 203.416ZM302.958 193.84C303.406 192.768 304.134 191.928 305.142 191.32C306.15 190.712 307.334 190.408 308.694 190.408C309.606 190.408 310.454 190.584 311.238 190.936C312.022 191.288 312.71 191.776 313.302 192.4C313.894 193.024 314.358 193.752 314.694 194.584C315.03 195.416 315.198 196.312 315.198 197.272C315.198 198.248 315.022 199.16 314.67 200.008C314.318 200.856 313.83 201.584 313.206 202.192C312.598 202.8 311.87 203.28 311.022 203.632C310.174 203.984 309.254 204.16 308.262 204.16C306.006 204.16 304.286 203.48 303.102 202.12C301.934 200.76 301.35 198.76 301.35 196.12V195.4C301.35 192.184 301.942 189.768 303.126 188.152C304.326 186.536 306.182 185.624 308.694 185.416L314.286 184.936V186.568L308.838 187.072C304.966 187.424 302.982 189.672 302.886 193.816L302.958 193.84ZM308.214 202.528C308.95 202.528 309.63 202.392 310.254 202.12C310.894 201.848 311.446 201.48 311.91 201.016C312.374 200.536 312.734 199.976 312.99 199.336C313.262 198.68 313.398 197.976 313.398 197.224C313.398 196.488 313.262 195.808 312.99 195.184C312.734 194.544 312.374 193.992 311.91 193.528C311.462 193.064 310.918 192.704 310.278 192.448C309.654 192.176 308.974 192.04 308.238 192.04C307.518 192.04 306.846 192.176 306.222 192.448C305.598 192.704 305.054 193.064 304.59 193.528C304.142 193.992 303.782 194.544 303.51 195.184C303.254 195.808 303.126 196.488 303.126 197.224C303.126 197.992 303.254 198.704 303.51 199.36C303.766 200 304.118 200.56 304.566 201.04C305.03 201.504 305.566 201.872 306.174 202.144C306.798 202.4 307.478 202.528 308.214 202.528ZM317.392 197.32C317.392 196.328 317.568 195.416 317.92 194.584C318.272 193.736 318.752 193.008 319.36 192.4C319.984 191.776 320.72 191.288 321.568 190.936C322.416 190.584 323.328 190.408 324.304 190.408C325.456 190.408 326.44 190.616 327.256 191.032C328.072 191.448 328.816 192.12 329.488 193.048V190.72H331.264V203.848H329.488V201.544C329.136 202.008 328.776 202.408 328.408 202.744C328.056 203.08 327.68 203.352 327.28 203.56C326.88 203.768 326.448 203.92 325.984 204.016C325.52 204.112 325.008 204.16 324.448 204.16C323.44 204.16 322.504 203.992 321.64 203.656C320.776 203.304 320.024 202.824 319.384 202.216C318.76 201.608 318.272 200.888 317.92 200.056C317.568 199.208 317.392 198.296 317.392 197.32ZM319.192 197.248C319.192 197.984 319.328 198.672 319.6 199.312C319.872 199.952 320.24 200.512 320.704 200.992C321.184 201.472 321.744 201.848 322.384 202.12C323.024 202.392 323.704 202.528 324.424 202.528C325.144 202.528 325.808 202.392 326.416 202.12C327.04 201.848 327.576 201.48 328.024 201.016C328.488 200.536 328.848 199.976 329.104 199.336C329.36 198.68 329.488 197.984 329.488 197.248C329.488 196.496 329.352 195.808 329.08 195.184C328.824 194.544 328.464 193.992 328 193.528C327.536 193.064 326.984 192.704 326.344 192.448C325.72 192.176 325.032 192.04 324.28 192.04C323.576 192.04 322.912 192.176 322.288 192.448C321.68 192.72 321.144 193.096 320.68 193.576C320.216 194.04 319.848 194.592 319.576 195.232C319.32 195.856 319.192 196.528 319.192 197.248ZM341.777 192.328H338.729C336.617 192.328 335.561 193.096 335.561 194.632C335.561 196.168 336.617 196.936 338.729 196.936H341.777V192.328ZM336.953 198.4C335.961 198.176 335.177 197.728 334.601 197.056C334.041 196.384 333.761 195.576 333.761 194.632C333.761 194.056 333.873 193.528 334.097 193.048C334.321 192.568 334.625 192.16 335.009 191.824C335.409 191.472 335.881 191.2 336.425 191.008C336.985 190.816 337.601 190.72 338.273 190.72H343.553V203.848H341.777V198.544H338.873L335.177 203.848H333.161L336.953 198.4ZM352.483 202.24H354.187L359.107 190.72H361.123L366.043 202.24H367.747V206.872H366.523L365.875 203.848H354.355L353.707 206.872H352.483V202.24ZM364.171 202.24L360.115 192.736L356.059 202.24H364.171ZM369.843 190.72H371.619V192.976C372.179 192.128 372.891 191.488 373.755 191.056C374.635 190.624 375.643 190.408 376.779 190.408C377.755 190.408 378.659 190.584 379.491 190.936C380.339 191.288 381.075 191.776 381.699 192.4C382.323 193.008 382.811 193.736 383.163 194.584C383.515 195.416 383.691 196.32 383.691 197.296C383.691 198.256 383.515 199.16 383.163 200.008C382.811 200.84 382.323 201.568 381.699 202.192C381.075 202.8 380.339 203.28 379.491 203.632C378.643 203.984 377.723 204.16 376.731 204.16C375.627 204.16 374.643 203.944 373.779 203.512C372.915 203.08 372.195 202.44 371.619 201.592V208.456H369.843V190.72ZM376.707 202.528C377.443 202.528 378.123 202.4 378.747 202.144C379.387 201.872 379.939 201.504 380.403 201.04C380.867 200.576 381.227 200.032 381.483 199.408C381.755 198.768 381.891 198.08 381.891 197.344C381.891 196.576 381.755 195.864 381.483 195.208C381.227 194.552 380.867 193.992 380.403 193.528C379.939 193.064 379.387 192.704 378.747 192.448C378.107 192.176 377.403 192.04 376.635 192.04C375.915 192.04 375.243 192.176 374.619 192.448C373.995 192.72 373.451 193.096 372.987 193.576C372.523 194.04 372.155 194.592 371.883 195.232C371.627 195.872 371.499 196.56 371.499 197.296C371.499 198.032 371.627 198.72 371.883 199.36C372.155 200 372.523 200.552 372.987 201.016C373.467 201.48 374.019 201.848 374.643 202.12C375.283 202.392 375.971 202.528 376.707 202.528ZM399.197 199.528C398.957 200.216 398.621 200.848 398.189 201.424C397.773 201.984 397.285 202.472 396.725 202.888C396.165 203.288 395.549 203.6 394.877 203.824C394.221 204.048 393.533 204.16 392.813 204.16C391.837 204.16 390.925 203.984 390.077 203.632C389.245 203.264 388.517 202.768 387.893 202.144C387.269 201.52 386.773 200.792 386.405 199.96C386.053 199.112 385.877 198.2 385.877 197.224C385.877 196.264 386.053 195.376 386.405 194.56C386.757 193.728 387.237 193.008 387.845 192.4C388.469 191.776 389.189 191.288 390.005 190.936C390.837 190.584 391.725 190.408 392.669 190.408C393.613 190.408 394.501 190.592 395.333 190.96C396.181 191.312 396.917 191.792 397.541 192.4C398.181 193.008 398.685 193.72 399.053 194.536C399.421 195.352 399.605 196.216 399.605 197.128C399.605 197.256 399.597 197.384 399.581 197.512C399.565 197.624 399.541 197.744 399.509 197.872H387.653C387.685 198.512 387.845 199.12 388.133 199.696C388.421 200.256 388.789 200.752 389.237 201.184C389.701 201.6 390.237 201.928 390.845 202.168C391.453 202.408 392.093 202.528 392.765 202.528C393.261 202.528 393.741 202.456 394.205 202.312C394.685 202.168 395.125 201.968 395.525 201.712C395.925 201.44 396.277 201.12 396.581 200.752C396.901 200.384 397.157 199.976 397.349 199.528H399.197ZM397.757 196.264C397.453 194.952 396.845 193.92 395.933 193.168C395.037 192.416 393.949 192.04 392.669 192.04C392.045 192.04 391.453 192.144 390.893 192.352C390.349 192.544 389.861 192.832 389.429 193.216C388.997 193.584 388.629 194.032 388.325 194.56C388.037 195.072 387.829 195.64 387.701 196.264H397.757ZM402.168 190.72H404.928L409.512 201.376L414.096 190.72H416.856V203.848H415.08V192.664L410.28 203.848H408.744L403.944 192.664V203.848H402.168V190.72ZM419.562 197.296C419.562 196.304 419.73 195.384 420.066 194.536C420.418 193.688 420.906 192.96 421.53 192.352C422.154 191.744 422.89 191.272 423.738 190.936C424.586 190.584 425.514 190.408 426.522 190.408C427.482 190.408 428.37 190.584 429.186 190.936C430.018 191.288 430.73 191.776 431.322 192.4C431.93 193.008 432.402 193.736 432.738 194.584C433.09 195.416 433.266 196.328 433.266 197.32C433.266 198.296 433.098 199.208 432.762 200.056C432.426 200.888 431.962 201.608 431.37 202.216C430.778 202.824 430.066 203.304 429.234 203.656C428.418 203.992 427.53 204.16 426.57 204.16C425.562 204.16 424.626 203.992 423.762 203.656C422.914 203.304 422.178 202.824 421.554 202.216C420.93 201.592 420.442 200.864 420.09 200.032C419.738 199.184 419.562 198.272 419.562 197.296ZM426.522 202.528C427.242 202.528 427.906 202.4 428.514 202.144C429.122 201.888 429.642 201.536 430.074 201.088C430.506 200.624 430.842 200.072 431.082 199.432C431.338 198.792 431.466 198.096 431.466 197.344C431.466 196.576 431.338 195.864 431.082 195.208C430.842 194.552 430.49 193.992 430.026 193.528C429.578 193.064 429.042 192.704 428.418 192.448C427.81 192.176 427.13 192.04 426.378 192.04C425.658 192.04 424.986 192.176 424.362 192.448C423.754 192.704 423.226 193.072 422.778 193.552C422.346 194.016 422.002 194.576 421.746 195.232C421.49 195.872 421.362 196.568 421.362 197.32C421.362 198.072 421.49 198.768 421.746 199.408C422.002 200.032 422.362 200.576 422.826 201.04C423.29 201.504 423.834 201.872 424.458 202.144C425.098 202.4 425.786 202.528 426.522 202.528ZM438.202 192.328H434.746V190.72H443.386V192.328H439.978V203.848H438.202V192.328ZM444.856 197.32C444.856 196.328 445.032 195.416 445.384 194.584C445.736 193.736 446.216 193.008 446.824 192.4C447.448 191.776 448.184 191.288 449.032 190.936C449.88 190.584 450.792 190.408 451.768 190.408C452.92 190.408 453.904 190.616 454.72 191.032C455.536 191.448 456.28 192.12 456.952 193.048V190.72H458.728V203.848H456.952V201.544C456.6 202.008 456.24 202.408 455.872 202.744C455.52 203.08 455.144 203.352 454.744 203.56C454.344 203.768 453.912 203.92 453.448 204.016C452.984 204.112 452.472 204.16 451.912 204.16C450.904 204.16 449.968 203.992 449.104 203.656C448.24 203.304 447.488 202.824 446.848 202.216C446.224 201.608 445.736 200.888 445.384 200.056C445.032 199.208 444.856 198.296 444.856 197.32ZM446.656 197.248C446.656 197.984 446.792 198.672 447.064 199.312C447.336 199.952 447.704 200.512 448.168 200.992C448.648 201.472 449.208 201.848 449.848 202.12C450.488 202.392 451.168 202.528 451.888 202.528C452.608 202.528 453.272 202.392 453.88 202.12C454.504 201.848 455.04 201.48 455.488 201.016C455.952 200.536 456.312 199.976 456.568 199.336C456.824 198.68 456.952 197.984 456.952 197.248C456.952 196.496 456.816 195.808 456.544 195.184C456.288 194.544 455.928 193.992 455.464 193.528C455 193.064 454.448 192.704 453.808 192.448C453.184 192.176 452.496 192.04 451.744 192.04C451.04 192.04 450.376 192.176 449.752 192.448C449.144 192.72 448.608 193.096 448.144 193.576C447.68 194.04 447.312 194.592 447.04 195.232C446.784 195.856 446.656 196.528 446.656 197.248ZM462.593 200.824H464.369V204.328C464.369 204.664 464.305 204.984 464.177 205.288C464.065 205.608 463.905 205.88 463.697 206.104C463.489 206.344 463.241 206.528 462.953 206.656C462.681 206.8 462.393 206.872 462.089 206.872V205.816C462.409 205.816 462.689 205.68 462.929 205.408C463.185 205.152 463.313 204.848 463.313 204.496V203.848H462.593V200.824ZM251.379 240.16H249.003V238.696H251.667L252.363 234.976H249.387V233.512H252.627L253.635 228.112H255.171L254.187 233.512H258.099L259.059 228.112H260.667L259.683 233.512H262.059V234.976H259.419L258.747 238.696H261.699V240.16H258.459L257.427 245.848H255.843L256.875 240.16H252.939L251.859 245.848H250.299L251.379 240.16ZM257.139 238.696L257.835 234.976H253.923L253.227 238.696H257.139ZM269.094 229.72H266.07V228.112H270.846V245.848H269.094V229.72ZM277.642 228.112H281.794C283.858 228.112 285.386 228.488 286.378 229.24C287.37 229.992 287.866 231.152 287.866 232.72C287.866 233.616 287.706 234.36 287.386 234.952C287.066 235.528 286.57 236.008 285.898 236.392C286.938 236.824 287.69 237.384 288.154 238.072C288.634 238.76 288.874 239.656 288.874 240.76C288.874 242.504 288.322 243.792 287.218 244.624C286.13 245.44 284.402 245.848 282.034 245.848H277.642V228.112ZM281.842 244.24C283.682 244.24 285.01 243.976 285.826 243.448C286.658 242.92 287.074 242.056 287.074 240.856C287.074 239.752 286.69 238.896 285.922 238.288C285.17 237.664 284.114 237.352 282.754 237.352H279.418V244.24H281.842ZM282.802 235.744C283.922 235.744 284.746 235.504 285.274 235.024C285.802 234.544 286.066 233.784 286.066 232.744C286.066 232.184 285.986 231.712 285.826 231.328C285.666 230.944 285.402 230.632 285.034 230.392C284.682 230.152 284.218 229.984 283.642 229.888C283.066 229.776 282.37 229.72 281.554 229.72H279.418V235.744H282.802ZM297.649 228.112H299.641L307.273 245.848H305.329L302.761 239.872H294.505L291.913 245.848H290.041L297.649 228.112ZM302.065 238.264L298.657 230.128L295.177 238.264H302.065ZM310.265 240.304C310.361 241.664 310.753 242.712 311.441 243.448C312.129 244.184 313.049 244.552 314.201 244.552C314.745 244.552 315.249 244.456 315.713 244.264C316.193 244.056 316.601 243.776 316.937 243.424C317.289 243.056 317.561 242.632 317.753 242.152C317.945 241.656 318.041 241.128 318.041 240.568C318.041 239.272 317.641 238.28 316.841 237.592C316.057 236.888 314.913 236.536 313.409 236.536H312.977V234.952H314.489C314.825 234.952 315.137 234.88 315.425 234.736C315.713 234.592 315.961 234.4 316.169 234.16C316.393 233.904 316.561 233.608 316.673 233.272C316.801 232.936 316.865 232.576 316.865 232.192C316.865 231.376 316.617 230.712 316.121 230.2C315.625 229.672 314.977 229.408 314.177 229.408C313.313 229.408 312.641 229.68 312.161 230.224C311.697 230.752 311.457 231.52 311.441 232.528H309.689C309.737 231.072 310.161 229.92 310.961 229.072C311.761 228.224 312.833 227.8 314.177 227.8C314.833 227.8 315.433 227.912 315.977 228.136C316.537 228.344 317.009 228.648 317.393 229.048C317.793 229.448 318.097 229.928 318.305 230.488C318.529 231.032 318.641 231.632 318.641 232.288C318.641 233.712 318.033 234.848 316.817 235.696C318.817 236.72 319.817 238.312 319.817 240.472C319.817 241.272 319.673 242.016 319.385 242.704C319.097 243.392 318.705 243.992 318.209 244.504C317.713 245.016 317.121 245.424 316.433 245.728C315.761 246.016 315.041 246.16 314.273 246.16C313.425 246.16 312.657 246.024 311.969 245.752C311.281 245.48 310.681 245.088 310.169 244.576C309.673 244.064 309.281 243.448 308.993 242.728C308.705 242.008 308.545 241.2 308.513 240.304H310.265ZM323.012 228.112H332.708V229.72H324.788V236.08H332.444V237.688H324.788V244.24H332.708V245.848H323.012V228.112ZM342.106 228.112H344.098L351.73 245.848H349.786L347.218 239.872H338.962L336.37 245.848H334.498L342.106 228.112ZM346.522 238.264L343.114 230.128L339.634 238.264H346.522Z" fill="#89939E"/>
</svg>
