<svg width="875" height="312" viewBox="0 0 875 312" fill="none" xmlns="http://www.w3.org/2000/svg">
<rect width="388.293" height="312" rx="29.1624" fill="white"/>
<rect x="9.28125" y="8.65234" width="369.832" height="156.417" rx="17.8288" fill="url(#paint0_linear_2317_26729)"/>
<path d="M11.1053 185.612H23.5133V203.348H21.7373V187.22H12.8813V203.348H11.1053V185.612ZM27.0262 190.22H28.8022V192.476C29.3622 191.628 30.0742 190.988 30.9382 190.556C31.8182 190.124 32.8262 189.908 33.9622 189.908C34.9382 189.908 35.8422 190.084 36.6742 190.436C37.5222 190.788 38.2582 191.276 38.8822 191.9C39.5062 192.508 39.9942 193.236 40.3462 194.084C40.6982 194.916 40.8742 195.82 40.8742 196.796C40.8742 197.756 40.6982 198.66 40.3462 199.508C39.9942 200.34 39.5062 201.068 38.8822 201.692C38.2582 202.3 37.5222 202.78 36.6742 203.132C35.8262 203.484 34.9062 203.66 33.9142 203.66C32.8102 203.66 31.8262 203.444 30.9622 203.012C30.0982 202.58 29.3782 201.94 28.8022 201.092V207.956H27.0262V190.22ZM33.8902 202.028C34.6262 202.028 35.3062 201.9 35.9302 201.644C36.5702 201.372 37.1222 201.004 37.5862 200.54C38.0502 200.076 38.4102 199.532 38.6662 198.908C38.9382 198.268 39.0742 197.58 39.0742 196.844C39.0742 196.076 38.9382 195.364 38.6662 194.708C38.4102 194.052 38.0502 193.492 37.5862 193.028C37.1222 192.564 36.5702 192.204 35.9302 191.948C35.2902 191.676 34.5862 191.54 33.8182 191.54C33.0982 191.54 32.4262 191.676 31.8022 191.948C31.1782 192.22 30.6342 192.596 30.1702 193.076C29.7062 193.54 29.3382 194.092 29.0662 194.732C28.8102 195.372 28.6822 196.06 28.6822 196.796C28.6822 197.532 28.8102 198.22 29.0662 198.86C29.3382 199.5 29.7062 200.052 30.1702 200.516C30.6502 200.98 31.2022 201.348 31.8262 201.62C32.4662 201.892 33.1542 202.028 33.8902 202.028ZM43.0599 196.796C43.0599 195.804 43.2279 194.884 43.5639 194.036C43.9159 193.188 44.4039 192.46 45.0279 191.852C45.6519 191.244 46.3879 190.772 47.2359 190.436C48.0839 190.084 49.0119 189.908 50.0199 189.908C50.9799 189.908 51.8679 190.084 52.6839 190.436C53.5159 190.788 54.2279 191.276 54.8199 191.9C55.4279 192.508 55.8999 193.236 56.2359 194.084C56.5879 194.916 56.7639 195.828 56.7639 196.82C56.7639 197.796 56.5959 198.708 56.2599 199.556C55.9239 200.388 55.4599 201.108 54.8679 201.716C54.2759 202.324 53.5639 202.804 52.7319 203.156C51.9159 203.492 51.0279 203.66 50.0679 203.66C49.0599 203.66 48.1239 203.492 47.2599 203.156C46.4119 202.804 45.6759 202.324 45.0519 201.716C44.4279 201.092 43.9399 200.364 43.5879 199.532C43.2359 198.684 43.0599 197.772 43.0599 196.796ZM50.0199 202.028C50.7399 202.028 51.4039 201.9 52.0119 201.644C52.6199 201.388 53.1399 201.036 53.5719 200.588C54.0039 200.124 54.3399 199.572 54.5799 198.932C54.8359 198.292 54.9639 197.596 54.9639 196.844C54.9639 196.076 54.8359 195.364 54.5799 194.708C54.3399 194.052 53.9879 193.492 53.5239 193.028C53.0759 192.564 52.5399 192.204 51.9159 191.948C51.3079 191.676 50.6279 191.54 49.8759 191.54C49.1559 191.54 48.4839 191.676 47.8599 191.948C47.2519 192.204 46.7239 192.572 46.2759 193.052C45.8439 193.516 45.4999 194.076 45.2439 194.732C44.9879 195.372 44.8599 196.068 44.8599 196.82C44.8599 197.572 44.9879 198.268 45.2439 198.908C45.4999 199.532 45.8599 200.076 46.3239 200.54C46.7879 201.004 47.3319 201.372 47.9559 201.644C48.5959 201.9 49.2839 202.028 50.0199 202.028ZM72.5487 199.484C71.7807 200.908 70.8767 201.964 69.8367 202.652C68.7967 203.324 67.5567 203.66 66.1167 203.66C65.1087 203.66 64.1647 203.484 63.2847 203.132C62.4207 202.78 61.6687 202.292 61.0287 201.668C60.3887 201.044 59.8847 200.316 59.5167 199.484C59.1487 198.636 58.9647 197.724 58.9647 196.748C58.9647 195.788 59.1407 194.892 59.4927 194.06C59.8607 193.228 60.3647 192.508 61.0047 191.9C61.6447 191.276 62.3887 190.788 63.2367 190.436C64.1007 190.084 65.0207 189.908 65.9967 189.908C66.7487 189.908 67.4607 190.012 68.1327 190.22C68.8047 190.412 69.4207 190.692 69.9807 191.06C70.5407 191.428 71.0367 191.884 71.4687 192.428C71.9167 192.956 72.2687 193.548 72.5247 194.204H70.5327C70.0207 193.34 69.3727 192.684 68.5887 192.236C67.8207 191.772 66.9487 191.54 65.9727 191.54C65.2367 191.54 64.5487 191.676 63.9087 191.948C63.2847 192.22 62.7407 192.596 62.2767 193.076C61.8127 193.54 61.4447 194.092 61.1727 194.732C60.9007 195.372 60.7647 196.06 60.7647 196.796C60.7647 197.532 60.9007 198.22 61.1727 198.86C61.4447 199.484 61.8207 200.036 62.3007 200.516C62.7807 200.98 63.3407 201.348 63.9807 201.62C64.6207 201.892 65.3087 202.028 66.0447 202.028C66.9887 202.028 67.7967 201.836 68.4687 201.452C69.1567 201.052 69.8447 200.396 70.5327 199.484H72.5487ZM75.1861 190.22H76.9621V195.86H84.8341V190.22H86.6101V203.348H84.8341V197.468H76.9621V203.348H75.1861V190.22ZM93.5939 202.916L88.5059 190.22H90.4499L94.6019 200.684L99.0419 190.22H100.938L93.3539 207.956H91.4579L93.5939 202.916ZM105.079 191.828H101.623V190.22H110.263V191.828H106.855V203.348H105.079V191.828ZM117.421 201.74C119.533 201.74 120.589 200.964 120.589 199.412C120.589 197.86 119.533 197.084 117.421 197.084H114.013V201.74H117.421ZM112.237 190.22H114.013V195.476H117.877C118.549 195.476 119.157 195.572 119.701 195.764C120.261 195.956 120.733 196.228 121.117 196.58C121.517 196.916 121.829 197.332 122.053 197.828C122.277 198.308 122.389 198.836 122.389 199.412C122.389 199.988 122.277 200.524 122.053 201.02C121.829 201.5 121.517 201.916 121.117 202.268C120.733 202.604 120.261 202.868 119.701 203.06C119.157 203.252 118.549 203.348 117.877 203.348H112.237V190.22ZM137.706 199.484C136.938 200.908 136.034 201.964 134.994 202.652C133.954 203.324 132.714 203.66 131.274 203.66C130.266 203.66 129.322 203.484 128.442 203.132C127.578 202.78 126.826 202.292 126.186 201.668C125.546 201.044 125.042 200.316 124.674 199.484C124.306 198.636 124.122 197.724 124.122 196.748C124.122 195.788 124.298 194.892 124.65 194.06C125.018 193.228 125.522 192.508 126.162 191.9C126.802 191.276 127.546 190.788 128.394 190.436C129.258 190.084 130.178 189.908 131.154 189.908C131.906 189.908 132.618 190.012 133.29 190.22C133.962 190.412 134.578 190.692 135.138 191.06C135.698 191.428 136.194 191.884 136.626 192.428C137.074 192.956 137.426 193.548 137.682 194.204H135.69C135.178 193.34 134.53 192.684 133.746 192.236C132.978 191.772 132.106 191.54 131.13 191.54C130.394 191.54 129.706 191.676 129.066 191.948C128.442 192.22 127.898 192.596 127.434 193.076C126.97 193.54 126.602 194.092 126.33 194.732C126.058 195.372 125.922 196.06 125.922 196.796C125.922 197.532 126.058 198.22 126.33 198.86C126.602 199.484 126.978 200.036 127.458 200.516C127.938 200.98 128.498 201.348 129.138 201.62C129.778 201.892 130.466 202.028 131.202 202.028C132.146 202.028 132.954 201.836 133.626 201.452C134.314 201.052 135.002 200.396 135.69 199.484H137.706ZM147.663 191.828H144.615C142.503 191.828 141.447 192.596 141.447 194.132C141.447 195.668 142.503 196.436 144.615 196.436H147.663V191.828ZM142.839 197.9C141.847 197.676 141.063 197.228 140.487 196.556C139.927 195.884 139.647 195.076 139.647 194.132C139.647 193.556 139.759 193.028 139.983 192.548C140.207 192.068 140.511 191.66 140.895 191.324C141.295 190.972 141.767 190.7 142.311 190.508C142.871 190.316 143.487 190.22 144.159 190.22H149.439V203.348H147.663V198.044H144.759L141.063 203.348H139.047L142.839 197.9ZM159.473 190.22H164.729C166.153 190.22 167.265 190.524 168.065 191.132C168.865 191.74 169.265 192.588 169.265 193.676C169.265 194.204 169.097 194.716 168.761 195.212C168.425 195.708 168.001 196.068 167.489 196.292C169.121 196.9 169.937 197.948 169.937 199.436C169.937 200.012 169.817 200.54 169.577 201.02C169.337 201.484 169.001 201.892 168.569 202.244C168.137 202.596 167.625 202.868 167.033 203.06C166.441 203.252 165.793 203.348 165.089 203.348H159.473V190.22ZM164.441 195.644C165.449 195.644 166.217 195.476 166.745 195.14C167.289 194.788 167.561 194.3 167.561 193.676C167.561 192.444 166.521 191.828 164.441 191.828H161.249V195.644H164.441ZM164.633 201.74C165.769 201.74 166.633 201.548 167.225 201.164C167.833 200.764 168.137 200.188 168.137 199.436C168.137 197.98 166.969 197.252 164.633 197.252H161.249V201.74H164.633ZM192.41 199.484C191.642 200.908 190.738 201.964 189.698 202.652C188.658 203.324 187.418 203.66 185.978 203.66C184.97 203.66 184.026 203.484 183.146 203.132C182.282 202.78 181.53 202.292 180.89 201.668C180.25 201.044 179.746 200.316 179.378 199.484C179.01 198.636 178.826 197.724 178.826 196.748C178.826 195.788 179.002 194.892 179.354 194.06C179.722 193.228 180.226 192.508 180.866 191.9C181.506 191.276 182.25 190.788 183.098 190.436C183.962 190.084 184.882 189.908 185.858 189.908C186.61 189.908 187.322 190.012 187.994 190.22C188.666 190.412 189.282 190.692 189.842 191.06C190.402 191.428 190.898 191.884 191.33 192.428C191.778 192.956 192.13 193.548 192.386 194.204H190.394C189.882 193.34 189.234 192.684 188.45 192.236C187.682 191.772 186.81 191.54 185.834 191.54C185.098 191.54 184.41 191.676 183.77 191.948C183.146 192.22 182.602 192.596 182.138 193.076C181.674 193.54 181.306 194.092 181.034 194.732C180.762 195.372 180.626 196.06 180.626 196.796C180.626 197.532 180.762 198.22 181.034 198.86C181.306 199.484 181.682 200.036 182.162 200.516C182.642 200.98 183.202 201.348 183.842 201.62C184.482 201.892 185.17 202.028 185.906 202.028C186.85 202.028 187.658 201.836 188.33 201.452C189.018 201.052 189.706 200.396 190.394 199.484H192.41ZM195.047 190.22H196.823V200.828L204.815 190.22H206.591V203.348H204.815V192.74L196.823 203.348H195.047V190.22ZM209.804 190.22H211.58V195.86H219.452V190.22H221.228V203.348H219.452V197.468H211.58V203.348H209.804V190.22ZM237.235 199.028C236.995 199.716 236.659 200.348 236.227 200.924C235.811 201.484 235.323 201.972 234.763 202.388C234.203 202.788 233.587 203.1 232.915 203.324C232.259 203.548 231.571 203.66 230.851 203.66C229.875 203.66 228.963 203.484 228.115 203.132C227.283 202.764 226.555 202.268 225.931 201.644C225.307 201.02 224.811 200.292 224.443 199.46C224.091 198.612 223.915 197.7 223.915 196.724C223.915 195.764 224.091 194.876 224.443 194.06C224.795 193.228 225.275 192.508 225.883 191.9C226.507 191.276 227.227 190.788 228.043 190.436C228.875 190.084 229.763 189.908 230.707 189.908C231.651 189.908 232.539 190.092 233.371 190.46C234.219 190.812 234.955 191.292 235.579 191.9C236.219 192.508 236.723 193.22 237.091 194.036C237.459 194.852 237.643 195.716 237.643 196.628C237.643 196.756 237.635 196.884 237.619 197.012C237.603 197.124 237.579 197.244 237.547 197.372H225.691C225.723 198.012 225.883 198.62 226.171 199.196C226.459 199.756 226.827 200.252 227.275 200.684C227.739 201.1 228.275 201.428 228.883 201.668C229.491 201.908 230.131 202.028 230.803 202.028C231.299 202.028 231.779 201.956 232.243 201.812C232.723 201.668 233.163 201.468 233.563 201.212C233.963 200.94 234.315 200.62 234.619 200.252C234.939 199.884 235.195 199.476 235.387 199.028H237.235ZM235.795 195.764C235.491 194.452 234.883 193.42 233.971 192.668C233.075 191.916 231.987 191.54 230.707 191.54C230.083 191.54 229.491 191.644 228.931 191.852C228.387 192.044 227.899 192.332 227.467 192.716C227.035 193.084 226.667 193.532 226.363 194.06C226.075 194.572 225.867 195.14 225.739 195.764H235.795ZM240.207 190.22H245.463C246.887 190.22 247.999 190.524 248.799 191.132C249.599 191.74 249.999 192.588 249.999 193.676C249.999 194.204 249.831 194.716 249.495 195.212C249.159 195.708 248.735 196.068 248.223 196.292C249.855 196.9 250.671 197.948 250.671 199.436C250.671 200.012 250.551 200.54 250.311 201.02C250.071 201.484 249.735 201.892 249.303 202.244C248.871 202.596 248.359 202.868 247.767 203.06C247.175 203.252 246.527 203.348 245.823 203.348H240.207V190.22ZM245.175 195.644C246.183 195.644 246.951 195.476 247.479 195.14C248.023 194.788 248.295 194.3 248.295 193.676C248.295 192.444 247.255 191.828 245.175 191.828H241.983V195.644H245.175ZM245.367 201.74C246.503 201.74 247.367 201.548 247.959 201.164C248.567 200.764 248.871 200.188 248.871 199.436C248.871 197.98 247.703 197.252 245.367 197.252H241.983V201.74H245.367ZM266.045 199.028C265.805 199.716 265.469 200.348 265.037 200.924C264.621 201.484 264.133 201.972 263.573 202.388C263.013 202.788 262.397 203.1 261.725 203.324C261.069 203.548 260.381 203.66 259.661 203.66C258.685 203.66 257.773 203.484 256.925 203.132C256.093 202.764 255.365 202.268 254.741 201.644C254.117 201.02 253.621 200.292 253.253 199.46C252.901 198.612 252.725 197.7 252.725 196.724C252.725 195.764 252.901 194.876 253.253 194.06C253.605 193.228 254.085 192.508 254.693 191.9C255.317 191.276 256.037 190.788 256.853 190.436C257.685 190.084 258.573 189.908 259.517 189.908C260.461 189.908 261.349 190.092 262.181 190.46C263.029 190.812 263.765 191.292 264.389 191.9C265.029 192.508 265.533 193.22 265.901 194.036C266.269 194.852 266.453 195.716 266.453 196.628C266.453 196.756 266.445 196.884 266.429 197.012C266.413 197.124 266.389 197.244 266.357 197.372H254.501C254.533 198.012 254.693 198.62 254.981 199.196C255.269 199.756 255.637 200.252 256.085 200.684C256.549 201.1 257.085 201.428 257.693 201.668C258.301 201.908 258.941 202.028 259.613 202.028C260.109 202.028 260.589 201.956 261.053 201.812C261.533 201.668 261.973 201.468 262.373 201.212C262.773 200.94 263.125 200.62 263.429 200.252C263.749 199.884 264.005 199.476 264.197 199.028H266.045ZM264.605 195.764C264.301 194.452 263.693 193.42 262.781 192.668C261.885 191.916 260.797 191.54 259.517 191.54C258.893 191.54 258.301 191.644 257.741 191.852C257.197 192.044 256.709 192.332 256.277 192.716C255.845 193.084 255.477 193.532 255.173 194.06C254.885 194.572 254.677 195.14 254.549 195.764H264.605ZM269.689 200.324H271.465V203.828C271.465 204.164 271.401 204.484 271.273 204.788C271.161 205.108 271.001 205.38 270.793 205.604C270.585 205.844 270.337 206.028 270.049 206.156C269.777 206.3 269.489 206.372 269.185 206.372V205.316C269.505 205.316 269.785 205.18 270.025 204.908C270.281 204.652 270.409 204.348 270.409 203.996V203.348H269.689V200.324ZM11.7773 239.66H9.40125V238.196H12.0653L12.7613 234.476H9.78525V233.012H13.0253L14.0333 227.612H15.5693L14.5853 233.012H18.4973L19.4573 227.612H21.0653L20.0813 233.012H22.4573V234.476H19.8173L19.1453 238.196H22.0973V239.66H18.8573L17.8253 245.348H16.2413L17.2733 239.66H13.3373L12.2573 245.348H10.6973L11.7773 239.66ZM17.5373 238.196L18.2333 234.476H14.3213L13.6253 238.196H17.5373ZM30.6206 227.612H32.6126L40.2446 245.348H38.3006L35.7326 239.372H27.4766L24.8846 245.348H23.0126L30.6206 227.612ZM35.0366 237.764L31.6286 229.628L28.1486 237.764H35.0366ZM42.5165 227.612H46.6685C48.7325 227.612 50.2605 227.988 51.2525 228.74C52.2445 229.492 52.7405 230.652 52.7405 232.22C52.7405 233.116 52.5805 233.86 52.2605 234.452C51.9405 235.028 51.4445 235.508 50.7725 235.892C51.8125 236.324 52.5645 236.884 53.0285 237.572C53.5085 238.26 53.7485 239.156 53.7485 240.26C53.7485 242.004 53.1965 243.292 52.0925 244.124C51.0045 244.94 49.2765 245.348 46.9085 245.348H42.5165V227.612ZM46.7165 243.74C48.5565 243.74 49.8845 243.476 50.7005 242.948C51.5325 242.42 51.9485 241.556 51.9485 240.356C51.9485 239.252 51.5645 238.396 50.7965 237.788C50.0445 237.164 48.9885 236.852 47.6285 236.852H44.2925V243.74H46.7165ZM47.6765 235.244C48.7965 235.244 49.6205 235.004 50.1485 234.524C50.6765 234.044 50.9405 233.284 50.9405 232.244C50.9405 231.684 50.8605 231.212 50.7005 230.828C50.5405 230.444 50.2765 230.132 49.9085 229.892C49.5565 229.652 49.0925 229.484 48.5165 229.388C47.9405 229.276 47.2445 229.22 46.4285 229.22H44.2925V235.244H47.6765ZM57.1961 239.804C57.2921 241.164 57.6841 242.212 58.3721 242.948C59.0601 243.684 59.9801 244.052 61.1321 244.052C61.6761 244.052 62.1801 243.956 62.6441 243.764C63.1241 243.556 63.5321 243.276 63.8681 242.924C64.2201 242.556 64.4921 242.132 64.6841 241.652C64.8761 241.156 64.9721 240.628 64.9721 240.068C64.9721 238.772 64.5721 237.78 63.7721 237.092C62.9881 236.388 61.8441 236.036 60.3401 236.036H59.9081V234.452H61.4201C61.7561 234.452 62.0681 234.38 62.3561 234.236C62.6441 234.092 62.8921 233.9 63.1001 233.66C63.3241 233.404 63.4921 233.108 63.6041 232.772C63.7321 232.436 63.7961 232.076 63.7961 231.692C63.7961 230.876 63.5481 230.212 63.0521 229.7C62.5561 229.172 61.9081 228.908 61.1081 228.908C60.2441 228.908 59.5721 229.18 59.0921 229.724C58.6281 230.252 58.3881 231.02 58.3721 232.028H56.6201C56.6681 230.572 57.0921 229.42 57.8921 228.572C58.6921 227.724 59.7641 227.3 61.1081 227.3C61.7641 227.3 62.3641 227.412 62.9081 227.636C63.4681 227.844 63.9401 228.148 64.3241 228.548C64.7241 228.948 65.0281 229.428 65.2361 229.988C65.4601 230.532 65.5721 231.132 65.5721 231.788C65.5721 233.212 64.9641 234.348 63.7481 235.196C65.7481 236.22 66.7481 237.812 66.7481 239.972C66.7481 240.772 66.6041 241.516 66.3161 242.204C66.0281 242.892 65.6361 243.492 65.1401 244.004C64.6441 244.516 64.0521 244.924 63.3641 245.228C62.6921 245.516 61.9721 245.66 61.2041 245.66C60.3561 245.66 59.5881 245.524 58.9001 245.252C58.2121 244.98 57.6121 244.588 57.1001 244.076C56.6041 243.564 56.2121 242.948 55.9241 242.228C55.6361 241.508 55.4761 240.7 55.4441 239.804H57.1961ZM68.8394 233.852C68.8394 231.724 69.3434 230.1 70.3514 228.98C71.3594 227.86 72.8314 227.3 74.7674 227.3C76.6874 227.3 78.1594 227.868 79.1834 229.004C80.2074 230.124 80.7194 231.74 80.7194 233.852V238.892C80.7194 243.404 78.7834 245.66 74.9114 245.66C72.9114 245.66 71.3994 245.092 70.3754 243.956C69.3514 242.804 68.8394 241.116 68.8394 238.892V233.852ZM70.5914 238.604C70.5914 240.444 70.9354 241.812 71.6234 242.708C72.3114 243.604 73.3834 244.052 74.8394 244.052C76.2794 244.052 77.3274 243.62 77.9834 242.756C78.6394 241.876 78.9674 240.492 78.9674 238.604V234.26C78.9674 230.692 77.5754 228.908 74.7914 228.908C71.9914 228.908 70.5914 230.692 70.5914 234.26V238.604ZM83.4108 227.612H93.1068V229.22H85.1868V235.58H92.8428V237.188H85.1868V243.74H93.1068V245.348H83.4108V227.612ZM95.6402 240.188C95.6402 239.116 95.8962 238.172 96.4082 237.356C96.9202 236.54 97.6642 235.9 98.6402 235.436C97.9202 235.02 97.3922 234.532 97.0562 233.972C96.7362 233.396 96.5762 232.7 96.5762 231.884C96.5762 231.228 96.6962 230.62 96.9362 230.06C97.1762 229.5 97.5042 229.02 97.9202 228.62C98.3522 228.204 98.8562 227.884 99.4322 227.66C100.008 227.42 100.632 227.3 101.304 227.3C101.992 227.3 102.616 227.412 103.176 227.636C103.752 227.86 104.248 228.18 104.664 228.596C105.08 228.996 105.4 229.476 105.624 230.036C105.864 230.596 105.984 231.212 105.984 231.884C105.984 233.596 105.28 234.78 103.872 235.436C104.864 235.868 105.616 236.484 106.128 237.284C106.656 238.084 106.92 239.028 106.92 240.116C106.92 240.932 106.776 241.676 106.488 242.348C106.216 243.02 105.832 243.604 105.336 244.1C104.856 244.596 104.272 244.98 103.584 245.252C102.912 245.524 102.168 245.66 101.352 245.66C100.536 245.66 99.7762 245.524 99.0722 245.252C98.3842 244.964 97.7842 244.58 97.2722 244.1C96.7602 243.604 96.3602 243.028 96.0722 242.372C95.7842 241.7 95.6402 240.972 95.6402 240.188ZM101.352 234.692C101.768 234.692 102.144 234.62 102.48 234.476C102.832 234.332 103.136 234.132 103.392 233.876C103.648 233.604 103.848 233.292 103.992 232.94C104.136 232.588 104.208 232.204 104.208 231.788C104.208 230.924 103.936 230.228 103.392 229.7C102.848 229.172 102.128 228.908 101.232 228.908C100.384 228.908 99.6882 229.18 99.1442 229.724C98.6162 230.252 98.3522 230.932 98.3522 231.764C98.3522 232.18 98.4242 232.572 98.5682 232.94C98.7282 233.292 98.9442 233.604 99.2162 233.876C99.4882 234.132 99.8002 234.332 100.152 234.476C100.52 234.62 100.92 234.692 101.352 234.692ZM97.4162 240.236C97.4162 240.78 97.5122 241.292 97.7042 241.772C97.8962 242.236 98.1682 242.636 98.5202 242.972C98.8722 243.308 99.2802 243.572 99.7442 243.764C100.224 243.956 100.752 244.052 101.328 244.052C101.888 244.052 102.4 243.956 102.864 243.764C103.328 243.572 103.728 243.308 104.064 242.972C104.4 242.62 104.664 242.212 104.856 241.748C105.048 241.268 105.144 240.74 105.144 240.164C105.144 239.604 105.048 239.092 104.856 238.628C104.664 238.148 104.392 237.74 104.04 237.404C103.704 237.068 103.296 236.812 102.816 236.636C102.336 236.444 101.808 236.348 101.232 236.348C100.672 236.348 100.16 236.444 99.6962 236.636C99.2322 236.828 98.8322 237.1 98.4962 237.452C98.1602 237.788 97.8962 238.196 97.7042 238.676C97.5122 239.14 97.4162 239.66 97.4162 240.236ZM11.7773 282.66H9.40125V281.196H12.0653L12.7613 277.476H9.78525V276.012H13.0253L14.0333 270.612H15.5693L14.5853 276.012H18.4973L19.4573 270.612H21.0653L20.0813 276.012H22.4573V277.476H19.8173L19.1453 281.196H22.0973V282.66H18.8573L17.8253 288.348H16.2413L17.2733 282.66H13.3373L12.2573 288.348H10.6973L11.7773 282.66ZM17.5373 281.196L18.2333 277.476H14.3213L13.6253 281.196H17.5373ZM29.4926 272.22H26.4686V270.612H31.2446V288.348H29.4926V272.22ZM38.04 270.612H42.192C44.256 270.612 45.784 270.988 46.776 271.74C47.768 272.492 48.264 273.652 48.264 275.22C48.264 276.116 48.104 276.86 47.784 277.452C47.464 278.028 46.968 278.508 46.296 278.892C47.336 279.324 48.088 279.884 48.552 280.572C49.032 281.26 49.272 282.156 49.272 283.26C49.272 285.004 48.72 286.292 47.616 287.124C46.528 287.94 44.8 288.348 42.432 288.348H38.04V270.612ZM42.24 286.74C44.08 286.74 45.408 286.476 46.224 285.948C47.056 285.42 47.472 284.556 47.472 283.356C47.472 282.252 47.088 281.396 46.32 280.788C45.568 280.164 44.512 279.852 43.152 279.852H39.816V286.74H42.24ZM43.2 278.244C44.32 278.244 45.144 278.004 45.672 277.524C46.2 277.044 46.464 276.284 46.464 275.244C46.464 274.684 46.384 274.212 46.224 273.828C46.064 273.444 45.8 273.132 45.432 272.892C45.08 272.652 44.616 272.484 44.04 272.388C43.464 272.276 42.768 272.22 41.952 272.22H39.816V278.244H43.2ZM58.0475 270.612H60.0395L67.6715 288.348H65.7275L63.1595 282.372H54.9035L52.3115 288.348H50.4395L58.0475 270.612ZM62.4635 280.764L59.0555 272.628L55.5755 280.764H62.4635ZM70.6634 282.804C70.7594 284.164 71.1514 285.212 71.8394 285.948C72.5274 286.684 73.4474 287.052 74.5994 287.052C75.1434 287.052 75.6474 286.956 76.1114 286.764C76.5914 286.556 76.9994 286.276 77.3354 285.924C77.6874 285.556 77.9594 285.132 78.1514 284.652C78.3434 284.156 78.4394 283.628 78.4394 283.068C78.4394 281.772 78.0394 280.78 77.2394 280.092C76.4554 279.388 75.3114 279.036 73.8074 279.036H73.3754V277.452H74.8874C75.2234 277.452 75.5354 277.38 75.8234 277.236C76.1114 277.092 76.3594 276.9 76.5674 276.66C76.7914 276.404 76.9594 276.108 77.0714 275.772C77.1994 275.436 77.2634 275.076 77.2634 274.692C77.2634 273.876 77.0154 273.212 76.5194 272.7C76.0234 272.172 75.3754 271.908 74.5754 271.908C73.7114 271.908 73.0394 272.18 72.5594 272.724C72.0954 273.252 71.8554 274.02 71.8394 275.028H70.0874C70.1354 273.572 70.5594 272.42 71.3594 271.572C72.1594 270.724 73.2314 270.3 74.5754 270.3C75.2314 270.3 75.8314 270.412 76.3754 270.636C76.9354 270.844 77.4074 271.148 77.7914 271.548C78.1914 271.948 78.4954 272.428 78.7034 272.988C78.9274 273.532 79.0394 274.132 79.0394 274.788C79.0394 276.212 78.4314 277.348 77.2154 278.196C79.2154 279.22 80.2154 280.812 80.2154 282.972C80.2154 283.772 80.0714 284.516 79.7834 285.204C79.4954 285.892 79.1034 286.492 78.6074 287.004C78.1114 287.516 77.5194 287.924 76.8314 288.228C76.1594 288.516 75.4394 288.66 74.6714 288.66C73.8234 288.66 73.0554 288.524 72.3674 288.252C71.6794 287.98 71.0794 287.588 70.5674 287.076C70.0714 286.564 69.6794 285.948 69.3914 285.228C69.1034 284.508 68.9434 283.7 68.9114 282.804H70.6634ZM83.4108 270.612H93.1068V272.22H85.1868V278.58H92.8428V280.188H85.1868V286.74H93.1068V288.348H83.4108V270.612ZM102.504 270.612H104.496L112.128 288.348H110.184L107.616 282.372H99.3602L96.7682 288.348H94.8962L102.504 270.612ZM106.92 280.764L103.512 272.628L100.032 280.764H106.92Z" fill="#89939E"/>
<rect x="238.547" width="388.293" height="312" rx="29.1624" fill="white"/>
<rect x="247.828" y="8.65234" width="369.832" height="156.417" rx="17.8288" fill="url(#paint1_linear_2317_26729)" fill-opacity="0.8"/>
<path d="M249.652 185.612H253.804C255.868 185.612 257.396 185.988 258.388 186.74C259.38 187.492 259.876 188.652 259.876 190.22C259.876 191.116 259.716 191.86 259.396 192.452C259.076 193.028 258.58 193.508 257.908 193.892C258.948 194.324 259.7 194.884 260.164 195.572C260.644 196.26 260.884 197.156 260.884 198.26C260.884 200.004 260.332 201.292 259.228 202.124C258.14 202.94 256.412 203.348 254.044 203.348H249.652V185.612ZM253.852 201.74C255.692 201.74 257.02 201.476 257.836 200.948C258.668 200.42 259.084 199.556 259.084 198.356C259.084 197.252 258.7 196.396 257.932 195.788C257.18 195.164 256.124 194.852 254.764 194.852H251.428V201.74H253.852ZM254.812 193.244C255.932 193.244 256.756 193.004 257.284 192.524C257.812 192.044 258.076 191.284 258.076 190.244C258.076 189.684 257.996 189.212 257.836 188.828C257.676 188.444 257.412 188.132 257.044 187.892C256.692 187.652 256.228 187.484 255.652 187.388C255.076 187.276 254.38 187.22 253.564 187.22H251.428V193.244H254.812ZM276.116 199.028C275.876 199.716 275.54 200.348 275.108 200.924C274.692 201.484 274.204 201.972 273.644 202.388C273.084 202.788 272.468 203.1 271.796 203.324C271.14 203.548 270.452 203.66 269.732 203.66C268.756 203.66 267.844 203.484 266.996 203.132C266.164 202.764 265.436 202.268 264.812 201.644C264.188 201.02 263.692 200.292 263.324 199.46C262.972 198.612 262.796 197.7 262.796 196.724C262.796 195.764 262.972 194.876 263.324 194.06C263.676 193.228 264.156 192.508 264.764 191.9C265.388 191.276 266.108 190.788 266.924 190.436C267.756 190.084 268.644 189.908 269.588 189.908C270.532 189.908 271.42 190.092 272.252 190.46C273.1 190.812 273.836 191.292 274.46 191.9C275.1 192.508 275.604 193.22 275.972 194.036C276.34 194.852 276.524 195.716 276.524 196.628C276.524 196.756 276.516 196.884 276.5 197.012C276.484 197.124 276.46 197.244 276.428 197.372H264.572C264.604 198.012 264.764 198.62 265.052 199.196C265.34 199.756 265.708 200.252 266.156 200.684C266.62 201.1 267.156 201.428 267.764 201.668C268.372 201.908 269.012 202.028 269.684 202.028C270.18 202.028 270.66 201.956 271.124 201.812C271.604 201.668 272.044 201.468 272.444 201.212C272.844 200.94 273.196 200.62 273.5 200.252C273.82 199.884 274.076 199.476 274.268 199.028H276.116ZM274.676 195.764C274.372 194.452 273.764 193.42 272.852 192.668C271.956 191.916 270.868 191.54 269.588 191.54C268.964 191.54 268.372 191.644 267.812 191.852C267.268 192.044 266.78 192.332 266.348 192.716C265.916 193.084 265.548 193.532 265.244 194.06C264.956 194.572 264.748 195.14 264.62 195.764H274.676ZM286.839 198.116C286.167 198.196 285.487 198.26 284.799 198.308C284.127 198.34 283.431 198.356 282.711 198.356C281.447 198.356 280.455 197.988 279.735 197.252C279.015 196.516 278.655 195.5 278.655 194.204V190.22H280.431V194.204C280.431 194.7 280.487 195.116 280.599 195.452C280.711 195.772 280.903 196.028 281.175 196.22C281.463 196.412 281.839 196.548 282.303 196.628C282.783 196.708 283.391 196.748 284.127 196.748C284.559 196.748 284.967 196.732 285.351 196.7C285.735 196.668 286.231 196.612 286.839 196.532V190.22H288.615V203.348H286.839V198.116ZM304.644 199.028C304.404 199.716 304.068 200.348 303.636 200.924C303.22 201.484 302.732 201.972 302.172 202.388C301.612 202.788 300.996 203.1 300.324 203.324C299.668 203.548 298.98 203.66 298.26 203.66C297.284 203.66 296.372 203.484 295.524 203.132C294.692 202.764 293.964 202.268 293.34 201.644C292.716 201.02 292.22 200.292 291.852 199.46C291.5 198.612 291.324 197.7 291.324 196.724C291.324 195.764 291.5 194.876 291.852 194.06C292.204 193.228 292.684 192.508 293.292 191.9C293.916 191.276 294.636 190.788 295.452 190.436C296.284 190.084 297.172 189.908 298.116 189.908C299.06 189.908 299.948 190.092 300.78 190.46C301.628 190.812 302.364 191.292 302.988 191.9C303.628 192.508 304.132 193.22 304.5 194.036C304.868 194.852 305.052 195.716 305.052 196.628C305.052 196.756 305.044 196.884 305.028 197.012C305.012 197.124 304.988 197.244 304.956 197.372H293.1C293.132 198.012 293.292 198.62 293.58 199.196C293.868 199.756 294.236 200.252 294.684 200.684C295.148 201.1 295.684 201.428 296.292 201.668C296.9 201.908 297.54 202.028 298.212 202.028C298.708 202.028 299.188 201.956 299.652 201.812C300.132 201.668 300.572 201.468 300.972 201.212C301.372 200.94 301.724 200.62 302.028 200.252C302.348 199.884 302.604 199.476 302.796 199.028H304.644ZM303.204 195.764C302.9 194.452 302.292 193.42 301.38 192.668C300.484 191.916 299.396 191.54 298.116 191.54C297.492 191.54 296.9 191.644 296.34 191.852C295.796 192.044 295.308 192.332 294.876 192.716C294.444 193.084 294.076 193.532 293.772 194.06C293.484 194.572 293.276 195.14 293.148 195.764H303.204ZM307.616 190.22H309.392V192.476C309.952 191.628 310.664 190.988 311.528 190.556C312.408 190.124 313.416 189.908 314.552 189.908C315.528 189.908 316.432 190.084 317.264 190.436C318.112 190.788 318.848 191.276 319.472 191.9C320.096 192.508 320.584 193.236 320.936 194.084C321.288 194.916 321.464 195.82 321.464 196.796C321.464 197.756 321.288 198.66 320.936 199.508C320.584 200.34 320.096 201.068 319.472 201.692C318.848 202.3 318.112 202.78 317.264 203.132C316.416 203.484 315.496 203.66 314.504 203.66C313.4 203.66 312.416 203.444 311.552 203.012C310.688 202.58 309.968 201.94 309.392 201.092V207.956H307.616V190.22ZM314.48 202.028C315.216 202.028 315.896 201.9 316.52 201.644C317.16 201.372 317.712 201.004 318.176 200.54C318.64 200.076 319 199.532 319.256 198.908C319.528 198.268 319.664 197.58 319.664 196.844C319.664 196.076 319.528 195.364 319.256 194.708C319 194.052 318.64 193.492 318.176 193.028C317.712 192.564 317.16 192.204 316.52 191.948C315.88 191.676 315.176 191.54 314.408 191.54C313.688 191.54 313.016 191.676 312.392 191.948C311.768 192.22 311.224 192.596 310.76 193.076C310.296 193.54 309.928 194.092 309.656 194.732C309.4 195.372 309.272 196.06 309.272 196.796C309.272 197.532 309.4 198.22 309.656 198.86C309.928 199.5 310.296 200.052 310.76 200.516C311.24 200.98 311.792 201.348 312.416 201.62C313.056 201.892 313.744 202.028 314.48 202.028ZM324.153 190.22H325.929V195.86H333.801V190.22H335.577V203.348H333.801V197.468H325.929V203.348H324.153V190.22ZM351.585 199.028C351.345 199.716 351.009 200.348 350.577 200.924C350.161 201.484 349.673 201.972 349.113 202.388C348.553 202.788 347.937 203.1 347.265 203.324C346.609 203.548 345.921 203.66 345.201 203.66C344.225 203.66 343.313 203.484 342.465 203.132C341.633 202.764 340.905 202.268 340.281 201.644C339.657 201.02 339.161 200.292 338.793 199.46C338.441 198.612 338.265 197.7 338.265 196.724C338.265 195.764 338.441 194.876 338.793 194.06C339.145 193.228 339.625 192.508 340.233 191.9C340.857 191.276 341.577 190.788 342.393 190.436C343.225 190.084 344.113 189.908 345.057 189.908C346.001 189.908 346.889 190.092 347.721 190.46C348.569 190.812 349.305 191.292 349.929 191.9C350.569 192.508 351.073 193.22 351.441 194.036C351.809 194.852 351.993 195.716 351.993 196.628C351.993 196.756 351.985 196.884 351.969 197.012C351.953 197.124 351.929 197.244 351.897 197.372H340.041C340.073 198.012 340.233 198.62 340.521 199.196C340.809 199.756 341.177 200.252 341.625 200.684C342.089 201.1 342.625 201.428 343.233 201.668C343.841 201.908 344.481 202.028 345.153 202.028C345.649 202.028 346.129 201.956 346.593 201.812C347.073 201.668 347.513 201.468 347.913 201.212C348.313 200.94 348.665 200.62 348.969 200.252C349.289 199.884 349.545 199.476 349.737 199.028H351.585ZM350.145 195.764C349.841 194.452 349.233 193.42 348.321 192.668C347.425 191.916 346.337 191.54 345.057 191.54C344.433 191.54 343.841 191.644 343.281 191.852C342.737 192.044 342.249 192.332 341.817 192.716C341.385 193.084 341.017 193.532 340.713 194.06C340.425 194.572 340.217 195.14 340.089 195.764H350.145ZM367.373 199.028C367.133 199.716 366.797 200.348 366.365 200.924C365.949 201.484 365.461 201.972 364.901 202.388C364.341 202.788 363.725 203.1 363.053 203.324C362.397 203.548 361.709 203.66 360.989 203.66C360.013 203.66 359.101 203.484 358.253 203.132C357.421 202.764 356.693 202.268 356.069 201.644C355.445 201.02 354.949 200.292 354.581 199.46C354.229 198.612 354.053 197.7 354.053 196.724C354.053 195.764 354.229 194.876 354.581 194.06C354.933 193.228 355.413 192.508 356.021 191.9C356.645 191.276 357.365 190.788 358.181 190.436C359.013 190.084 359.901 189.908 360.845 189.908C361.789 189.908 362.677 190.092 363.509 190.46C364.357 190.812 365.093 191.292 365.717 191.9C366.357 192.508 366.861 193.22 367.229 194.036C367.597 194.852 367.781 195.716 367.781 196.628C367.781 196.756 367.773 196.884 367.757 197.012C367.741 197.124 367.717 197.244 367.685 197.372H355.829C355.861 198.012 356.021 198.62 356.309 199.196C356.597 199.756 356.965 200.252 357.413 200.684C357.877 201.1 358.413 201.428 359.021 201.668C359.629 201.908 360.269 202.028 360.941 202.028C361.437 202.028 361.917 201.956 362.381 201.812C362.861 201.668 363.301 201.468 363.701 201.212C364.101 200.94 364.453 200.62 364.757 200.252C365.077 199.884 365.333 199.476 365.525 199.028H367.373ZM365.933 195.764C365.629 194.452 365.021 193.42 364.109 192.668C363.213 191.916 362.125 191.54 360.845 191.54C360.221 191.54 359.629 191.644 359.069 191.852C358.525 192.044 358.037 192.332 357.605 192.716C357.173 193.084 356.805 193.532 356.501 194.06C356.213 194.572 356.005 195.14 355.877 195.764H365.933ZM390.259 199.484C389.491 200.908 388.587 201.964 387.547 202.652C386.507 203.324 385.267 203.66 383.827 203.66C382.819 203.66 381.875 203.484 380.995 203.132C380.131 202.78 379.379 202.292 378.739 201.668C378.099 201.044 377.595 200.316 377.227 199.484C376.859 198.636 376.675 197.724 376.675 196.748C376.675 195.788 376.851 194.892 377.203 194.06C377.571 193.228 378.075 192.508 378.715 191.9C379.355 191.276 380.099 190.788 380.947 190.436C381.811 190.084 382.731 189.908 383.707 189.908C384.459 189.908 385.171 190.012 385.843 190.22C386.515 190.412 387.131 190.692 387.691 191.06C388.251 191.428 388.747 191.884 389.179 192.428C389.627 192.956 389.979 193.548 390.235 194.204H388.243C387.731 193.34 387.083 192.684 386.299 192.236C385.531 191.772 384.659 191.54 383.683 191.54C382.947 191.54 382.259 191.676 381.619 191.948C380.995 192.22 380.451 192.596 379.987 193.076C379.523 193.54 379.155 194.092 378.883 194.732C378.611 195.372 378.475 196.06 378.475 196.796C378.475 197.532 378.611 198.22 378.883 198.86C379.155 199.484 379.531 200.036 380.011 200.516C380.491 200.98 381.051 201.348 381.691 201.62C382.331 201.892 383.019 202.028 383.755 202.028C384.699 202.028 385.507 201.836 386.179 201.452C386.867 201.052 387.555 200.396 388.243 199.484H390.259ZM392.896 190.22H394.672V200.828L402.664 190.22H404.44V203.348H402.664V192.74L394.672 203.348H392.896V190.22ZM414.973 191.828H411.925C409.813 191.828 408.757 192.596 408.757 194.132C408.757 195.668 409.813 196.436 411.925 196.436H414.973V191.828ZM410.149 197.9C409.157 197.676 408.373 197.228 407.797 196.556C407.237 195.884 406.957 195.076 406.957 194.132C406.957 193.556 407.069 193.028 407.293 192.548C407.517 192.068 407.821 191.66 408.205 191.324C408.605 190.972 409.077 190.7 409.621 190.508C410.181 190.316 410.797 190.22 411.469 190.22H416.749V203.348H414.973V198.044H412.069L408.373 203.348H406.357L410.149 197.9ZM419.948 190.22H421.724V195.86H429.596V190.22H431.372V203.348H429.596V197.468H421.724V203.348H419.948V190.22ZM434.564 190.22H436.34V200.828L444.332 190.22H446.108V203.348H444.332V192.74L436.34 203.348H434.564V190.22ZM462.137 199.028C461.897 199.716 461.561 200.348 461.129 200.924C460.713 201.484 460.225 201.972 459.665 202.388C459.105 202.788 458.489 203.1 457.817 203.324C457.161 203.548 456.473 203.66 455.753 203.66C454.777 203.66 453.865 203.484 453.017 203.132C452.185 202.764 451.457 202.268 450.833 201.644C450.209 201.02 449.713 200.292 449.345 199.46C448.993 198.612 448.817 197.7 448.817 196.724C448.817 195.764 448.993 194.876 449.345 194.06C449.697 193.228 450.177 192.508 450.785 191.9C451.409 191.276 452.129 190.788 452.945 190.436C453.777 190.084 454.665 189.908 455.609 189.908C456.553 189.908 457.441 190.092 458.273 190.46C459.121 190.812 459.857 191.292 460.481 191.9C461.121 192.508 461.625 193.22 461.993 194.036C462.361 194.852 462.545 195.716 462.545 196.628C462.545 196.756 462.537 196.884 462.521 197.012C462.505 197.124 462.481 197.244 462.449 197.372H450.593C450.625 198.012 450.785 198.62 451.073 199.196C451.361 199.756 451.729 200.252 452.177 200.684C452.641 201.1 453.177 201.428 453.785 201.668C454.393 201.908 455.033 202.028 455.705 202.028C456.201 202.028 456.681 201.956 457.145 201.812C457.625 201.668 458.065 201.468 458.465 201.212C458.865 200.94 459.217 200.62 459.521 200.252C459.841 199.884 460.097 199.476 460.289 199.028H462.137ZM460.697 195.764C460.393 194.452 459.785 193.42 458.873 192.668C457.977 191.916 456.889 191.54 455.609 191.54C454.985 191.54 454.393 191.644 453.833 191.852C453.289 192.044 452.801 192.332 452.369 192.716C451.937 193.084 451.569 193.532 451.265 194.06C450.977 194.572 450.769 195.14 450.641 195.764H460.697ZM465.78 200.324H467.556V203.828C467.556 204.164 467.492 204.484 467.364 204.788C467.252 205.108 467.092 205.38 466.884 205.604C466.676 205.844 466.428 206.028 466.14 206.156C465.868 206.3 465.58 206.372 465.276 206.372V205.316C465.596 205.316 465.876 205.18 466.116 204.908C466.372 204.652 466.5 204.348 466.5 203.996V203.348H465.78V200.324ZM250.324 239.66H247.948V238.196H250.612L251.308 234.476H248.332V233.012H251.572L252.58 227.612H254.116L253.132 233.012H257.044L258.004 227.612H259.612L258.628 233.012H261.004V234.476H258.364L257.692 238.196H260.644V239.66H257.404L256.372 245.348H254.788L255.82 239.66H251.884L250.804 245.348H249.244L250.324 239.66ZM256.084 238.196L256.78 234.476H252.868L252.172 238.196H256.084ZM263.839 239.804C263.935 241.164 264.327 242.212 265.015 242.948C265.703 243.684 266.623 244.052 267.775 244.052C268.319 244.052 268.823 243.956 269.287 243.764C269.767 243.556 270.175 243.276 270.511 242.924C270.863 242.556 271.135 242.132 271.327 241.652C271.519 241.156 271.615 240.628 271.615 240.068C271.615 238.772 271.215 237.78 270.415 237.092C269.631 236.388 268.487 236.036 266.983 236.036H266.551V234.452H268.063C268.399 234.452 268.711 234.38 268.999 234.236C269.287 234.092 269.535 233.9 269.743 233.66C269.967 233.404 270.135 233.108 270.247 232.772C270.375 232.436 270.439 232.076 270.439 231.692C270.439 230.876 270.191 230.212 269.695 229.7C269.199 229.172 268.551 228.908 267.751 228.908C266.887 228.908 266.215 229.18 265.735 229.724C265.271 230.252 265.031 231.02 265.015 232.028H263.263C263.311 230.572 263.735 229.42 264.535 228.572C265.335 227.724 266.407 227.3 267.751 227.3C268.407 227.3 269.007 227.412 269.551 227.636C270.111 227.844 270.583 228.148 270.967 228.548C271.367 228.948 271.671 229.428 271.879 229.988C272.103 230.532 272.215 231.132 272.215 231.788C272.215 233.212 271.607 234.348 270.391 235.196C272.391 236.22 273.391 237.812 273.391 239.972C273.391 240.772 273.247 241.516 272.959 242.204C272.671 242.892 272.279 243.492 271.783 244.004C271.287 244.516 270.695 244.924 270.007 245.228C269.335 245.516 268.615 245.66 267.847 245.66C266.999 245.66 266.231 245.524 265.543 245.252C264.855 244.98 264.255 244.588 263.743 244.076C263.247 243.564 262.855 242.948 262.567 242.228C262.279 241.508 262.119 240.7 262.087 239.804H263.839ZM275.483 233.852C275.483 231.724 275.987 230.1 276.995 228.98C278.003 227.86 279.475 227.3 281.411 227.3C283.331 227.3 284.803 227.868 285.827 229.004C286.851 230.124 287.363 231.74 287.363 233.852V238.892C287.363 243.404 285.427 245.66 281.555 245.66C279.555 245.66 278.043 245.092 277.019 243.956C275.995 242.804 275.483 241.116 275.483 238.892V233.852ZM277.235 238.604C277.235 240.444 277.579 241.812 278.267 242.708C278.955 243.604 280.027 244.052 281.483 244.052C282.923 244.052 283.971 243.62 284.627 242.756C285.283 241.876 285.611 240.492 285.611 238.604V234.26C285.611 230.692 284.219 228.908 281.435 228.908C278.635 228.908 277.235 230.692 277.235 234.26V238.604ZM290.054 227.612H299.75V229.22H291.83V235.58H299.486V237.188H291.83V243.74H299.75V245.348H290.054V227.612ZM302.284 240.188C302.284 239.116 302.54 238.172 303.052 237.356C303.564 236.54 304.308 235.9 305.284 235.436C304.564 235.02 304.036 234.532 303.7 233.972C303.38 233.396 303.22 232.7 303.22 231.884C303.22 231.228 303.34 230.62 303.58 230.06C303.82 229.5 304.148 229.02 304.564 228.62C304.996 228.204 305.5 227.884 306.076 227.66C306.652 227.42 307.276 227.3 307.948 227.3C308.636 227.3 309.26 227.412 309.82 227.636C310.396 227.86 310.892 228.18 311.308 228.596C311.724 228.996 312.044 229.476 312.268 230.036C312.508 230.596 312.628 231.212 312.628 231.884C312.628 233.596 311.924 234.78 310.516 235.436C311.508 235.868 312.26 236.484 312.772 237.284C313.3 238.084 313.564 239.028 313.564 240.116C313.564 240.932 313.42 241.676 313.132 242.348C312.86 243.02 312.476 243.604 311.98 244.1C311.5 244.596 310.916 244.98 310.228 245.252C309.556 245.524 308.812 245.66 307.996 245.66C307.18 245.66 306.42 245.524 305.716 245.252C305.028 244.964 304.428 244.58 303.916 244.1C303.404 243.604 303.004 243.028 302.716 242.372C302.428 241.7 302.284 240.972 302.284 240.188ZM307.996 234.692C308.412 234.692 308.788 234.62 309.124 234.476C309.476 234.332 309.78 234.132 310.036 233.876C310.292 233.604 310.492 233.292 310.636 232.94C310.78 232.588 310.852 232.204 310.852 231.788C310.852 230.924 310.58 230.228 310.036 229.7C309.492 229.172 308.772 228.908 307.876 228.908C307.028 228.908 306.332 229.18 305.788 229.724C305.26 230.252 304.996 230.932 304.996 231.764C304.996 232.18 305.068 232.572 305.212 232.94C305.372 233.292 305.588 233.604 305.86 233.876C306.132 234.132 306.444 234.332 306.796 234.476C307.164 234.62 307.564 234.692 307.996 234.692ZM304.06 240.236C304.06 240.78 304.156 241.292 304.348 241.772C304.54 242.236 304.812 242.636 305.164 242.972C305.516 243.308 305.924 243.572 306.388 243.764C306.868 243.956 307.396 244.052 307.972 244.052C308.532 244.052 309.044 243.956 309.508 243.764C309.972 243.572 310.372 243.308 310.708 242.972C311.044 242.62 311.308 242.212 311.5 241.748C311.692 241.268 311.788 240.74 311.788 240.164C311.788 239.604 311.692 239.092 311.5 238.628C311.308 238.148 311.036 237.74 310.684 237.404C310.348 237.068 309.94 236.812 309.46 236.636C308.98 236.444 308.452 236.348 307.876 236.348C307.316 236.348 306.804 236.444 306.34 236.636C305.876 236.828 305.476 237.1 305.14 237.452C304.804 237.788 304.54 238.196 304.348 238.676C304.156 239.14 304.06 239.66 304.06 240.236ZM316.567 227.612H326.263V229.22H318.343V235.58H325.999V237.188H318.343V243.74H326.263V245.348H316.567V227.612ZM328.58 243.74L334.796 237.74C335.516 237.036 336.092 236.452 336.524 235.988C336.972 235.524 337.316 235.108 337.556 234.74C337.796 234.372 337.956 234.028 338.036 233.708C338.116 233.372 338.156 233.004 338.156 232.604C338.156 232.06 338.06 231.564 337.868 231.116C337.676 230.668 337.412 230.284 337.076 229.964C336.74 229.628 336.332 229.372 335.852 229.196C335.388 229.004 334.876 228.908 334.316 228.908C333.1 228.908 332.156 229.3 331.484 230.084C330.812 230.852 330.476 231.94 330.476 233.348H328.724C328.724 232.42 328.852 231.588 329.108 230.852C329.38 230.1 329.756 229.46 330.236 228.932C330.716 228.404 331.3 228.004 331.988 227.732C332.692 227.444 333.476 227.3 334.34 227.3C335.156 227.3 335.9 227.436 336.572 227.708C337.26 227.964 337.852 228.332 338.348 228.812C338.844 229.292 339.228 229.868 339.5 230.54C339.788 231.196 339.932 231.916 339.932 232.7C339.932 233.18 339.876 233.628 339.764 234.044C339.668 234.46 339.492 234.884 339.236 235.316C338.98 235.748 338.644 236.204 338.228 236.684C337.812 237.148 337.292 237.684 336.668 238.292L330.98 243.74H339.836V245.348H328.58V243.74ZM250.324 282.66H247.948V281.196H250.612L251.308 277.476H248.332V276.012H251.572L252.58 270.612H254.116L253.132 276.012H257.044L258.004 270.612H259.612L258.628 276.012H261.004V277.476H258.364L257.692 281.196H260.644V282.66H257.404L256.372 288.348H254.788L255.82 282.66H251.884L250.804 288.348H249.244L250.324 282.66ZM256.084 281.196L256.78 277.476H252.868L252.172 281.196H256.084ZM263.839 282.804C263.935 284.164 264.327 285.212 265.015 285.948C265.703 286.684 266.623 287.052 267.775 287.052C268.319 287.052 268.823 286.956 269.287 286.764C269.767 286.556 270.175 286.276 270.511 285.924C270.863 285.556 271.135 285.132 271.327 284.652C271.519 284.156 271.615 283.628 271.615 283.068C271.615 281.772 271.215 280.78 270.415 280.092C269.631 279.388 268.487 279.036 266.983 279.036H266.551V277.452H268.063C268.399 277.452 268.711 277.38 268.999 277.236C269.287 277.092 269.535 276.9 269.743 276.66C269.967 276.404 270.135 276.108 270.247 275.772C270.375 275.436 270.439 275.076 270.439 274.692C270.439 273.876 270.191 273.212 269.695 272.7C269.199 272.172 268.551 271.908 267.751 271.908C266.887 271.908 266.215 272.18 265.735 272.724C265.271 273.252 265.031 274.02 265.015 275.028H263.263C263.311 273.572 263.735 272.42 264.535 271.572C265.335 270.724 266.407 270.3 267.751 270.3C268.407 270.3 269.007 270.412 269.551 270.636C270.111 270.844 270.583 271.148 270.967 271.548C271.367 271.948 271.671 272.428 271.879 272.988C272.103 273.532 272.215 274.132 272.215 274.788C272.215 276.212 271.607 277.348 270.391 278.196C272.391 279.22 273.391 280.812 273.391 282.972C273.391 283.772 273.247 284.516 272.959 285.204C272.671 285.892 272.279 286.492 271.783 287.004C271.287 287.516 270.695 287.924 270.007 288.228C269.335 288.516 268.615 288.66 267.847 288.66C266.999 288.66 266.231 288.524 265.543 288.252C264.855 287.98 264.255 287.588 263.743 287.076C263.247 286.564 262.855 285.948 262.567 285.228C262.279 284.508 262.119 283.7 262.087 282.804H263.839ZM275.483 276.852C275.483 274.724 275.987 273.1 276.995 271.98C278.003 270.86 279.475 270.3 281.411 270.3C283.331 270.3 284.803 270.868 285.827 272.004C286.851 273.124 287.363 274.74 287.363 276.852V281.892C287.363 286.404 285.427 288.66 281.555 288.66C279.555 288.66 278.043 288.092 277.019 286.956C275.995 285.804 275.483 284.116 275.483 281.892V276.852ZM277.235 281.604C277.235 283.444 277.579 284.812 278.267 285.708C278.955 286.604 280.027 287.052 281.483 287.052C282.923 287.052 283.971 286.62 284.627 285.756C285.283 284.876 285.611 283.492 285.611 281.604V277.26C285.611 273.692 284.219 271.908 281.435 271.908C278.635 271.908 277.235 273.692 277.235 277.26V281.604ZM297.374 270.612L293.198 276.78C293.582 276.588 293.926 276.46 294.23 276.396C294.534 276.316 294.878 276.276 295.262 276.276C296.062 276.276 296.806 276.436 297.494 276.756C298.182 277.06 298.774 277.492 299.27 278.052C299.782 278.596 300.182 279.244 300.47 279.996C300.774 280.732 300.926 281.524 300.926 282.372C300.926 283.284 300.774 284.124 300.47 284.892C300.182 285.66 299.766 286.324 299.222 286.884C298.694 287.444 298.062 287.884 297.326 288.204C296.606 288.508 295.814 288.66 294.95 288.66C294.07 288.66 293.254 288.508 292.502 288.204C291.766 287.884 291.126 287.452 290.582 286.908C290.038 286.348 289.606 285.692 289.286 284.94C288.982 284.188 288.83 283.372 288.83 282.492C288.83 282.044 288.862 281.636 288.926 281.268C288.99 280.884 289.094 280.492 289.238 280.092C289.398 279.692 289.614 279.26 289.886 278.796C290.158 278.316 290.51 277.764 290.942 277.14L295.334 270.612H297.374ZM294.926 287.052C295.55 287.052 296.118 286.94 296.63 286.716C297.142 286.492 297.582 286.18 297.95 285.78C298.334 285.364 298.63 284.876 298.838 284.316C299.046 283.756 299.15 283.14 299.15 282.468C299.15 281.796 299.046 281.18 298.838 280.62C298.63 280.044 298.334 279.556 297.95 279.156C297.582 278.756 297.134 278.444 296.606 278.22C296.078 277.996 295.494 277.884 294.854 277.884C294.262 277.884 293.702 278.004 293.174 278.244C292.662 278.468 292.214 278.788 291.83 279.204C291.446 279.604 291.142 280.084 290.918 280.644C290.71 281.188 290.606 281.788 290.606 282.444C290.606 283.1 290.71 283.716 290.918 284.292C291.142 284.852 291.446 285.34 291.83 285.756C292.214 286.156 292.67 286.476 293.198 286.716C293.726 286.94 294.302 287.052 294.926 287.052ZM301.986 283.5L310.626 270.612H312.714V283.5H314.346V285.108H312.714V288.348H310.962V285.108H301.986V283.5ZM310.962 283.5V273.06L304.026 283.5H310.962ZM316.989 270.612H326.685V272.22H318.765V278.58H326.421V280.188H318.765V286.74H326.685V288.348H316.989V270.612ZM329.218 283.188C329.218 282.116 329.474 281.172 329.986 280.356C330.498 279.54 331.242 278.9 332.218 278.436C331.498 278.02 330.97 277.532 330.634 276.972C330.314 276.396 330.154 275.7 330.154 274.884C330.154 274.228 330.274 273.62 330.514 273.06C330.754 272.5 331.082 272.02 331.498 271.62C331.93 271.204 332.434 270.884 333.01 270.66C333.586 270.42 334.21 270.3 334.882 270.3C335.57 270.3 336.194 270.412 336.754 270.636C337.33 270.86 337.826 271.18 338.242 271.596C338.658 271.996 338.978 272.476 339.202 273.036C339.442 273.596 339.562 274.212 339.562 274.884C339.562 276.596 338.858 277.78 337.45 278.436C338.442 278.868 339.194 279.484 339.706 280.284C340.234 281.084 340.498 282.028 340.498 283.116C340.498 283.932 340.354 284.676 340.066 285.348C339.794 286.02 339.41 286.604 338.914 287.1C338.434 287.596 337.85 287.98 337.162 288.252C336.49 288.524 335.746 288.66 334.93 288.66C334.114 288.66 333.354 288.524 332.65 288.252C331.962 287.964 331.362 287.58 330.85 287.1C330.338 286.604 329.938 286.028 329.65 285.372C329.362 284.7 329.218 283.972 329.218 283.188ZM334.93 277.692C335.346 277.692 335.722 277.62 336.058 277.476C336.41 277.332 336.714 277.132 336.97 276.876C337.226 276.604 337.426 276.292 337.57 275.94C337.714 275.588 337.786 275.204 337.786 274.788C337.786 273.924 337.514 273.228 336.97 272.7C336.426 272.172 335.706 271.908 334.81 271.908C333.962 271.908 333.266 272.18 332.722 272.724C332.194 273.252 331.93 273.932 331.93 274.764C331.93 275.18 332.002 275.572 332.146 275.94C332.306 276.292 332.522 276.604 332.794 276.876C333.066 277.132 333.378 277.332 333.73 277.476C334.098 277.62 334.498 277.692 334.93 277.692ZM330.994 283.236C330.994 283.78 331.09 284.292 331.282 284.772C331.474 285.236 331.746 285.636 332.098 285.972C332.45 286.308 332.858 286.572 333.322 286.764C333.802 286.956 334.33 287.052 334.906 287.052C335.466 287.052 335.978 286.956 336.442 286.764C336.906 286.572 337.306 286.308 337.642 285.972C337.978 285.62 338.242 285.212 338.434 284.748C338.626 284.268 338.722 283.74 338.722 283.164C338.722 282.604 338.626 282.092 338.434 281.628C338.242 281.148 337.97 280.74 337.618 280.404C337.282 280.068 336.874 279.812 336.394 279.636C335.914 279.444 335.386 279.348 334.81 279.348C334.25 279.348 333.738 279.444 333.274 279.636C332.81 279.828 332.41 280.1 332.074 280.452C331.738 280.788 331.474 281.196 331.282 281.676C331.09 282.14 330.994 282.66 330.994 283.236Z" fill="#89939E"/>
<rect x="486" width="388.293" height="312" rx="29.1624" fill="white"/>
<rect x="495.281" y="8.65234" width="369.832" height="156.417" rx="17.8288" fill="url(#paint2_linear_2317_26729)" fill-opacity="0.8"/>
<path d="M497.609 198.236C497.609 198.764 497.705 199.26 497.897 199.724C498.089 200.172 498.353 200.564 498.689 200.9C499.025 201.236 499.417 201.5 499.865 201.692C500.313 201.884 500.793 201.98 501.305 201.98C501.817 201.98 502.297 201.884 502.745 201.692C503.193 201.5 503.585 201.236 503.921 200.9C504.257 200.564 504.521 200.172 504.713 199.724C504.905 199.26 505.001 198.764 505.001 198.236C505.001 197.068 504.585 196.164 503.753 195.524C502.937 194.868 501.777 194.54 500.273 194.54V192.932C501.537 192.932 502.513 192.684 503.201 192.188C503.889 191.676 504.233 190.948 504.233 190.004C504.233 189.588 504.153 189.196 503.993 188.828C503.833 188.444 503.617 188.116 503.345 187.844C503.089 187.572 502.777 187.356 502.409 187.196C502.057 187.036 501.673 186.956 501.257 186.956C500.857 186.956 500.473 187.036 500.105 187.196C499.737 187.356 499.417 187.572 499.145 187.844C498.889 188.116 498.681 188.444 498.521 188.828C498.361 189.196 498.281 189.588 498.281 190.004H496.433C496.433 189.364 496.561 188.764 496.817 188.204C497.073 187.628 497.417 187.124 497.849 186.692C498.297 186.26 498.809 185.924 499.385 185.684C499.977 185.428 500.601 185.3 501.257 185.3C501.913 185.3 502.529 185.428 503.105 185.684C503.697 185.924 504.209 186.252 504.641 186.668C505.089 187.084 505.441 187.58 505.697 188.156C505.953 188.716 506.081 189.316 506.081 189.956C506.081 190.388 506.009 190.804 505.865 191.204C505.721 191.604 505.513 191.964 505.241 192.284C504.985 192.604 504.681 192.884 504.329 193.124C503.977 193.348 503.585 193.508 503.153 193.604C503.665 193.7 504.145 193.9 504.593 194.204C505.057 194.508 505.457 194.876 505.793 195.308C506.129 195.724 506.393 196.188 506.585 196.7C506.793 197.212 506.897 197.74 506.897 198.284C506.897 199.02 506.745 199.716 506.441 200.372C506.153 201.028 505.753 201.604 505.241 202.1C504.745 202.58 504.153 202.964 503.465 203.252C502.793 203.524 502.073 203.66 501.305 203.66C500.537 203.66 499.817 203.516 499.145 203.228C498.473 202.94 497.881 202.556 497.369 202.076C496.857 201.58 496.449 201.004 496.145 200.348C495.857 199.676 495.713 198.972 495.713 198.236H497.609ZM508.889 196.82C508.889 195.828 509.065 194.916 509.417 194.084C509.769 193.236 510.249 192.508 510.857 191.9C511.481 191.276 512.217 190.788 513.065 190.436C513.913 190.084 514.825 189.908 515.801 189.908C516.953 189.908 517.937 190.116 518.753 190.532C519.569 190.948 520.313 191.62 520.985 192.548V190.22H522.761V203.348H520.985V201.044C520.633 201.508 520.273 201.908 519.905 202.244C519.553 202.58 519.177 202.852 518.777 203.06C518.377 203.268 517.945 203.42 517.481 203.516C517.017 203.612 516.505 203.66 515.945 203.66C514.937 203.66 514.001 203.492 513.137 203.156C512.273 202.804 511.521 202.324 510.881 201.716C510.257 201.108 509.769 200.388 509.417 199.556C509.065 198.708 508.889 197.796 508.889 196.82ZM510.689 196.748C510.689 197.484 510.825 198.172 511.097 198.812C511.369 199.452 511.737 200.012 512.201 200.492C512.681 200.972 513.241 201.348 513.881 201.62C514.521 201.892 515.201 202.028 515.921 202.028C516.641 202.028 517.305 201.892 517.913 201.62C518.537 201.348 519.073 200.98 519.521 200.516C519.985 200.036 520.345 199.476 520.601 198.836C520.857 198.18 520.985 197.484 520.985 196.748C520.985 195.996 520.849 195.308 520.577 194.684C520.321 194.044 519.961 193.492 519.497 193.028C519.033 192.564 518.481 192.204 517.841 191.948C517.217 191.676 516.529 191.54 515.777 191.54C515.073 191.54 514.409 191.676 513.785 191.948C513.177 192.22 512.641 192.596 512.177 193.076C511.713 193.54 511.345 194.092 511.073 194.732C510.817 195.356 510.689 196.028 510.689 196.748ZM525.955 190.22H527.731V196.076L533.731 190.22H536.035L529.483 196.58L536.035 203.348H533.707L527.731 197.156V203.348H525.955V190.22ZM537.348 196.82C537.348 195.828 537.524 194.916 537.876 194.084C538.228 193.236 538.708 192.508 539.316 191.9C539.94 191.276 540.676 190.788 541.524 190.436C542.372 190.084 543.284 189.908 544.26 189.908C545.412 189.908 546.396 190.116 547.212 190.532C548.028 190.948 548.772 191.62 549.444 192.548V190.22H551.22V203.348H549.444V201.044C549.092 201.508 548.732 201.908 548.364 202.244C548.012 202.58 547.636 202.852 547.236 203.06C546.836 203.268 546.404 203.42 545.94 203.516C545.476 203.612 544.964 203.66 544.404 203.66C543.396 203.66 542.46 203.492 541.596 203.156C540.732 202.804 539.98 202.324 539.34 201.716C538.716 201.108 538.228 200.388 537.876 199.556C537.524 198.708 537.348 197.796 537.348 196.82ZM539.148 196.748C539.148 197.484 539.284 198.172 539.556 198.812C539.828 199.452 540.196 200.012 540.66 200.492C541.14 200.972 541.7 201.348 542.34 201.62C542.98 201.892 543.66 202.028 544.38 202.028C545.1 202.028 545.764 201.892 546.372 201.62C546.996 201.348 547.532 200.98 547.98 200.516C548.444 200.036 548.804 199.476 549.06 198.836C549.316 198.18 549.444 197.484 549.444 196.748C549.444 195.996 549.308 195.308 549.036 194.684C548.78 194.044 548.42 193.492 547.956 193.028C547.492 192.564 546.94 192.204 546.3 191.948C545.676 191.676 544.988 191.54 544.236 191.54C543.532 191.54 542.868 191.676 542.244 191.948C541.636 192.22 541.1 192.596 540.636 193.076C540.172 193.54 539.804 194.092 539.532 194.732C539.276 195.356 539.148 196.028 539.148 196.748ZM556.645 191.828H553.189V190.22H561.829V191.828H558.421V203.348H556.645V191.828ZM563.802 190.22H565.578V195.86H573.45V190.22H575.226V203.348H573.45V197.468H565.578V203.348H563.802V190.22ZM577.914 196.796C577.914 195.804 578.082 194.884 578.418 194.036C578.77 193.188 579.258 192.46 579.882 191.852C580.506 191.244 581.242 190.772 582.09 190.436C582.938 190.084 583.866 189.908 584.874 189.908C585.834 189.908 586.722 190.084 587.538 190.436C588.37 190.788 589.082 191.276 589.674 191.9C590.282 192.508 590.754 193.236 591.09 194.084C591.442 194.916 591.618 195.828 591.618 196.82C591.618 197.796 591.45 198.708 591.114 199.556C590.778 200.388 590.314 201.108 589.722 201.716C589.13 202.324 588.418 202.804 587.586 203.156C586.77 203.492 585.882 203.66 584.922 203.66C583.914 203.66 582.978 203.492 582.114 203.156C581.266 202.804 580.53 202.324 579.906 201.716C579.282 201.092 578.794 200.364 578.442 199.532C578.09 198.684 577.914 197.772 577.914 196.796ZM584.874 202.028C585.594 202.028 586.258 201.9 586.866 201.644C587.474 201.388 587.994 201.036 588.426 200.588C588.858 200.124 589.194 199.572 589.434 198.932C589.69 198.292 589.818 197.596 589.818 196.844C589.818 196.076 589.69 195.364 589.434 194.708C589.194 194.052 588.842 193.492 588.378 193.028C587.93 192.564 587.394 192.204 586.77 191.948C586.162 191.676 585.482 191.54 584.73 191.54C584.01 191.54 583.338 191.676 582.714 191.948C582.106 192.204 581.578 192.572 581.13 193.052C580.698 193.516 580.354 194.076 580.098 194.732C579.842 195.372 579.714 196.068 579.714 196.82C579.714 197.572 579.842 198.268 580.098 198.908C580.354 199.532 580.714 200.076 581.178 200.54C581.642 201.004 582.186 201.372 582.81 201.644C583.45 201.9 584.138 202.028 584.874 202.028ZM607.139 199.028C606.899 199.716 606.563 200.348 606.131 200.924C605.715 201.484 605.227 201.972 604.667 202.388C604.107 202.788 603.491 203.1 602.819 203.324C602.163 203.548 601.475 203.66 600.755 203.66C599.779 203.66 598.867 203.484 598.019 203.132C597.187 202.764 596.459 202.268 595.835 201.644C595.211 201.02 594.715 200.292 594.347 199.46C593.995 198.612 593.819 197.7 593.819 196.724C593.819 195.764 593.995 194.876 594.347 194.06C594.699 193.228 595.179 192.508 595.787 191.9C596.411 191.276 597.131 190.788 597.947 190.436C598.779 190.084 599.667 189.908 600.611 189.908C601.555 189.908 602.443 190.092 603.275 190.46C604.123 190.812 604.859 191.292 605.483 191.9C606.123 192.508 606.627 193.22 606.995 194.036C607.363 194.852 607.547 195.716 607.547 196.628C607.547 196.756 607.539 196.884 607.523 197.012C607.507 197.124 607.483 197.244 607.451 197.372H595.595C595.627 198.012 595.787 198.62 596.075 199.196C596.363 199.756 596.731 200.252 597.179 200.684C597.643 201.1 598.179 201.428 598.787 201.668C599.395 201.908 600.035 202.028 600.707 202.028C601.203 202.028 601.683 201.956 602.147 201.812C602.627 201.668 603.067 201.468 603.467 201.212C603.867 200.94 604.219 200.62 604.523 200.252C604.843 199.884 605.099 199.476 605.291 199.028H607.139ZM605.699 195.764C605.395 194.452 604.787 193.42 603.875 192.668C602.979 191.916 601.891 191.54 600.611 191.54C599.987 191.54 599.395 191.644 598.835 191.852C598.291 192.044 597.803 192.332 597.371 192.716C596.939 193.084 596.571 193.532 596.267 194.06C595.979 194.572 595.771 195.14 595.643 195.764H605.699ZM619.177 191.828H615.721V190.22H624.361V191.828H620.953V203.348H619.177V191.828ZM639.15 199.028C638.91 199.716 638.574 200.348 638.142 200.924C637.726 201.484 637.238 201.972 636.678 202.388C636.118 202.788 635.502 203.1 634.83 203.324C634.174 203.548 633.486 203.66 632.766 203.66C631.79 203.66 630.878 203.484 630.03 203.132C629.198 202.764 628.47 202.268 627.846 201.644C627.222 201.02 626.726 200.292 626.358 199.46C626.006 198.612 625.83 197.7 625.83 196.724C625.83 195.764 626.006 194.876 626.358 194.06C626.71 193.228 627.19 192.508 627.798 191.9C628.422 191.276 629.142 190.788 629.958 190.436C630.79 190.084 631.678 189.908 632.622 189.908C633.566 189.908 634.454 190.092 635.286 190.46C636.134 190.812 636.87 191.292 637.494 191.9C638.134 192.508 638.638 193.22 639.006 194.036C639.374 194.852 639.558 195.716 639.558 196.628C639.558 196.756 639.55 196.884 639.534 197.012C639.518 197.124 639.494 197.244 639.462 197.372H627.606C627.638 198.012 627.798 198.62 628.086 199.196C628.374 199.756 628.742 200.252 629.19 200.684C629.654 201.1 630.19 201.428 630.798 201.668C631.406 201.908 632.046 202.028 632.718 202.028C633.214 202.028 633.694 201.956 634.158 201.812C634.638 201.668 635.078 201.468 635.478 201.212C635.878 200.94 636.23 200.62 636.534 200.252C636.854 199.884 637.11 199.476 637.302 199.028H639.15ZM637.71 195.764C637.406 194.452 636.798 193.42 635.886 192.668C634.99 191.916 633.902 191.54 632.622 191.54C631.998 191.54 631.406 191.644 630.846 191.852C630.302 192.044 629.814 192.332 629.382 192.716C628.95 193.084 628.582 193.532 628.278 194.06C627.99 194.572 627.782 195.14 627.654 195.764H637.71ZM642.122 190.22H653.426V203.348H651.65V191.828H643.898V203.348H642.122V190.22ZM660.868 190.22H662.86L668.5 203.348H666.628L661.876 192.236L657.1 203.348H655.228L660.868 190.22ZM668.716 196.796C668.716 195.804 668.884 194.884 669.22 194.036C669.572 193.188 670.06 192.46 670.684 191.852C671.308 191.244 672.044 190.772 672.892 190.436C673.74 190.084 674.668 189.908 675.676 189.908C676.636 189.908 677.524 190.084 678.34 190.436C679.172 190.788 679.884 191.276 680.476 191.9C681.084 192.508 681.556 193.236 681.892 194.084C682.244 194.916 682.42 195.828 682.42 196.82C682.42 197.796 682.252 198.708 681.916 199.556C681.58 200.388 681.116 201.108 680.524 201.716C679.932 202.324 679.22 202.804 678.388 203.156C677.572 203.492 676.684 203.66 675.724 203.66C674.716 203.66 673.78 203.492 672.916 203.156C672.068 202.804 671.332 202.324 670.708 201.716C670.084 201.092 669.596 200.364 669.244 199.532C668.892 198.684 668.716 197.772 668.716 196.796ZM675.676 202.028C676.396 202.028 677.06 201.9 677.668 201.644C678.276 201.388 678.796 201.036 679.228 200.588C679.66 200.124 679.996 199.572 680.236 198.932C680.492 198.292 680.62 197.596 680.62 196.844C680.62 196.076 680.492 195.364 680.236 194.708C679.996 194.052 679.644 193.492 679.18 193.028C678.732 192.564 678.196 192.204 677.572 191.948C676.964 191.676 676.284 191.54 675.532 191.54C674.812 191.54 674.14 191.676 673.516 191.948C672.908 192.204 672.38 192.572 671.932 193.052C671.5 193.516 671.156 194.076 670.9 194.732C670.644 195.372 670.516 196.068 670.516 196.82C670.516 197.572 670.644 198.268 670.9 198.908C671.156 199.532 671.516 200.076 671.98 200.54C672.444 201.004 672.988 201.372 673.612 201.644C674.252 201.9 674.94 202.028 675.676 202.028ZM685.797 200.324H687.573V203.828C687.573 204.164 687.509 204.484 687.381 204.788C687.269 205.108 687.109 205.38 686.901 205.604C686.693 205.844 686.445 206.028 686.157 206.156C685.885 206.3 685.597 206.372 685.293 206.372V205.316C685.613 205.316 685.893 205.18 686.133 204.908C686.389 204.652 686.517 204.348 686.517 203.996V203.348H685.797V200.324ZM497.777 239.66H495.401V238.196H498.065L498.761 234.476H495.785V233.012H499.025L500.033 227.612H501.569L500.585 233.012H504.497L505.457 227.612H507.065L506.081 233.012H508.457V234.476H505.817L505.145 238.196H508.097V239.66H504.857L503.825 245.348H502.241L503.273 239.66H499.337L498.257 245.348H496.697L497.777 239.66ZM503.537 238.196L504.233 234.476H500.321L499.625 238.196H503.537ZM510.573 227.612H520.269V229.22H512.349V235.58H520.005V237.188H512.349V243.74H520.269V245.348H510.573V227.612ZM522.802 240.188C522.802 239.116 523.058 238.172 523.57 237.356C524.082 236.54 524.826 235.9 525.802 235.436C525.082 235.02 524.554 234.532 524.218 233.972C523.898 233.396 523.738 232.7 523.738 231.884C523.738 231.228 523.858 230.62 524.098 230.06C524.338 229.5 524.666 229.02 525.082 228.62C525.514 228.204 526.018 227.884 526.594 227.66C527.17 227.42 527.794 227.3 528.466 227.3C529.154 227.3 529.778 227.412 530.338 227.636C530.914 227.86 531.41 228.18 531.826 228.596C532.242 228.996 532.562 229.476 532.786 230.036C533.026 230.596 533.146 231.212 533.146 231.884C533.146 233.596 532.442 234.78 531.034 235.436C532.026 235.868 532.778 236.484 533.29 237.284C533.818 238.084 534.082 239.028 534.082 240.116C534.082 240.932 533.938 241.676 533.65 242.348C533.378 243.02 532.994 243.604 532.498 244.1C532.018 244.596 531.434 244.98 530.746 245.252C530.074 245.524 529.33 245.66 528.514 245.66C527.698 245.66 526.938 245.524 526.234 245.252C525.546 244.964 524.946 244.58 524.434 244.1C523.922 243.604 523.522 243.028 523.234 242.372C522.946 241.7 522.802 240.972 522.802 240.188ZM528.514 234.692C528.93 234.692 529.306 234.62 529.642 234.476C529.994 234.332 530.298 234.132 530.554 233.876C530.81 233.604 531.01 233.292 531.154 232.94C531.298 232.588 531.37 232.204 531.37 231.788C531.37 230.924 531.098 230.228 530.554 229.7C530.01 229.172 529.29 228.908 528.394 228.908C527.546 228.908 526.85 229.18 526.306 229.724C525.778 230.252 525.514 230.932 525.514 231.764C525.514 232.18 525.586 232.572 525.73 232.94C525.89 233.292 526.106 233.604 526.378 233.876C526.65 234.132 526.962 234.332 527.314 234.476C527.682 234.62 528.082 234.692 528.514 234.692ZM524.578 240.236C524.578 240.78 524.674 241.292 524.866 241.772C525.058 242.236 525.33 242.636 525.682 242.972C526.034 243.308 526.442 243.572 526.906 243.764C527.386 243.956 527.914 244.052 528.49 244.052C529.05 244.052 529.562 243.956 530.026 243.764C530.49 243.572 530.89 243.308 531.226 242.972C531.562 242.62 531.826 242.212 532.018 241.748C532.21 241.268 532.306 240.74 532.306 240.164C532.306 239.604 532.21 239.092 532.018 238.628C531.826 238.148 531.554 237.74 531.202 237.404C530.866 237.068 530.458 236.812 529.978 236.636C529.498 236.444 528.97 236.348 528.394 236.348C527.834 236.348 527.322 236.444 526.858 236.636C526.394 236.828 525.994 237.1 525.658 237.452C525.322 237.788 525.058 238.196 524.866 238.676C524.674 239.14 524.578 239.66 524.578 240.236ZM536.269 240.188C536.269 239.116 536.525 238.172 537.037 237.356C537.549 236.54 538.293 235.9 539.269 235.436C538.549 235.02 538.021 234.532 537.685 233.972C537.365 233.396 537.205 232.7 537.205 231.884C537.205 231.228 537.325 230.62 537.565 230.06C537.805 229.5 538.133 229.02 538.549 228.62C538.981 228.204 539.485 227.884 540.061 227.66C540.637 227.42 541.261 227.3 541.933 227.3C542.621 227.3 543.245 227.412 543.805 227.636C544.381 227.86 544.877 228.18 545.293 228.596C545.709 228.996 546.029 229.476 546.253 230.036C546.493 230.596 546.613 231.212 546.613 231.884C546.613 233.596 545.909 234.78 544.501 235.436C545.493 235.868 546.245 236.484 546.757 237.284C547.285 238.084 547.549 239.028 547.549 240.116C547.549 240.932 547.405 241.676 547.117 242.348C546.845 243.02 546.461 243.604 545.965 244.1C545.485 244.596 544.901 244.98 544.213 245.252C543.541 245.524 542.797 245.66 541.981 245.66C541.165 245.66 540.405 245.524 539.701 245.252C539.013 244.964 538.413 244.58 537.901 244.1C537.389 243.604 536.989 243.028 536.701 242.372C536.413 241.7 536.269 240.972 536.269 240.188ZM541.981 234.692C542.397 234.692 542.773 234.62 543.109 234.476C543.461 234.332 543.765 234.132 544.021 233.876C544.277 233.604 544.477 233.292 544.621 232.94C544.765 232.588 544.837 232.204 544.837 231.788C544.837 230.924 544.565 230.228 544.021 229.7C543.477 229.172 542.757 228.908 541.861 228.908C541.013 228.908 540.317 229.18 539.773 229.724C539.245 230.252 538.981 230.932 538.981 231.764C538.981 232.18 539.053 232.572 539.197 232.94C539.357 233.292 539.573 233.604 539.845 233.876C540.117 234.132 540.429 234.332 540.781 234.476C541.149 234.62 541.549 234.692 541.981 234.692ZM538.045 240.236C538.045 240.78 538.141 241.292 538.333 241.772C538.525 242.236 538.797 242.636 539.149 242.972C539.501 243.308 539.909 243.572 540.373 243.764C540.853 243.956 541.381 244.052 541.957 244.052C542.517 244.052 543.029 243.956 543.493 243.764C543.957 243.572 544.357 243.308 544.693 242.972C545.029 242.62 545.293 242.212 545.485 241.748C545.677 241.268 545.773 240.74 545.773 240.164C545.773 239.604 545.677 239.092 545.485 238.628C545.293 238.148 545.021 237.74 544.669 237.404C544.333 237.068 543.925 236.812 543.445 236.636C542.965 236.444 542.437 236.348 541.861 236.348C541.301 236.348 540.789 236.444 540.325 236.636C539.861 236.828 539.461 237.1 539.125 237.452C538.789 237.788 538.525 238.196 538.333 238.676C538.141 239.14 538.045 239.66 538.045 240.236ZM567.209 240.692C565.417 244.004 562.713 245.66 559.097 245.66C557.769 245.66 556.537 245.428 555.401 244.964C554.265 244.5 553.281 243.86 552.449 243.044C551.617 242.228 550.961 241.268 550.481 240.164C550.017 239.044 549.785 237.836 549.785 236.54C549.785 235.212 550.017 233.988 550.481 232.868C550.945 231.732 551.585 230.756 552.401 229.94C553.217 229.108 554.185 228.46 555.305 227.996C556.441 227.532 557.665 227.3 558.977 227.3C559.889 227.3 560.761 227.412 561.593 227.636C562.441 227.86 563.217 228.188 563.921 228.62C564.625 229.036 565.249 229.548 565.793 230.156C566.353 230.764 566.801 231.452 567.137 232.22H565.145C563.769 230.028 561.737 228.932 559.049 228.932C557.993 228.932 557.009 229.124 556.097 229.508C555.185 229.892 554.393 230.42 553.721 231.092C553.049 231.764 552.521 232.564 552.137 233.492C551.769 234.404 551.585 235.396 551.585 236.468C551.585 237.508 551.777 238.492 552.161 239.42C552.561 240.332 553.097 241.132 553.769 241.82C554.457 242.492 555.257 243.028 556.169 243.428C557.081 243.828 558.049 244.028 559.073 244.028C560.321 244.028 561.441 243.764 562.433 243.236C563.425 242.692 564.361 241.844 565.241 240.692H567.209ZM570.975 239.804C571.071 241.164 571.463 242.212 572.151 242.948C572.839 243.684 573.759 244.052 574.911 244.052C575.455 244.052 575.959 243.956 576.423 243.764C576.903 243.556 577.311 243.276 577.647 242.924C577.999 242.556 578.271 242.132 578.463 241.652C578.655 241.156 578.751 240.628 578.751 240.068C578.751 238.772 578.351 237.78 577.551 237.092C576.767 236.388 575.623 236.036 574.119 236.036H573.687V234.452H575.199C575.535 234.452 575.847 234.38 576.135 234.236C576.423 234.092 576.671 233.9 576.879 233.66C577.103 233.404 577.271 233.108 577.383 232.772C577.511 232.436 577.575 232.076 577.575 231.692C577.575 230.876 577.327 230.212 576.831 229.7C576.335 229.172 575.687 228.908 574.887 228.908C574.023 228.908 573.351 229.18 572.871 229.724C572.407 230.252 572.167 231.02 572.151 232.028H570.399C570.447 230.572 570.871 229.42 571.671 228.572C572.471 227.724 573.543 227.3 574.887 227.3C575.543 227.3 576.143 227.412 576.687 227.636C577.247 227.844 577.719 228.148 578.103 228.548C578.503 228.948 578.807 229.428 579.015 229.988C579.239 230.532 579.351 231.132 579.351 231.788C579.351 233.212 578.743 234.348 577.527 235.196C579.527 236.22 580.527 237.812 580.527 239.972C580.527 240.772 580.383 241.516 580.095 242.204C579.807 242.892 579.415 243.492 578.919 244.004C578.423 244.516 577.831 244.924 577.143 245.228C576.471 245.516 575.751 245.66 574.983 245.66C574.135 245.66 573.367 245.524 572.679 245.252C571.991 244.98 571.391 244.588 570.879 244.076C570.383 243.564 569.991 242.948 569.703 242.228C569.415 241.508 569.255 240.7 569.223 239.804H570.975ZM582.618 233.852C582.618 231.724 583.122 230.1 584.13 228.98C585.138 227.86 586.61 227.3 588.546 227.3C590.466 227.3 591.938 227.868 592.962 229.004C593.986 230.124 594.498 231.74 594.498 233.852V238.892C594.498 243.404 592.562 245.66 588.69 245.66C586.69 245.66 585.178 245.092 584.154 243.956C583.13 242.804 582.618 241.116 582.618 238.892V233.852ZM584.37 238.604C584.37 240.444 584.714 241.812 585.402 242.708C586.09 243.604 587.162 244.052 588.618 244.052C590.058 244.052 591.106 243.62 591.762 242.756C592.418 241.876 592.746 240.492 592.746 238.604V234.26C592.746 230.692 591.354 228.908 588.57 228.908C585.77 228.908 584.37 230.692 584.37 234.26V238.604ZM497.777 282.66H495.401V281.196H498.065L498.761 277.476H495.785V276.012H499.025L500.033 270.612H501.569L500.585 276.012H504.497L505.457 270.612H507.065L506.081 276.012H508.457V277.476H505.817L505.145 281.196H508.097V282.66H504.857L503.825 288.348H502.241L503.273 282.66H499.337L498.257 288.348H496.697L497.777 282.66ZM503.537 281.196L504.233 277.476H500.321L499.625 281.196H503.537ZM516.621 270.612H518.613L526.245 288.348H524.301L521.733 282.372H513.477L510.885 288.348H509.013L516.621 270.612ZM521.037 280.764L517.629 272.628L514.149 280.764H521.037ZM528.517 270.612H532.669C534.733 270.612 536.261 270.988 537.253 271.74C538.245 272.492 538.741 273.652 538.741 275.22C538.741 276.116 538.581 276.86 538.261 277.452C537.941 278.028 537.445 278.508 536.773 278.892C537.813 279.324 538.565 279.884 539.029 280.572C539.509 281.26 539.749 282.156 539.749 283.26C539.749 285.004 539.197 286.292 538.093 287.124C537.005 287.94 535.277 288.348 532.909 288.348H528.517V270.612ZM532.717 286.74C534.557 286.74 535.885 286.476 536.701 285.948C537.533 285.42 537.949 284.556 537.949 283.356C537.949 282.252 537.565 281.396 536.797 280.788C536.045 280.164 534.989 279.852 533.629 279.852H530.293V286.74H532.717ZM533.677 278.244C534.797 278.244 535.621 278.004 536.149 277.524C536.677 277.044 536.941 276.284 536.941 275.244C536.941 274.684 536.861 274.212 536.701 273.828C536.541 273.444 536.277 273.132 535.909 272.892C535.557 272.652 535.093 272.484 534.517 272.388C533.941 272.276 533.245 272.22 532.429 272.22H530.293V278.244H533.677ZM543.196 282.804C543.292 284.164 543.684 285.212 544.372 285.948C545.06 286.684 545.98 287.052 547.132 287.052C547.676 287.052 548.18 286.956 548.644 286.764C549.124 286.556 549.532 286.276 549.868 285.924C550.22 285.556 550.492 285.132 550.684 284.652C550.876 284.156 550.972 283.628 550.972 283.068C550.972 281.772 550.572 280.78 549.772 280.092C548.988 279.388 547.844 279.036 546.34 279.036H545.908V277.452H547.42C547.756 277.452 548.068 277.38 548.356 277.236C548.644 277.092 548.892 276.9 549.1 276.66C549.324 276.404 549.492 276.108 549.604 275.772C549.732 275.436 549.796 275.076 549.796 274.692C549.796 273.876 549.548 273.212 549.052 272.7C548.556 272.172 547.908 271.908 547.108 271.908C546.244 271.908 545.572 272.18 545.092 272.724C544.628 273.252 544.388 274.02 544.372 275.028H542.62C542.668 273.572 543.092 272.42 543.892 271.572C544.692 270.724 545.764 270.3 547.108 270.3C547.764 270.3 548.364 270.412 548.908 270.636C549.468 270.844 549.94 271.148 550.324 271.548C550.724 271.948 551.028 272.428 551.236 272.988C551.46 273.532 551.572 274.132 551.572 274.788C551.572 276.212 550.964 277.348 549.748 278.196C551.748 279.22 552.748 280.812 552.748 282.972C552.748 283.772 552.604 284.516 552.316 285.204C552.028 285.892 551.636 286.492 551.14 287.004C550.644 287.516 550.052 287.924 549.364 288.228C548.692 288.516 547.972 288.66 547.204 288.66C546.356 288.66 545.588 288.524 544.9 288.252C544.212 287.98 543.612 287.588 543.1 287.076C542.604 286.564 542.212 285.948 541.924 285.228C541.636 284.508 541.476 283.7 541.444 282.804H543.196ZM554.839 276.852C554.839 274.724 555.343 273.1 556.351 271.98C557.359 270.86 558.831 270.3 560.767 270.3C562.687 270.3 564.159 270.868 565.183 272.004C566.207 273.124 566.719 274.74 566.719 276.852V281.892C566.719 286.404 564.783 288.66 560.911 288.66C558.911 288.66 557.399 288.092 556.375 286.956C555.351 285.804 554.839 284.116 554.839 281.892V276.852ZM556.591 281.604C556.591 283.444 556.935 284.812 557.623 285.708C558.311 286.604 559.383 287.052 560.839 287.052C562.279 287.052 563.327 286.62 563.983 285.756C564.639 284.876 564.967 283.492 564.967 281.604V277.26C564.967 273.692 563.575 271.908 560.791 271.908C557.991 271.908 556.591 273.692 556.591 277.26V281.604ZM569.411 270.612H579.107V272.22H571.187V278.58H578.843V280.188H571.187V286.74H579.107V288.348H569.411V270.612ZM581.64 283.188C581.64 282.116 581.896 281.172 582.408 280.356C582.92 279.54 583.664 278.9 584.64 278.436C583.92 278.02 583.392 277.532 583.056 276.972C582.736 276.396 582.576 275.7 582.576 274.884C582.576 274.228 582.696 273.62 582.936 273.06C583.176 272.5 583.504 272.02 583.92 271.62C584.352 271.204 584.856 270.884 585.432 270.66C586.008 270.42 586.632 270.3 587.304 270.3C587.992 270.3 588.616 270.412 589.176 270.636C589.752 270.86 590.248 271.18 590.664 271.596C591.08 271.996 591.4 272.476 591.624 273.036C591.864 273.596 591.984 274.212 591.984 274.884C591.984 276.596 591.28 277.78 589.872 278.436C590.864 278.868 591.616 279.484 592.128 280.284C592.656 281.084 592.92 282.028 592.92 283.116C592.92 283.932 592.776 284.676 592.488 285.348C592.216 286.02 591.832 286.604 591.336 287.1C590.856 287.596 590.272 287.98 589.584 288.252C588.912 288.524 588.168 288.66 587.352 288.66C586.536 288.66 585.776 288.524 585.072 288.252C584.384 287.964 583.784 287.58 583.272 287.1C582.76 286.604 582.36 286.028 582.072 285.372C581.784 284.7 581.64 283.972 581.64 283.188ZM587.352 277.692C587.768 277.692 588.144 277.62 588.48 277.476C588.832 277.332 589.136 277.132 589.392 276.876C589.648 276.604 589.848 276.292 589.992 275.94C590.136 275.588 590.208 275.204 590.208 274.788C590.208 273.924 589.936 273.228 589.392 272.7C588.848 272.172 588.128 271.908 587.232 271.908C586.384 271.908 585.688 272.18 585.144 272.724C584.616 273.252 584.352 273.932 584.352 274.764C584.352 275.18 584.424 275.572 584.568 275.94C584.728 276.292 584.944 276.604 585.216 276.876C585.488 277.132 585.8 277.332 586.152 277.476C586.52 277.62 586.92 277.692 587.352 277.692ZM583.416 283.236C583.416 283.78 583.512 284.292 583.704 284.772C583.896 285.236 584.168 285.636 584.52 285.972C584.872 286.308 585.28 286.572 585.744 286.764C586.224 286.956 586.752 287.052 587.328 287.052C587.888 287.052 588.4 286.956 588.864 286.764C589.328 286.572 589.728 286.308 590.064 285.972C590.4 285.62 590.664 285.212 590.856 284.748C591.048 284.268 591.144 283.74 591.144 283.164C591.144 282.604 591.048 282.092 590.856 281.628C590.664 281.148 590.392 280.74 590.04 280.404C589.704 280.068 589.296 279.812 588.816 279.636C588.336 279.444 587.808 279.348 587.232 279.348C586.672 279.348 586.16 279.444 585.696 279.636C585.232 279.828 584.832 280.1 584.496 280.452C584.16 280.788 583.896 281.196 583.704 281.676C583.512 282.14 583.416 282.66 583.416 283.236Z" fill="#89939E"/>
<defs>
<linearGradient id="paint0_linear_2317_26729" x1="355.402" y1="82.3638" x2="101.427" y2="-70.5242" gradientUnits="userSpaceOnUse">
<stop stop-color="#6739FF"/>
<stop offset="1" stop-color="#1BA3EA"/>
</linearGradient>
<linearGradient id="paint1_linear_2317_26729" x1="378.207" y1="78.7599" x2="617.66" y2="78.7599" gradientUnits="userSpaceOnUse">
<stop stop-color="#30E8E2"/>
<stop offset="0.549" stop-color="#3064E8"/>
<stop offset="1" stop-color="#2D0071"/>
</linearGradient>
<linearGradient id="paint2_linear_2317_26729" x1="696.034" y1="81.8564" x2="397.472" y2="81.8564" gradientUnits="userSpaceOnUse">
<stop stop-color="#E88C30"/>
<stop offset="0.549" stop-color="#AB30E8"/>
<stop offset="1" stop-color="#080A4C"/>
</linearGradient>
</defs>
</svg>
