<svg width="866" height="792" viewBox="0 0 866 792" fill="none" xmlns="http://www.w3.org/2000/svg">
<path d="M425 425.067C425 415.641 432.641 408 442.067 408H813.933C823.359 408 831 415.641 831 425.067V774.933C831 784.359 823.359 792 813.933 792H442.067C432.641 792 425 784.359 425 774.933V425.067Z" fill="url(#paint0_linear_2317_26853)" fill-opacity="0.14"/>
<g opacity="0.8" filter="url(#filter0_f_2317_26853)">
<g filter="url(#filter1_f_2317_26853)">
<path d="M705.898 528.096C707.107 492.862 613.35 519.519 566.321 537.251C527.891 578.922 646.059 673.924 652.155 630.125C661.705 561.516 646.626 556.712 705.898 528.096Z" fill="#E8D930"/>
<path d="M702.038 492.093C701.301 518.497 675.82 615.563 652.728 606.091C652.471 679.151 741.119 590.082 743.684 588.387C681.197 584.057 716.961 514.037 702.038 492.093Z" fill="#B0EA69"/>
</g>
<g style="mix-blend-mode:color-dodge" filter="url(#filter2_f_2317_26853)">
<path d="M757.234 562.924C758.443 527.69 664.686 554.347 617.657 572.079C579.227 613.75 697.395 708.752 703.491 664.953C713.041 596.344 697.962 591.54 757.234 562.924Z" fill="#E8D930"/>
<path d="M671.061 484.443C670.324 510.847 644.844 607.913 621.751 598.441C621.494 671.5 710.142 582.432 712.708 580.736C650.221 576.407 685.984 506.386 671.061 484.443Z" fill="#B0EA69"/>
</g>
</g>
<rect x="1" y="408" width="405" height="384" rx="17.0667" fill="url(#paint1_linear_2317_26853)" fill-opacity="0.14"/>
<g opacity="0.8" filter="url(#filter3_f_2317_26853)">
<g filter="url(#filter4_f_2317_26853)">
<path d="M282.181 490.374C285.486 443.066 182.455 510.826 130.526 550.62C86.5535 619.309 209.127 705.054 218.209 644.665C232.435 550.069 216.38 548.866 282.181 490.374Z" fill="#37E7FF"/>
<path d="M280.045 443.776C277.752 479.17 244.663 617.123 220.195 612.469C215.779 709.789 316.813 560.728 319.687 557.588C252.27 573.342 294.961 467.841 280.045 443.776Z" fill="#12158B"/>
</g>
<g style="mix-blend-mode:color-dodge" filter="url(#filter5_f_2317_26853)">
<path d="M341.728 529.882C345.033 482.574 242.001 550.334 190.072 590.127C146.1 658.817 268.674 744.562 277.756 684.173C291.982 589.576 275.927 588.374 341.728 529.882Z" fill="#37E7FF"/>
<path d="M252.873 455.1C250.58 490.494 217.492 628.448 193.023 623.794C188.607 721.113 289.641 572.052 292.515 568.912C225.098 584.666 267.79 479.165 252.873 455.1Z" fill="#12158B"/>
</g>
</g>
<path d="M0 17.0666C0 7.64098 7.64101 0 17.0667 0H394.933C404.359 0 412 7.64101 412 17.0667V366.933C412 376.359 404.359 384 394.933 384H17.0667C7.64099 384 0 376.359 0 366.933V17.0666Z" fill="url(#paint2_linear_2317_26853)" fill-opacity="0.14"/>
<g opacity="0.8" filter="url(#filter6_f_2317_26853)">
<g filter="url(#filter7_f_2317_26853)">
<path d="M283.541 141.986C270.793 194.457 89.9714 235.62 86.9451 235.659C-28.4751 248.206 142.037 99.0869 145.579 94.918C131.333 188.862 253.935 123.03 283.541 141.986Z" fill="#B0EA69"/>
<path d="M283.516 193.624C305.284 212.212 225.449 252.532 182.811 270.369C131.814 270.057 155.996 148.81 186.19 169.226C233.488 201.207 256.306 170.389 283.516 193.624Z" fill="#BAFF65"/>
<path d="M269.234 196.294C294.643 216.366 200.264 259.793 149.898 278.998C99.7509 298.161 140.018 124.399 148.338 174.803C156.658 225.208 237.473 171.203 269.234 196.294Z" fill="#E83033"/>
<path d="M264.908 201.141C257.784 230.33 157.238 253.351 155.556 253.375C91.3864 260.436 186.278 177.385 188.251 175.064C180.264 227.319 248.464 190.62 264.908 201.141Z" fill="#EB1B1B"/>
<path d="M282.988 156.982C298.099 167.34 223.421 198.885 184.193 213.363C167.927 219.572 177.006 190.416 176.957 152.608C176.909 114.8 201.351 124.039 225.253 146.326C249.155 168.612 264.099 144.033 282.988 156.982Z" fill="#D50000"/>
<path d="M338.638 130.895C341.886 136.957 268.051 165.921 230.727 179.645C235.938 147.789 249.472 88.6933 261.922 107.154C277.484 130.229 300.571 130.881 310.368 129.136C320.165 127.391 334.578 123.317 338.638 130.895Z" fill="white"/>
</g>
<g style="mix-blend-mode:color-dodge" filter="url(#filter8_f_2317_26853)">
<path d="M360.933 145.001C337.43 195.299 159.508 194.699 156.674 194.029C46.1405 179.705 238.306 68.2511 242.535 64.848C208.463 156.913 337.483 118.807 360.933 145.001Z" fill="#B0EA69"/>
<path d="M275.313 209.606C297.081 228.194 217.246 268.515 174.608 286.351C123.61 286.04 147.792 164.792 177.987 185.209C225.285 217.19 248.103 186.371 275.313 209.606Z" fill="#BAFF65"/>
<path d="M332.362 111.267C349.388 114.424 253.084 153.967 213.025 193.971C162.878 213.134 203.146 39.372 211.465 89.7766C219.785 140.181 290.96 103.589 332.362 111.267Z" fill="#E83033"/>
<path d="M282.039 236.755C268.097 264.424 169.803 260.752 168.25 260.324C107.45 250.246 215.745 191.563 218.146 189.74C197.57 240.553 269.581 221.676 282.039 236.755Z" fill="#EB1B1B"/>
<path d="M240.923 127.811C260.486 128.019 204.312 191.328 173.779 222.956C161.219 236.23 155.651 208.844 137.094 179.469C118.537 150.094 146.501 144.586 180.336 149.505C214.17 154.423 216.468 127.55 240.923 127.811Z" fill="#D50000"/>
<path d="M374.642 146.624C377.992 152.616 304.401 182.7 267.187 196.993C271.922 165.147 284.583 106.005 297.351 124.207C313.311 146.96 336.471 147.233 346.268 145.333C356.064 143.433 370.454 139.135 374.642 146.624Z" fill="white"/>
</g>
</g>
<path d="M431 17.0666C431 7.64098 438.641 0 448.067 0H819.933C829.359 0 837 7.64101 837 17.0667V366.933C837 376.359 829.359 384 819.933 384H448.067C438.641 384 431 376.359 431 366.933V17.0666Z" fill="url(#paint3_linear_2317_26853)" fill-opacity="0.14"/>
<g opacity="0.8" filter="url(#filter9_f_2317_26853)">
<g filter="url(#filter10_f_2317_26853)">
<path d="M765.732 172.221C816.191 141.076 667.214 95.5351 586.418 76.6576C482.585 85.9525 491.447 260.309 559.654 225.012C666.497 169.722 655.185 154.129 765.732 172.221Z" fill="#AB30E8"/>
<path d="M811.226 136.61C773.614 160.076 608.171 229.389 593.788 203.587C491.844 269.841 721.548 254.818 726.969 255.185C658.418 204.737 798.509 167.675 811.226 136.61Z" fill="#E88C30"/>
</g>
<g style="mix-blend-mode:color-dodge" filter="url(#filter11_f_2317_26853)">
<path d="M772.263 255.404C822.722 224.26 673.745 178.719 592.95 159.841C489.116 169.136 497.978 343.493 566.186 308.196C673.028 252.905 661.717 237.313 772.263 255.404Z" fill="#AB30E8"/>
<path d="M778.625 119.895C741.013 143.361 575.569 212.674 561.186 186.872C459.243 253.127 688.946 238.103 694.367 238.47C625.816 188.023 765.907 150.96 778.625 119.895Z" fill="#E88C30"/>
</g>
</g>
<defs>
<filter id="filter0_f_2317_26853" x="541.582" y="467.377" width="232.727" height="225.924" filterUnits="userSpaceOnUse" color-interpolation-filters="sRGB">
<feFlood flood-opacity="0" result="BackgroundImageFix"/>
<feBlend mode="normal" in="SourceGraphic" in2="BackgroundImageFix" result="shape"/>
<feGaussianBlur stdDeviation="8.53333" result="effect1_foregroundBlur_2317_26853"/>
</filter>
<filter id="filter1_f_2317_26853" x="526.272" y="459.717" width="249.793" height="214.066" filterUnits="userSpaceOnUse" color-interpolation-filters="sRGB">
<feFlood flood-opacity="0" result="BackgroundImageFix"/>
<feBlend mode="normal" in="SourceGraphic" in2="BackgroundImageFix" result="shape"/>
<feGaussianBlur stdDeviation="16.1884" result="effect1_foregroundBlur_2317_26853"/>
</filter>
<filter id="filter2_f_2317_26853" x="577.608" y="452.067" width="212.011" height="256.544" filterUnits="userSpaceOnUse" color-interpolation-filters="sRGB">
<feFlood flood-opacity="0" result="BackgroundImageFix"/>
<feBlend mode="normal" in="SourceGraphic" in2="BackgroundImageFix" result="shape"/>
<feGaussianBlur stdDeviation="16.1884" result="effect1_foregroundBlur_2317_26853"/>
</filter>
<filter id="filter3_f_2317_26853" x="103.965" y="426.709" width="254.907" height="295.016" filterUnits="userSpaceOnUse" color-interpolation-filters="sRGB">
<feFlood flood-opacity="0" result="BackgroundImageFix"/>
<feBlend mode="normal" in="SourceGraphic" in2="BackgroundImageFix" result="shape"/>
<feGaussianBlur stdDeviation="8.53333" result="effect1_foregroundBlur_2317_26853"/>
</filter>
<filter id="filter4_f_2317_26853" x="103.53" y="426.275" width="233.658" height="256.377" filterUnits="userSpaceOnUse" color-interpolation-filters="sRGB">
<feFlood flood-opacity="0" result="BackgroundImageFix"/>
<feBlend mode="normal" in="SourceGraphic" in2="BackgroundImageFix" result="shape"/>
<feGaussianBlur stdDeviation="8.75042" result="effect1_foregroundBlur_2317_26853"/>
</filter>
<filter id="filter5_f_2317_26853" x="163.077" y="437.599" width="196.228" height="284.56" filterUnits="userSpaceOnUse" color-interpolation-filters="sRGB">
<feFlood flood-opacity="0" result="BackgroundImageFix"/>
<feBlend mode="normal" in="SourceGraphic" in2="BackgroundImageFix" result="shape"/>
<feGaussianBlur stdDeviation="8.75042" result="effect1_foregroundBlur_2317_26853"/>
</filter>
<filter id="filter6_f_2317_26853" x="29.8474" y="47.781" width="361.969" height="255.637" filterUnits="userSpaceOnUse" color-interpolation-filters="sRGB">
<feFlood flood-opacity="0" result="BackgroundImageFix"/>
<feBlend mode="normal" in="SourceGraphic" in2="BackgroundImageFix" result="shape"/>
<feGaussianBlur stdDeviation="8.53333" result="effect1_foregroundBlur_2317_26853"/>
</filter>
<filter id="filter7_f_2317_26853" x="23.8859" y="71.8898" width="337.884" height="231.619" filterUnits="userSpaceOnUse" color-interpolation-filters="sRGB">
<feFlood flood-opacity="0" result="BackgroundImageFix"/>
<feBlend mode="normal" in="SourceGraphic" in2="BackgroundImageFix" result="shape"/>
<feGaussianBlur stdDeviation="11.5141" result="effect1_foregroundBlur_2317_26853"/>
</filter>
<filter id="filter8_f_2317_26853" x="99.4172" y="41.8195" width="298.361" height="267.56" filterUnits="userSpaceOnUse" color-interpolation-filters="sRGB">
<feFlood flood-opacity="0" result="BackgroundImageFix"/>
<feBlend mode="normal" in="SourceGraphic" in2="BackgroundImageFix" result="shape"/>
<feGaussianBlur stdDeviation="11.5141" result="effect1_foregroundBlur_2317_26853"/>
</filter>
<filter id="filter9_f_2317_26853" x="491.277" y="59.5915" width="337.016" height="270.381" filterUnits="userSpaceOnUse" color-interpolation-filters="sRGB">
<feFlood flood-opacity="0" result="BackgroundImageFix"/>
<feBlend mode="normal" in="SourceGraphic" in2="BackgroundImageFix" result="shape"/>
<feGaussianBlur stdDeviation="8.53333" result="effect1_foregroundBlur_2317_26853"/>
</filter>
<filter id="filter10_f_2317_26853" x="454.136" y="22.45" width="411.299" height="288.161" filterUnits="userSpaceOnUse" color-interpolation-filters="sRGB">
<feFlood flood-opacity="0" result="BackgroundImageFix"/>
<feBlend mode="normal" in="SourceGraphic" in2="BackgroundImageFix" result="shape"/>
<feGaussianBlur stdDeviation="27.1041" result="effect1_foregroundBlur_2317_26853"/>
</filter>
<filter id="filter11_f_2317_26853" x="460.667" y="65.6863" width="376.002" height="301.428" filterUnits="userSpaceOnUse" color-interpolation-filters="sRGB">
<feFlood flood-opacity="0" result="BackgroundImageFix"/>
<feBlend mode="normal" in="SourceGraphic" in2="BackgroundImageFix" result="shape"/>
<feGaussianBlur stdDeviation="27.1041" result="effect1_foregroundBlur_2317_26853"/>
</filter>
<linearGradient id="paint0_linear_2317_26853" x1="425" y1="600" x2="831" y2="600" gradientUnits="userSpaceOnUse">
<stop stop-color="#3B37FF"/>
<stop offset="1" stop-color="#060D17" stop-opacity="0.78"/>
</linearGradient>
<linearGradient id="paint1_linear_2317_26853" x1="1" y1="600" x2="406" y2="600" gradientUnits="userSpaceOnUse">
<stop stop-color="#3B37FF"/>
<stop offset="1" stop-color="#060D17" stop-opacity="0.78"/>
</linearGradient>
<linearGradient id="paint2_linear_2317_26853" x1="0" y1="192" x2="412" y2="192" gradientUnits="userSpaceOnUse">
<stop stop-color="#3B37FF"/>
<stop offset="1" stop-color="#060D17" stop-opacity="0.78"/>
</linearGradient>
<linearGradient id="paint3_linear_2317_26853" x1="431" y1="192" x2="837" y2="192" gradientUnits="userSpaceOnUse">
<stop stop-color="#3B37FF"/>
<stop offset="1" stop-color="#060D17" stop-opacity="0.78"/>
</linearGradient>
</defs>
</svg>
