<svg width="900" height="384" viewBox="0 0 900 384" fill="none" xmlns="http://www.w3.org/2000/svg">
<path d="M0 17.0666C0 7.64098 7.64101 0 17.0667 0H394.933C404.359 0 412 7.64101 412 17.0667V366.933C412 376.359 404.359 384 394.933 384H17.0667C7.64099 384 0 376.359 0 366.933V17.0666Z" fill="white"/>
<g opacity="0.8" filter="url(#filter0_f_2317_26856)">
<g filter="url(#filter1_f_2317_26856)">
<path d="M283.541 141.984C270.793 194.455 89.9714 235.618 86.9451 235.657C-28.4751 248.204 142.037 99.085 145.579 94.916C131.333 188.86 253.935 123.028 283.541 141.984Z" fill="#B0EA69"/>
<path d="M283.516 193.622C305.284 212.21 225.449 252.53 182.811 270.367C131.814 270.055 155.996 148.808 186.19 169.224C233.488 201.205 256.306 170.387 283.516 193.622Z" fill="#BAFF65"/>
<path d="M269.234 196.292C294.643 216.364 200.264 259.791 149.898 278.996C99.7509 298.159 140.018 124.397 148.338 174.801C156.658 225.206 237.473 171.201 269.234 196.292Z" fill="#E83033"/>
<path d="M264.908 201.139C257.784 230.328 157.238 253.349 155.556 253.373C91.3864 260.434 186.278 177.383 188.251 175.062C180.264 227.317 248.464 190.618 264.908 201.139Z" fill="#EB1B1B"/>
<path d="M282.988 156.98C298.099 167.338 223.421 198.883 184.193 213.361C167.927 219.57 177.006 190.414 176.957 152.606C176.909 114.799 201.351 124.037 225.253 146.324C249.155 168.61 264.099 144.031 282.988 156.98Z" fill="#D50000"/>
<path d="M338.638 130.893C341.886 136.955 268.051 165.919 230.727 179.643C235.938 147.787 249.472 88.6913 261.922 107.152C277.484 130.227 300.571 130.879 310.368 129.134C320.165 127.389 334.578 123.315 338.638 130.893Z" fill="white"/>
</g>
<g style="mix-blend-mode:color-dodge" filter="url(#filter2_f_2317_26856)">
<path d="M360.933 145.003C337.43 195.301 159.508 194.701 156.674 194.031C46.1405 179.706 238.306 68.2531 242.535 64.8499C208.463 156.915 337.483 118.809 360.933 145.003Z" fill="#B0EA69"/>
<path d="M275.305 209.608C297.073 228.196 217.238 268.516 174.6 286.353C123.603 286.042 147.785 164.794 177.979 185.21C225.278 217.192 248.095 186.373 275.305 209.608Z" fill="#BAFF65"/>
<path d="M332.362 111.269C349.388 114.426 253.084 153.969 213.025 193.973C162.878 213.136 203.146 39.374 211.465 89.7785C219.785 140.183 290.96 103.591 332.362 111.269Z" fill="#E83033"/>
<path d="M282.039 236.757C268.097 264.426 169.803 260.754 168.25 260.326C107.45 250.248 215.745 191.565 218.146 189.742C197.57 240.555 269.581 221.678 282.039 236.757Z" fill="#EB1B1B"/>
<path d="M240.915 127.813C260.478 128.021 204.304 191.33 173.771 222.958C161.211 236.232 155.644 208.846 137.087 179.471C118.53 150.096 146.494 144.588 180.328 149.507C214.162 154.425 216.46 127.552 240.915 127.813Z" fill="#D50000"/>
<path d="M374.642 146.626C377.992 152.618 304.401 182.702 267.187 196.995C271.922 165.149 284.583 106.007 297.351 124.209C313.311 146.962 336.471 147.234 346.268 145.335C356.064 143.435 370.454 139.137 374.642 146.626Z" fill="white"/>
</g>
</g>
<path d="M24 321L387 52" stroke="#E83033" stroke-width="3" stroke-linecap="round"/>
<path d="M431 17.0666C431 7.64098 438.641 0 448.067 0H819.933C829.359 0 837 7.64101 837 17.0667V366.933C837 376.359 829.359 384 819.933 384H448.067C438.641 384 431 376.359 431 366.933V17.0666Z" fill="white"/>
<g opacity="0.8" filter="url(#filter3_f_2317_26856)">
<g filter="url(#filter4_f_2317_26856)">
<path d="M800.185 175.24C850.644 144.096 701.667 98.5546 620.872 79.6771C517.038 88.9721 525.9 263.329 594.108 228.032C700.95 172.741 689.639 157.149 800.185 175.24Z" fill="#AB30E8"/>
<path d="M845.679 139.629C808.067 163.095 642.624 232.409 628.241 206.606C526.297 272.861 756.001 257.837 761.422 258.205C692.871 207.757 832.962 170.694 845.679 139.629Z" fill="#E88C30"/>
</g>
<g style="mix-blend-mode:color-dodge" filter="url(#filter5_f_2317_26856)">
<path d="M806.716 258.424C857.175 227.279 708.199 181.738 627.403 162.861C523.57 172.156 532.432 346.513 600.639 311.216C707.481 255.925 696.17 240.332 806.716 258.424Z" fill="#AB30E8"/>
<path d="M813.078 122.914C775.466 146.38 610.022 215.694 595.639 189.891C493.696 256.146 723.399 241.122 728.82 241.49C660.269 191.042 800.36 153.979 813.078 122.914Z" fill="#E88C30"/>
</g>
</g>
<path d="M450 327L813 58" stroke="#E83033" stroke-width="3" stroke-linecap="round"/>
<defs>
<filter id="filter0_f_2317_26856" x="29.8474" y="47.7829" width="361.969" height="255.637" filterUnits="userSpaceOnUse" color-interpolation-filters="sRGB">
<feFlood flood-opacity="0" result="BackgroundImageFix"/>
<feBlend mode="normal" in="SourceGraphic" in2="BackgroundImageFix" result="shape"/>
<feGaussianBlur stdDeviation="8.53333" result="effect1_foregroundBlur_2317_26856"/>
</filter>
<filter id="filter1_f_2317_26856" x="23.8859" y="71.8879" width="337.884" height="231.619" filterUnits="userSpaceOnUse" color-interpolation-filters="sRGB">
<feFlood flood-opacity="0" result="BackgroundImageFix"/>
<feBlend mode="normal" in="SourceGraphic" in2="BackgroundImageFix" result="shape"/>
<feGaussianBlur stdDeviation="11.5141" result="effect1_foregroundBlur_2317_26856"/>
</filter>
<filter id="filter2_f_2317_26856" x="99.4172" y="41.8214" width="298.361" height="267.56" filterUnits="userSpaceOnUse" color-interpolation-filters="sRGB">
<feFlood flood-opacity="0" result="BackgroundImageFix"/>
<feBlend mode="normal" in="SourceGraphic" in2="BackgroundImageFix" result="shape"/>
<feGaussianBlur stdDeviation="11.5141" result="effect1_foregroundBlur_2317_26856"/>
</filter>
<filter id="filter3_f_2317_26856" x="525.73" y="62.6111" width="337.016" height="270.381" filterUnits="userSpaceOnUse" color-interpolation-filters="sRGB">
<feFlood flood-opacity="0" result="BackgroundImageFix"/>
<feBlend mode="normal" in="SourceGraphic" in2="BackgroundImageFix" result="shape"/>
<feGaussianBlur stdDeviation="8.53333" result="effect1_foregroundBlur_2317_26856"/>
</filter>
<filter id="filter4_f_2317_26856" x="488.589" y="25.4695" width="411.299" height="288.161" filterUnits="userSpaceOnUse" color-interpolation-filters="sRGB">
<feFlood flood-opacity="0" result="BackgroundImageFix"/>
<feBlend mode="normal" in="SourceGraphic" in2="BackgroundImageFix" result="shape"/>
<feGaussianBlur stdDeviation="27.1041" result="effect1_foregroundBlur_2317_26856"/>
</filter>
<filter id="filter5_f_2317_26856" x="495.12" y="68.7058" width="376.002" height="301.428" filterUnits="userSpaceOnUse" color-interpolation-filters="sRGB">
<feFlood flood-opacity="0" result="BackgroundImageFix"/>
<feBlend mode="normal" in="SourceGraphic" in2="BackgroundImageFix" result="shape"/>
<feGaussianBlur stdDeviation="27.1041" result="effect1_foregroundBlur_2317_26856"/>
</filter>
</defs>
</svg>
