<svg width="26" height="26" viewBox="0 0 26 26" fill="none" xmlns="http://www.w3.org/2000/svg">
<path d="M5.41016 10.1689C5.57035 10.0087 5.81805 9.98822 6 10.1084L6.07324 10.1689C6.23325 10.3291 6.25372 10.576 6.13379 10.7578L6.07324 10.8311L4.07715 12.8271C1.59891 15.3054 1.59891 19.4446 4.07715 21.9229C6.47798 24.3237 10.4374 24.3983 12.9355 22.1475L13.1729 21.9229L15.1689 19.9268C15.329 19.7667 15.576 19.7462 15.7578 19.8662L15.8311 19.9268C15.9911 20.0868 16.0115 20.3336 15.8916 20.5156L15.8311 20.5898L13.835 22.5859C11.0795 25.341 6.55255 25.4269 3.68652 22.8438L3.41406 22.5859V22.585C0.659029 19.8295 0.573073 15.3025 3.15625 12.4365L3.41406 12.165V12.1641L5.41016 10.1689ZM16.4189 8.91895C16.5791 8.75882 16.8259 8.73835 17.0078 8.8584L17.0811 8.91895C17.2412 9.07909 17.2616 9.32589 17.1416 9.50781L17.0811 9.58105L9.58105 17.0811C9.42091 17.2412 9.17412 17.2616 8.99219 17.1416L8.91895 17.0811C8.75882 16.9209 8.73836 16.6741 8.8584 16.4922L8.91895 16.4189L16.4189 8.91895ZM12.165 3.41406C14.9205 0.659028 19.4475 0.573069 22.3135 3.15625L22.585 3.41406H22.5859C25.3415 6.16956 25.4271 10.6974 22.8438 13.5635L22.5859 13.835L20.5898 15.8311C20.4296 15.9913 20.182 16.0118 20 15.8916L19.9268 15.8311C19.7668 15.671 19.7463 15.4241 19.8662 15.2422L19.9268 15.1689L21.9229 13.1729C24.4011 10.6946 24.4011 6.55538 21.9229 4.07715C19.522 1.67631 15.5626 1.60166 13.0645 3.85254L12.8271 4.07715L10.8311 6.07324C10.671 6.23322 10.4241 6.25373 10.2422 6.13379L10.1689 6.07324C10.0089 5.91314 9.98848 5.6663 10.1084 5.48438L10.1689 5.41016L12.1641 3.41406H12.165Z" fill="white" stroke="white" stroke-width="1.5625"/>
</svg>
