<svg width="27" height="26" viewBox="0 0 27 26" fill="none" xmlns="http://www.w3.org/2000/svg">
<path fill-rule="evenodd" clip-rule="evenodd" d="M15.8413 3.78708C13.4991 4.9116 8.81791 7.23907 1.79781 10.7695C0.657855 11.2928 0.0606976 11.8047 0.0063356 12.3052C-0.0855376 13.1511 0.832198 13.4842 2.08192 13.9378C2.25191 13.9995 2.42805 14.0634 2.60863 14.1312C3.83816 14.5925 5.4921 15.1322 6.35192 15.1537C7.13185 15.1731 8.00235 14.802 8.96341 14.0402C15.5225 8.92956 18.9083 6.34638 19.1209 6.29069C19.2709 6.2514 19.4787 6.20201 19.6195 6.34646C19.7603 6.49093 19.7465 6.7645 19.7315 6.8379C19.6406 7.28527 16.0382 11.1512 14.1739 13.1518C13.5927 13.7755 13.1805 14.2178 13.0962 14.3189C12.9074 14.5452 12.715 14.7593 12.5301 14.9651C11.3878 16.2361 10.5312 17.1893 12.5775 18.7458C13.5609 19.4938 14.3478 20.1123 15.1328 20.7294C15.9901 21.4033 16.8452 22.0755 17.9516 22.9126C18.2335 23.1259 18.5027 23.3474 18.7649 23.5632C19.7626 24.3842 20.659 25.1219 21.7664 25.0042C22.4098 24.9359 23.0745 24.2375 23.4121 22.1545C24.2098 17.2317 25.7779 6.56562 26.1403 2.17037C26.1721 1.78529 26.1321 1.29246 26.1001 1.07612C26.068 0.859782 26.001 0.551544 25.7573 0.323365C25.4688 0.0531318 25.0234 -0.00385396 24.8242 0.00019634C23.9185 0.0186132 22.5289 0.576351 15.8413 3.78708Z" fill="white"/>
</svg>
